<svg xmlns="http://www.w3.org/2000/svg" width="300" height="225">
  <g style="stroke:#000000;stroke-width:1;stroke-linejoin:miter;stroke-miterlimit:4;stroke-opacity:1;">
  <rect x="200" y="50" width="25" height="25" style="fill:rgb(242, 163, 72);" />
  <rect x="225" y="50" width="25" height="25" style="fill:rgb(242, 163, 72);" />
  <rect x="200" y="25" width="25" height="25" style="fill:rgb(242, 163, 72);" />
  <rect x="150" y="0" width="25" height="25" style="fill:rgb(242, 163, 72);" />
  <rect x="175" y="0" width="25" height="25" style="fill:rgb(242, 163, 72);" />
  <rect x="200" y="0" width="25" height="25" style="fill:rgb(242, 163, 72);" />
  </g>
  <g style="stroke:#000000;stroke-width:1;stroke-linejoin:miter;stroke-miterlimit:4;stroke-opacity:1;">
  <rect x="125" y="50" width="25" height="25" style="fill:rgb(115, 72, 242);" />
  </g>
  <g style="stroke:#000000;stroke-width:1;stroke-linejoin:miter;stroke-miterlimit:4;stroke-opacity:1;">
  <rect x="150" y="50" width="25" height="25" style="fill:rgb(81, 242, 72);" />
  <rect x="125" y="25" width="25" height="25" style="fill:rgb(81, 242, 72);" />
  <rect x="150" y="25" width="25" height="25" style="fill:rgb(81, 242, 72);" />
  <rect x="175" y="25" width="25" height="25" style="fill:rgb(81, 242, 72);" />
  <rect x="100" y="0" width="25" height="25" style="fill:rgb(81, 242, 72);" />
  <rect x="125" y="0" width="25" height="25" style="fill:rgb(81, 242, 72);" />
  </g>
  <g style="stroke:#000000;stroke-width:1;stroke-linejoin:miter;stroke-miterlimit:4;stroke-opacity:1;">
  <rect x="175" y="125" width="25" height="25" style="fill:rgb(242, 72, 129);" />
  <rect x="175" y="100" width="25" height="25" style="fill:rgb(242, 72, 129);" />
  <rect x="200" y="100" width="25" height="25" style="fill:rgb(242, 72, 129);" />
  <rect x="150" y="75" width="25" height="25" style="fill:rgb(242, 72, 129);" />
  <rect x="175" y="75" width="25" height="25" style="fill:rgb(242, 72, 129);" />
  <rect x="175" y="50" width="25" height="25" style="fill:rgb(242, 72, 129);" />
  </g>
  <g style="stroke:#000000;stroke-width:1;stroke-linejoin:miter;stroke-miterlimit:4;stroke-opacity:1;">
  <rect x="125" y="150" width="25" height="25" style="fill:rgb(72, 180, 242);" />
  <rect x="75" y="125" width="25" height="25" style="fill:rgb(72, 180, 242);" />
  <rect x="100" y="125" width="25" height="25" style="fill:rgb(72, 180, 242);" />
  <rect x="125" y="125" width="25" height="25" style="fill:rgb(72, 180, 242);" />
  <rect x="125" y="100" width="25" height="25" style="fill:rgb(72, 180, 242);" />
  <rect x="150" y="100" width="25" height="25" style="fill:rgb(72, 180, 242);" />
  </g>
  <g style="stroke:#000000;stroke-width:1;stroke-linejoin:miter;stroke-miterlimit:4;stroke-opacity:1;">
  <rect x="100" y="150" width="25" height="25" style="fill:rgb(228, 242, 72);" />
  </g>
  <g style="stroke:#000000;stroke-width:1;stroke-linejoin:miter;stroke-miterlimit:4;stroke-opacity:1;">
  <rect x="100" y="100" width="25" height="25" style="fill:rgb(205, 72, 242);" />
  <rect x="50" y="75" width="25" height="25" style="fill:rgb(205, 72, 242);" />
  <rect x="75" y="75" width="25" height="25" style="fill:rgb(205, 72, 242);" />
  <rect x="100" y="75" width="25" height="25" style="fill:rgb(205, 72, 242);" />
  <rect x="125" y="75" width="25" height="25" style="fill:rgb(205, 72, 242);" />
  <rect x="100" y="50" width="25" height="25" style="fill:rgb(205, 72, 242);" />
  </g>
  <g style="stroke:#000000;stroke-width:1;stroke-linejoin:miter;stroke-miterlimit:4;stroke-opacity:1;">
  <rect x="75" y="50" width="25" height="25" style="fill:rgb(72, 242, 157);" />
  <rect x="75" y="25" width="25" height="25" style="fill:rgb(72, 242, 157);" />
  <rect x="100" y="25" width="25" height="25" style="fill:rgb(72, 242, 157);" />
  <rect x="25" y="0" width="25" height="25" style="fill:rgb(72, 242, 157);" />
  <rect x="50" y="0" width="25" height="25" style="fill:rgb(72, 242, 157);" />
  <rect x="75" y="0" width="25" height="25" style="fill:rgb(72, 242, 157);" />
  </g>
  <g style="stroke:#000000;stroke-width:1;stroke-linejoin:miter;stroke-miterlimit:4;stroke-opacity:1;">
  <rect x="0" y="75" width="25" height="25" style="fill:rgb(242, 106, 72);" />
  <rect x="0" y="50" width="25" height="25" style="fill:rgb(242, 106, 72);" />
  <rect x="0" y="25" width="25" height="25" style="fill:rgb(242, 106, 72);" />
  <rect x="25" y="25" width="25" height="25" style="fill:rgb(242, 106, 72);" />
  <rect x="50" y="25" width="25" height="25" style="fill:rgb(242, 106, 72);" />
  <rect x="0" y="0" width="25" height="25" style="fill:rgb(242, 106, 72);" />
  </g>
  <g style="stroke:#000000;stroke-width:1;stroke-linejoin:miter;stroke-miterlimit:4;stroke-opacity:1;">
  <rect x="0" y="125" width="25" height="25" style="fill:rgb(72, 86, 242);" />
  <rect x="0" y="100" width="25" height="25" style="fill:rgb(72, 86, 242);" />
  <rect x="25" y="100" width="25" height="25" style="fill:rgb(72, 86, 242);" />
  <rect x="25" y="75" width="25" height="25" style="fill:rgb(72, 86, 242);" />
  <rect x="25" y="50" width="25" height="25" style="fill:rgb(72, 86, 242);" />
  <rect x="50" y="50" width="25" height="25" style="fill:rgb(72, 86, 242);" />
  </g>
  <g style="stroke:#000000;stroke-width:1;stroke-linejoin:miter;stroke-miterlimit:4;stroke-opacity:1;">
  <rect x="50" y="150" width="25" height="25" style="fill:rgb(137, 242, 72);" />
  </g>
  <g style="stroke:#000000;stroke-width:1;stroke-linejoin:miter;stroke-miterlimit:4;stroke-opacity:1;">
  <rect x="0" y="150" width="25" height="25" style="fill:rgb(242, 72, 185);" />
  <rect x="25" y="150" width="25" height="25" style="fill:rgb(242, 72, 185);" />
  <rect x="25" y="125" width="25" height="25" style="fill:rgb(242, 72, 185);" />
  <rect x="50" y="125" width="25" height="25" style="fill:rgb(242, 72, 185);" />
  <rect x="50" y="100" width="25" height="25" style="fill:rgb(242, 72, 185);" />
  <rect x="75" y="100" width="25" height="25" style="fill:rgb(242, 72, 185);" />
  </g>
  <g style="stroke:#000000;stroke-width:1;stroke-linejoin:miter;stroke-miterlimit:4;stroke-opacity:1;">
  <rect x="250" y="0" width="25" height="25" style="fill:rgb(72, 236, 242);" />
  </g>
  <g style="stroke:#000000;stroke-width:1;stroke-linejoin:miter;stroke-miterlimit:4;stroke-opacity:1;">
  <rect x="250" y="50" width="25" height="25" style="fill:rgb(242, 199, 72);" />
  <rect x="225" y="25" width="25" height="25" style="fill:rgb(242, 199, 72);" />
  <rect x="250" y="25" width="25" height="25" style="fill:rgb(242, 199, 72);" />
  <rect x="275" y="25" width="25" height="25" style="fill:rgb(242, 199, 72);" />
  <rect x="225" y="0" width="25" height="25" style="fill:rgb(242, 199, 72);" />
  <rect x="275" y="0" width="25" height="25" style="fill:rgb(242, 199, 72);" />
  </g>
  <g style="stroke:#000000;stroke-width:1;stroke-linejoin:miter;stroke-miterlimit:4;stroke-opacity:1;">
  <rect x="225" y="150" width="25" height="25" style="fill:rgb(148, 72, 242);" />
  <rect x="225" y="125" width="25" height="25" style="fill:rgb(148, 72, 242);" />
  <rect x="225" y="100" width="25" height="25" style="fill:rgb(148, 72, 242);" />
  <rect x="200" y="75" width="25" height="25" style="fill:rgb(148, 72, 242);" />
  <rect x="225" y="75" width="25" height="25" style="fill:rgb(148, 72, 242);" />
  <rect x="250" y="75" width="25" height="25" style="fill:rgb(148, 72, 242);" />
  </g>
  <g style="stroke:#000000;stroke-width:1;stroke-linejoin:miter;stroke-miterlimit:4;stroke-opacity:1;">
  <rect x="250" y="150" width="25" height="25" style="fill:rgb(72, 242, 100);" />
  <rect x="250" y="125" width="25" height="25" style="fill:rgb(72, 242, 100);" />
  <rect x="250" y="100" width="25" height="25" style="fill:rgb(72, 242, 100);" />
  <rect x="275" y="100" width="25" height="25" style="fill:rgb(72, 242, 100);" />
  <rect x="275" y="75" width="25" height="25" style="fill:rgb(72, 242, 100);" />
  <rect x="275" y="50" width="25" height="25" style="fill:rgb(72, 242, 100);" />
  </g>
  <g style="stroke:#000000;stroke-width:1;stroke-linejoin:miter;stroke-miterlimit:4;stroke-opacity:1;">
  <rect x="275" y="200" width="25" height="25" style="fill:rgb(242, 72, 95);" />
  </g>
  <g style="stroke:#000000;stroke-width:1;stroke-linejoin:miter;stroke-miterlimit:4;stroke-opacity:1;">
  <rect x="225" y="200" width="25" height="25" style="fill:rgb(72, 143, 242);" />
  <rect x="250" y="200" width="25" height="25" style="fill:rgb(72, 143, 242);" />
  <rect x="250" y="175" width="25" height="25" style="fill:rgb(72, 143, 242);" />
  <rect x="275" y="175" width="25" height="25" style="fill:rgb(72, 143, 242);" />
  <rect x="275" y="150" width="25" height="25" style="fill:rgb(72, 143, 242);" />
  <rect x="275" y="125" width="25" height="25" style="fill:rgb(72, 143, 242);" />
  </g>
  <g style="stroke:#000000;stroke-width:1;stroke-linejoin:miter;stroke-miterlimit:4;stroke-opacity:1;">
  <rect x="175" y="175" width="25" height="25" style="fill:rgb(194, 242, 72);" />
  </g>
  <g style="stroke:#000000;stroke-width:1;stroke-linejoin:miter;stroke-miterlimit:4;stroke-opacity:1;">
  <rect x="175" y="200" width="25" height="25" style="fill:rgb(242, 72, 242);" />
  <rect x="200" y="200" width="25" height="25" style="fill:rgb(242, 72, 242);" />
  <rect x="200" y="175" width="25" height="25" style="fill:rgb(242, 72, 242);" />
  <rect x="225" y="175" width="25" height="25" style="fill:rgb(242, 72, 242);" />
  <rect x="200" y="150" width="25" height="25" style="fill:rgb(242, 72, 242);" />
  <rect x="200" y="125" width="25" height="25" style="fill:rgb(242, 72, 242);" />
  </g>
  <g style="stroke:#000000;stroke-width:1;stroke-linejoin:miter;stroke-miterlimit:4;stroke-opacity:1;">
  <rect x="125" y="200" width="25" height="25" style="fill:rgb(72, 242, 191);" />
  <rect x="150" y="200" width="25" height="25" style="fill:rgb(72, 242, 191);" />
  <rect x="150" y="175" width="25" height="25" style="fill:rgb(72, 242, 191);" />
  <rect x="150" y="150" width="25" height="25" style="fill:rgb(72, 242, 191);" />
  <rect x="175" y="150" width="25" height="25" style="fill:rgb(72, 242, 191);" />
  <rect x="150" y="125" width="25" height="25" style="fill:rgb(72, 242, 191);" />
  </g>
  <g style="stroke:#000000;stroke-width:1;stroke-linejoin:miter;stroke-miterlimit:4;stroke-opacity:1;">
  <rect x="25" y="200" width="25" height="25" style="fill:rgb(242, 143, 72);" />
  <rect x="50" y="200" width="25" height="25" style="fill:rgb(242, 143, 72);" />
  <rect x="75" y="200" width="25" height="25" style="fill:rgb(242, 143, 72);" />
  <rect x="100" y="200" width="25" height="25" style="fill:rgb(242, 143, 72);" />
  <rect x="100" y="175" width="25" height="25" style="fill:rgb(242, 143, 72);" />
  <rect x="125" y="175" width="25" height="25" style="fill:rgb(242, 143, 72);" />
  </g>
  <g style="stroke:#000000;stroke-width:1;stroke-linejoin:miter;stroke-miterlimit:4;stroke-opacity:1;">
  <rect x="0" y="200" width="25" height="25" style="fill:rgb(92, 72, 242);" />
  <rect x="0" y="175" width="25" height="25" style="fill:rgb(92, 72, 242);" />
  <rect x="25" y="175" width="25" height="25" style="fill:rgb(92, 72, 242);" />
  <rect x="50" y="175" width="25" height="25" style="fill:rgb(92, 72, 242);" />
  <rect x="75" y="175" width="25" height="25" style="fill:rgb(92, 72, 242);" />
  <rect x="75" y="150" width="25" height="25" style="fill:rgb(92, 72, 242);" />
  </g>
  
</svg>
