<?xml version="1.0" standalone="no"?> 
<svg xmlns="http://www.w3.org/2000/svg" width="375" height="375">
  <g style="stroke:#000000;stroke-width:1;stroke-linejoin:miter;stroke-miterlimit:4;stroke-opacity:1;">
  <rect x="225" y="100" width="25" height="25" style="fill:rgb(242, 171, 72);" />
  <rect x="250" y="100" width="25" height="25" style="fill:rgb(242, 171, 72);" />
  <rect x="275" y="100" width="25" height="25" style="fill:rgb(242, 171, 72);" />
  <rect x="225" y="75" width="25" height="25" style="fill:rgb(242, 171, 72);" />
  <rect x="275" y="75" width="25" height="25" style="fill:rgb(242, 171, 72);" />
  <rect x="275" y="50" width="25" height="25" style="fill:rgb(242, 171, 72);" />
  </g>
  <g style="stroke:#000000;stroke-width:1;stroke-linejoin:miter;stroke-miterlimit:4;stroke-opacity:1;">
  <rect x="250" y="75" width="25" height="25" style="fill:rgb(123, 72, 242);" />
  <rect x="225" y="50" width="25" height="25" style="fill:rgb(123, 72, 242);" />
  <rect x="250" y="50" width="25" height="25" style="fill:rgb(123, 72, 242);" />
  <rect x="250" y="25" width="25" height="25" style="fill:rgb(123, 72, 242);" />
  <rect x="275" y="25" width="25" height="25" style="fill:rgb(123, 72, 242);" />
  <rect x="250" y="0" width="25" height="25" style="fill:rgb(123, 72, 242);" />
  </g>
  <g style="stroke:#000000;stroke-width:1;stroke-linejoin:miter;stroke-miterlimit:4;stroke-opacity:1;">
  <rect x="200" y="25" width="25" height="25" style="fill:rgb(72, 242, 72);" />
  <rect x="225" y="25" width="25" height="25" style="fill:rgb(72, 242, 72);" />
  <rect x="150" y="0" width="25" height="25" style="fill:rgb(72, 242, 72);" />
  <rect x="175" y="0" width="25" height="25" style="fill:rgb(72, 242, 72);" />
  <rect x="200" y="0" width="25" height="25" style="fill:rgb(72, 242, 72);" />
  <rect x="225" y="0" width="25" height="25" style="fill:rgb(72, 242, 72);" />
  </g>
  <g style="stroke:#000000;stroke-width:1;stroke-linejoin:miter;stroke-miterlimit:4;stroke-opacity:1;">
  <rect x="175" y="75" width="25" height="25" style="fill:rgb(242, 72, 120);" />
  <rect x="175" y="50" width="25" height="25" style="fill:rgb(242, 72, 120);" />
  <rect x="100" y="25" width="25" height="25" style="fill:rgb(242, 72, 120);" />
  <rect x="125" y="25" width="25" height="25" style="fill:rgb(242, 72, 120);" />
  <rect x="150" y="25" width="25" height="25" style="fill:rgb(242, 72, 120);" />
  <rect x="175" y="25" width="25" height="25" style="fill:rgb(242, 72, 120);" />
  </g>
  <g style="stroke:#000000;stroke-width:1;stroke-linejoin:miter;stroke-miterlimit:4;stroke-opacity:1;">
  <rect x="100" y="75" width="25" height="25" style="fill:rgb(72, 171, 242);" />
  <rect x="75" y="50" width="25" height="25" style="fill:rgb(72, 171, 242);" />
  <rect x="100" y="50" width="25" height="25" style="fill:rgb(72, 171, 242);" />
  <rect x="125" y="50" width="25" height="25" style="fill:rgb(72, 171, 242);" />
  <rect x="150" y="50" width="25" height="25" style="fill:rgb(72, 171, 242);" />
  <rect x="75" y="25" width="25" height="25" style="fill:rgb(72, 171, 242);" />
  </g>
  <g style="stroke:#000000;stroke-width:1;stroke-linejoin:miter;stroke-miterlimit:4;stroke-opacity:1;">
  <rect x="175" y="125" width="25" height="25" style="fill:rgb(219, 242, 72);" />
  <rect x="200" y="125" width="25" height="25" style="fill:rgb(219, 242, 72);" />
  <rect x="225" y="125" width="25" height="25" style="fill:rgb(219, 242, 72);" />
  <rect x="200" y="100" width="25" height="25" style="fill:rgb(219, 242, 72);" />
  <rect x="200" y="75" width="25" height="25" style="fill:rgb(219, 242, 72);" />
  <rect x="200" y="50" width="25" height="25" style="fill:rgb(219, 242, 72);" />
  </g>
  <g style="stroke:#000000;stroke-width:1;stroke-linejoin:miter;stroke-miterlimit:4;stroke-opacity:1;">
  <rect x="100" y="125" width="25" height="25" style="fill:rgb(213, 72, 242);" />
  <rect x="125" y="125" width="25" height="25" style="fill:rgb(213, 72, 242);" />
  <rect x="150" y="125" width="25" height="25" style="fill:rgb(213, 72, 242);" />
  <rect x="150" y="100" width="25" height="25" style="fill:rgb(213, 72, 242);" />
  <rect x="175" y="100" width="25" height="25" style="fill:rgb(213, 72, 242);" />
  <rect x="150" y="75" width="25" height="25" style="fill:rgb(213, 72, 242);" />
  </g>
  <g style="stroke:#000000;stroke-width:1;stroke-linejoin:miter;stroke-miterlimit:4;stroke-opacity:1;">
  <rect x="50" y="125" width="25" height="25" style="fill:rgb(72, 242, 165);" />
  <rect x="50" y="100" width="25" height="25" style="fill:rgb(72, 242, 165);" />
  <rect x="75" y="100" width="25" height="25" style="fill:rgb(72, 242, 165);" />
  <rect x="100" y="100" width="25" height="25" style="fill:rgb(72, 242, 165);" />
  <rect x="125" y="100" width="25" height="25" style="fill:rgb(72, 242, 165);" />
  <rect x="125" y="75" width="25" height="25" style="fill:rgb(72, 242, 165);" />
  </g>
  <g style="stroke:#000000;stroke-width:1;stroke-linejoin:miter;stroke-miterlimit:4;stroke-opacity:1;">
  <rect x="50" y="175" width="25" height="25" style="fill:rgb(242, 115, 72);" />
  <rect x="100" y="175" width="25" height="25" style="fill:rgb(242, 115, 72);" />
  <rect x="50" y="150" width="25" height="25" style="fill:rgb(242, 115, 72);" />
  <rect x="75" y="150" width="25" height="25" style="fill:rgb(242, 115, 72);" />
  <rect x="100" y="150" width="25" height="25" style="fill:rgb(242, 115, 72);" />
  <rect x="75" y="125" width="25" height="25" style="fill:rgb(242, 115, 72);" />
  </g>
  <g style="stroke:#000000;stroke-width:1;stroke-linejoin:miter;stroke-miterlimit:4;stroke-opacity:1;">
  <rect x="25" y="125" width="25" height="25" style="fill:rgb(72, 78, 242);" />
  <rect x="25" y="100" width="25" height="25" style="fill:rgb(72, 78, 242);" />
  <rect x="0" y="75" width="25" height="25" style="fill:rgb(72, 78, 242);" />
  <rect x="25" y="75" width="25" height="25" style="fill:rgb(72, 78, 242);" />
  <rect x="50" y="75" width="25" height="25" style="fill:rgb(72, 78, 242);" />
  <rect x="75" y="75" width="25" height="25" style="fill:rgb(72, 78, 242);" />
  </g>
  <g style="stroke:#000000;stroke-width:1;stroke-linejoin:miter;stroke-miterlimit:4;stroke-opacity:1;">
  <rect x="100" y="225" width="25" height="25" style="fill:rgb(129, 242, 72);" />
  <rect x="125" y="225" width="25" height="25" style="fill:rgb(129, 242, 72);" />
  <rect x="50" y="200" width="25" height="25" style="fill:rgb(129, 242, 72);" />
  <rect x="75" y="200" width="25" height="25" style="fill:rgb(129, 242, 72);" />
  <rect x="100" y="200" width="25" height="25" style="fill:rgb(129, 242, 72);" />
  <rect x="75" y="175" width="25" height="25" style="fill:rgb(129, 242, 72);" />
  </g>
  <g style="stroke:#000000;stroke-width:1;stroke-linejoin:miter;stroke-miterlimit:4;stroke-opacity:1;">
  <rect x="75" y="275" width="25" height="25" style="fill:rgb(242, 72, 177);" />
  <rect x="25" y="250" width="25" height="25" style="fill:rgb(242, 72, 177);" />
  <rect x="50" y="250" width="25" height="25" style="fill:rgb(242, 72, 177);" />
  <rect x="75" y="250" width="25" height="25" style="fill:rgb(242, 72, 177);" />
  <rect x="100" y="250" width="25" height="25" style="fill:rgb(242, 72, 177);" />
  <rect x="75" y="225" width="25" height="25" style="fill:rgb(242, 72, 177);" />
  </g>
  <g style="stroke:#000000;stroke-width:1;stroke-linejoin:miter;stroke-miterlimit:4;stroke-opacity:1;">
  <rect x="0" y="200" width="25" height="25" style="fill:rgb(72, 228, 242);" />
  <rect x="0" y="175" width="25" height="25" style="fill:rgb(72, 228, 242);" />
  <rect x="0" y="150" width="25" height="25" style="fill:rgb(72, 228, 242);" />
  <rect x="25" y="150" width="25" height="25" style="fill:rgb(72, 228, 242);" />
  <rect x="0" y="125" width="25" height="25" style="fill:rgb(72, 228, 242);" />
  <rect x="0" y="100" width="25" height="25" style="fill:rgb(72, 228, 242);" />
  </g>
  <g style="stroke:#000000;stroke-width:1;stroke-linejoin:miter;stroke-miterlimit:4;stroke-opacity:1;">
  <rect x="0" y="250" width="25" height="25" style="fill:rgb(242, 208, 72);" />
  <rect x="0" y="225" width="25" height="25" style="fill:rgb(242, 208, 72);" />
  <rect x="25" y="225" width="25" height="25" style="fill:rgb(242, 208, 72);" />
  <rect x="50" y="225" width="25" height="25" style="fill:rgb(242, 208, 72);" />
  <rect x="25" y="200" width="25" height="25" style="fill:rgb(242, 208, 72);" />
  <rect x="25" y="175" width="25" height="25" style="fill:rgb(242, 208, 72);" />
  </g>
  <g style="stroke:#000000;stroke-width:1;stroke-linejoin:miter;stroke-miterlimit:4;stroke-opacity:1;">
  <rect x="300" y="125" width="25" height="25" style="fill:rgb(157, 72, 242);" />
  <rect x="325" y="125" width="25" height="25" style="fill:rgb(157, 72, 242);" />
  <rect x="300" y="100" width="25" height="25" style="fill:rgb(157, 72, 242);" />
  <rect x="325" y="100" width="25" height="25" style="fill:rgb(157, 72, 242);" />
  <rect x="350" y="100" width="25" height="25" style="fill:rgb(157, 72, 242);" />
  <rect x="325" y="75" width="25" height="25" style="fill:rgb(157, 72, 242);" />
  </g>
  <g style="stroke:#000000;stroke-width:1;stroke-linejoin:miter;stroke-miterlimit:4;stroke-opacity:1;">
  <rect x="300" y="75" width="25" height="25" style="fill:rgb(72, 242, 109);" />
  <rect x="350" y="75" width="25" height="25" style="fill:rgb(72, 242, 109);" />
  <rect x="300" y="50" width="25" height="25" style="fill:rgb(72, 242, 109);" />
  <rect x="325" y="50" width="25" height="25" style="fill:rgb(72, 242, 109);" />
  <rect x="350" y="50" width="25" height="25" style="fill:rgb(72, 242, 109);" />
  <rect x="350" y="25" width="25" height="25" style="fill:rgb(72, 242, 109);" />
  </g>
  <g style="stroke:#000000;stroke-width:1;stroke-linejoin:miter;stroke-miterlimit:4;stroke-opacity:1;">
  <rect x="300" y="25" width="25" height="25" style="fill:rgb(242, 72, 86);" />
  <rect x="325" y="25" width="25" height="25" style="fill:rgb(242, 72, 86);" />
  <rect x="275" y="0" width="25" height="25" style="fill:rgb(242, 72, 86);" />
  <rect x="300" y="0" width="25" height="25" style="fill:rgb(242, 72, 86);" />
  <rect x="325" y="0" width="25" height="25" style="fill:rgb(242, 72, 86);" />
  <rect x="350" y="0" width="25" height="25" style="fill:rgb(242, 72, 86);" />
  </g>
  <g style="stroke:#000000;stroke-width:1;stroke-linejoin:miter;stroke-miterlimit:4;stroke-opacity:1;">
  <rect x="100" y="300" width="25" height="25" style="fill:rgb(72, 134, 242);" />
  <rect x="150" y="300" width="25" height="25" style="fill:rgb(72, 134, 242);" />
  <rect x="100" y="275" width="25" height="25" style="fill:rgb(72, 134, 242);" />
  <rect x="125" y="275" width="25" height="25" style="fill:rgb(72, 134, 242);" />
  <rect x="150" y="275" width="25" height="25" style="fill:rgb(72, 134, 242);" />
  <rect x="175" y="275" width="25" height="25" style="fill:rgb(72, 134, 242);" />
  </g>
  <g style="stroke:#000000;stroke-width:1;stroke-linejoin:miter;stroke-miterlimit:4;stroke-opacity:1;">
  <rect x="200" y="275" width="25" height="25" style="fill:rgb(185, 242, 72);" />
  <rect x="125" y="250" width="25" height="25" style="fill:rgb(185, 242, 72);" />
  <rect x="150" y="250" width="25" height="25" style="fill:rgb(185, 242, 72);" />
  <rect x="175" y="250" width="25" height="25" style="fill:rgb(185, 242, 72);" />
  <rect x="200" y="250" width="25" height="25" style="fill:rgb(185, 242, 72);" />
  <rect x="150" y="225" width="25" height="25" style="fill:rgb(185, 242, 72);" />
  </g>
  <g style="stroke:#000000;stroke-width:1;stroke-linejoin:miter;stroke-miterlimit:4;stroke-opacity:1;">
  <rect x="275" y="200" width="25" height="25" style="fill:rgb(242, 72, 233);" />
  <rect x="250" y="175" width="25" height="25" style="fill:rgb(242, 72, 233);" />
  <rect x="275" y="175" width="25" height="25" style="fill:rgb(242, 72, 233);" />
  <rect x="250" y="150" width="25" height="25" style="fill:rgb(242, 72, 233);" />
  <rect x="250" y="125" width="25" height="25" style="fill:rgb(242, 72, 233);" />
  <rect x="275" y="125" width="25" height="25" style="fill:rgb(242, 72, 233);" />
  </g>
  <g style="stroke:#000000;stroke-width:1;stroke-linejoin:miter;stroke-miterlimit:4;stroke-opacity:1;">
  <rect x="275" y="225" width="25" height="25" style="fill:rgb(72, 242, 199);" />
  <rect x="300" y="225" width="25" height="25" style="fill:rgb(72, 242, 199);" />
  <rect x="300" y="200" width="25" height="25" style="fill:rgb(72, 242, 199);" />
  <rect x="300" y="175" width="25" height="25" style="fill:rgb(72, 242, 199);" />
  <rect x="275" y="150" width="25" height="25" style="fill:rgb(72, 242, 199);" />
  <rect x="300" y="150" width="25" height="25" style="fill:rgb(72, 242, 199);" />
  </g>
  <g style="stroke:#000000;stroke-width:1;stroke-linejoin:miter;stroke-miterlimit:4;stroke-opacity:1;">
  <rect x="225" y="275" width="25" height="25" style="fill:rgb(242, 151, 72);" />
  <rect x="250" y="275" width="25" height="25" style="fill:rgb(242, 151, 72);" />
  <rect x="225" y="250" width="25" height="25" style="fill:rgb(242, 151, 72);" />
  <rect x="175" y="225" width="25" height="25" style="fill:rgb(242, 151, 72);" />
  <rect x="200" y="225" width="25" height="25" style="fill:rgb(242, 151, 72);" />
  <rect x="225" y="225" width="25" height="25" style="fill:rgb(242, 151, 72);" />
  </g>
  <g style="stroke:#000000;stroke-width:1;stroke-linejoin:miter;stroke-miterlimit:4;stroke-opacity:1;">
  <rect x="275" y="300" width="25" height="25" style="fill:rgb(100, 72, 242);" />
  <rect x="275" y="275" width="25" height="25" style="fill:rgb(100, 72, 242);" />
  <rect x="250" y="250" width="25" height="25" style="fill:rgb(100, 72, 242);" />
  <rect x="275" y="250" width="25" height="25" style="fill:rgb(100, 72, 242);" />
  <rect x="250" y="225" width="25" height="25" style="fill:rgb(100, 72, 242);" />
  <rect x="250" y="200" width="25" height="25" style="fill:rgb(100, 72, 242);" />
  </g>
  <g style="stroke:#000000;stroke-width:1;stroke-linejoin:miter;stroke-miterlimit:4;stroke-opacity:1;">
  <rect x="350" y="225" width="25" height="25" style="fill:rgb(92, 242, 72);" />
  <rect x="350" y="200" width="25" height="25" style="fill:rgb(92, 242, 72);" />
  <rect x="350" y="175" width="25" height="25" style="fill:rgb(92, 242, 72);" />
  <rect x="325" y="150" width="25" height="25" style="fill:rgb(92, 242, 72);" />
  <rect x="350" y="150" width="25" height="25" style="fill:rgb(92, 242, 72);" />
  <rect x="350" y="125" width="25" height="25" style="fill:rgb(92, 242, 72);" />
  </g>
  <g style="stroke:#000000;stroke-width:1;stroke-linejoin:miter;stroke-miterlimit:4;stroke-opacity:1;">
  <rect x="350" y="275" width="25" height="25" style="fill:rgb(242, 72, 143);" />
  <rect x="325" y="250" width="25" height="25" style="fill:rgb(242, 72, 143);" />
  <rect x="350" y="250" width="25" height="25" style="fill:rgb(242, 72, 143);" />
  <rect x="325" y="225" width="25" height="25" style="fill:rgb(242, 72, 143);" />
  <rect x="325" y="200" width="25" height="25" style="fill:rgb(242, 72, 143);" />
  <rect x="325" y="175" width="25" height="25" style="fill:rgb(242, 72, 143);" />
  </g>
  <g style="stroke:#000000;stroke-width:1;stroke-linejoin:miter;stroke-miterlimit:4;stroke-opacity:1;">
  <rect x="300" y="350" width="25" height="25" style="fill:rgb(72, 191, 242);" />
  <rect x="325" y="350" width="25" height="25" style="fill:rgb(72, 191, 242);" />
  <rect x="300" y="325" width="25" height="25" style="fill:rgb(72, 191, 242);" />
  <rect x="300" y="300" width="25" height="25" style="fill:rgb(72, 191, 242);" />
  <rect x="300" y="275" width="25" height="25" style="fill:rgb(72, 191, 242);" />
  <rect x="300" y="250" width="25" height="25" style="fill:rgb(72, 191, 242);" />
  </g>
  <g style="stroke:#000000;stroke-width:1;stroke-linejoin:miter;stroke-miterlimit:4;stroke-opacity:1;">
  <rect x="350" y="350" width="25" height="25" style="fill:rgb(242, 242, 72);" />
  <rect x="325" y="325" width="25" height="25" style="fill:rgb(242, 242, 72);" />
  <rect x="350" y="325" width="25" height="25" style="fill:rgb(242, 242, 72);" />
  <rect x="325" y="300" width="25" height="25" style="fill:rgb(242, 242, 72);" />
  <rect x="350" y="300" width="25" height="25" style="fill:rgb(242, 242, 72);" />
  <rect x="325" y="275" width="25" height="25" style="fill:rgb(242, 242, 72);" />
  </g>
  <g style="stroke:#000000;stroke-width:1;stroke-linejoin:miter;stroke-miterlimit:4;stroke-opacity:1;">
  <rect x="225" y="350" width="25" height="25" style="fill:rgb(194, 72, 242);" />
  <rect x="250" y="350" width="25" height="25" style="fill:rgb(194, 72, 242);" />
  <rect x="275" y="350" width="25" height="25" style="fill:rgb(194, 72, 242);" />
  <rect x="250" y="325" width="25" height="25" style="fill:rgb(194, 72, 242);" />
  <rect x="275" y="325" width="25" height="25" style="fill:rgb(194, 72, 242);" />
  <rect x="250" y="300" width="25" height="25" style="fill:rgb(194, 72, 242);" />
  </g>
  <g style="stroke:#000000;stroke-width:1;stroke-linejoin:miter;stroke-miterlimit:4;stroke-opacity:1;">
  <rect x="175" y="350" width="25" height="25" style="fill:rgb(72, 242, 143);" />
  <rect x="200" y="350" width="25" height="25" style="fill:rgb(72, 242, 143);" />
  <rect x="200" y="325" width="25" height="25" style="fill:rgb(72, 242, 143);" />
  <rect x="225" y="325" width="25" height="25" style="fill:rgb(72, 242, 143);" />
  <rect x="200" y="300" width="25" height="25" style="fill:rgb(72, 242, 143);" />
  <rect x="225" y="300" width="25" height="25" style="fill:rgb(72, 242, 143);" />
  </g>
  <g style="stroke:#000000;stroke-width:1;stroke-linejoin:miter;stroke-miterlimit:4;stroke-opacity:1;">
  <rect x="0" y="325" width="25" height="25" style="fill:rgb(242, 95, 72);" />
  <rect x="0" y="300" width="25" height="25" style="fill:rgb(242, 95, 72);" />
  <rect x="25" y="300" width="25" height="25" style="fill:rgb(242, 95, 72);" />
  <rect x="0" y="275" width="25" height="25" style="fill:rgb(242, 95, 72);" />
  <rect x="25" y="275" width="25" height="25" style="fill:rgb(242, 95, 72);" />
  <rect x="50" y="275" width="25" height="25" style="fill:rgb(242, 95, 72);" />
  </g>
  <g style="stroke:#000000;stroke-width:1;stroke-linejoin:miter;stroke-miterlimit:4;stroke-opacity:1;">
  <rect x="100" y="350" width="25" height="25" style="fill:rgb(72, 100, 242);" />
  <rect x="125" y="350" width="25" height="25" style="fill:rgb(72, 100, 242);" />
  <rect x="150" y="350" width="25" height="25" style="fill:rgb(72, 100, 242);" />
  <rect x="150" y="325" width="25" height="25" style="fill:rgb(72, 100, 242);" />
  <rect x="175" y="325" width="25" height="25" style="fill:rgb(72, 100, 242);" />
  <rect x="175" y="300" width="25" height="25" style="fill:rgb(72, 100, 242);" />
  </g>
  <g style="stroke:#000000;stroke-width:1;stroke-linejoin:miter;stroke-miterlimit:4;stroke-opacity:1;">
  <rect x="50" y="350" width="25" height="25" style="fill:rgb(148, 242, 72);" />
  <rect x="75" y="350" width="25" height="25" style="fill:rgb(148, 242, 72);" />
  <rect x="75" y="325" width="25" height="25" style="fill:rgb(148, 242, 72);" />
  <rect x="100" y="325" width="25" height="25" style="fill:rgb(148, 242, 72);" />
  <rect x="125" y="325" width="25" height="25" style="fill:rgb(148, 242, 72);" />
  <rect x="125" y="300" width="25" height="25" style="fill:rgb(148, 242, 72);" />
  </g>
  <g style="stroke:#000000;stroke-width:1;stroke-linejoin:miter;stroke-miterlimit:4;stroke-opacity:1;">
  <rect x="0" y="350" width="25" height="25" style="fill:rgb(242, 72, 199);" />
  <rect x="25" y="350" width="25" height="25" style="fill:rgb(242, 72, 199);" />
  <rect x="25" y="325" width="25" height="25" style="fill:rgb(242, 72, 199);" />
  <rect x="50" y="325" width="25" height="25" style="fill:rgb(242, 72, 199);" />
  <rect x="50" y="300" width="25" height="25" style="fill:rgb(242, 72, 199);" />
  <rect x="75" y="300" width="25" height="25" style="fill:rgb(242, 72, 199);" />
  </g>
  <g style="stroke:#000000;stroke-width:1;stroke-linejoin:miter;stroke-miterlimit:4;stroke-opacity:1;">
  <rect x="0" y="50" width="25" height="25" style="fill:rgb(72, 242, 236);" />
  <rect x="25" y="50" width="25" height="25" style="fill:rgb(72, 242, 236);" />
  <rect x="50" y="50" width="25" height="25" style="fill:rgb(72, 242, 236);" />
  <rect x="0" y="25" width="25" height="25" style="fill:rgb(72, 242, 236);" />
  <rect x="25" y="25" width="25" height="25" style="fill:rgb(72, 242, 236);" />
  <rect x="50" y="25" width="25" height="25" style="fill:rgb(72, 242, 236);" />
  </g>
  <g style="stroke:#000000;stroke-width:1;stroke-linejoin:miter;stroke-miterlimit:4;stroke-opacity:1;">
  <rect x="0" y="0" width="25" height="25" style="fill:rgb(242, 185, 72);" />
  <rect x="25" y="0" width="25" height="25" style="fill:rgb(242, 185, 72);" />
  <rect x="50" y="0" width="25" height="25" style="fill:rgb(242, 185, 72);" />
  <rect x="75" y="0" width="25" height="25" style="fill:rgb(242, 185, 72);" />
  <rect x="100" y="0" width="25" height="25" style="fill:rgb(242, 185, 72);" />
  <rect x="125" y="0" width="25" height="25" style="fill:rgb(242, 185, 72);" />
  </g>
  
</svg>
