<?xml version="1.0" standalone="no"?> 
<svg xmlns="http://www.w3.org/2000/svg" width="375" height="375">
  <g style="stroke:#000000;stroke-width:1;stroke-linejoin:miter;stroke-miterlimit:4;stroke-opacity:1;">
  <rect x="225" y="100" width="25" height="25" style="fill:rgb(72, 242, 103);" />
  <rect x="250" y="100" width="25" height="25" style="fill:rgb(72, 242, 103);" />
  <rect x="275" y="100" width="25" height="25" style="fill:rgb(72, 242, 103);" />
  <rect x="225" y="75" width="25" height="25" style="fill:rgb(72, 242, 103);" />
  <rect x="275" y="75" width="25" height="25" style="fill:rgb(72, 242, 103);" />
  <rect x="275" y="50" width="25" height="25" style="fill:rgb(72, 242, 103);" />
  </g>
  <g style="stroke:#000000;stroke-width:1;stroke-linejoin:miter;stroke-miterlimit:4;stroke-opacity:1;">
  <rect x="250" y="75" width="25" height="25" style="fill:rgb(242, 72, 92);" />
  <rect x="225" y="50" width="25" height="25" style="fill:rgb(242, 72, 92);" />
  <rect x="250" y="50" width="25" height="25" style="fill:rgb(242, 72, 92);" />
  <rect x="250" y="25" width="25" height="25" style="fill:rgb(242, 72, 92);" />
  <rect x="275" y="25" width="25" height="25" style="fill:rgb(242, 72, 92);" />
  <rect x="250" y="0" width="25" height="25" style="fill:rgb(242, 72, 92);" />
  </g>
  <g style="stroke:#000000;stroke-width:1;stroke-linejoin:miter;stroke-miterlimit:4;stroke-opacity:1;">
  <rect x="200" y="25" width="25" height="25" style="fill:rgb(72, 140, 242);" />
  <rect x="225" y="25" width="25" height="25" style="fill:rgb(72, 140, 242);" />
  <rect x="150" y="0" width="25" height="25" style="fill:rgb(72, 140, 242);" />
  <rect x="175" y="0" width="25" height="25" style="fill:rgb(72, 140, 242);" />
  <rect x="200" y="0" width="25" height="25" style="fill:rgb(72, 140, 242);" />
  <rect x="225" y="0" width="25" height="25" style="fill:rgb(72, 140, 242);" />
  </g>
  <g style="stroke:#000000;stroke-width:1;stroke-linejoin:miter;stroke-miterlimit:4;stroke-opacity:1;">
  <rect x="175" y="75" width="25" height="25" style="fill:rgb(191, 242, 72);" />
  <rect x="175" y="50" width="25" height="25" style="fill:rgb(191, 242, 72);" />
  <rect x="100" y="25" width="25" height="25" style="fill:rgb(191, 242, 72);" />
  <rect x="125" y="25" width="25" height="25" style="fill:rgb(191, 242, 72);" />
  <rect x="150" y="25" width="25" height="25" style="fill:rgb(191, 242, 72);" />
  <rect x="175" y="25" width="25" height="25" style="fill:rgb(191, 242, 72);" />
  </g>
  <g style="stroke:#000000;stroke-width:1;stroke-linejoin:miter;stroke-miterlimit:4;stroke-opacity:1;">
  <rect x="100" y="75" width="25" height="25" style="fill:rgb(242, 72, 239);" />
  <rect x="75" y="50" width="25" height="25" style="fill:rgb(242, 72, 239);" />
  <rect x="100" y="50" width="25" height="25" style="fill:rgb(242, 72, 239);" />
  <rect x="125" y="50" width="25" height="25" style="fill:rgb(242, 72, 239);" />
  <rect x="150" y="50" width="25" height="25" style="fill:rgb(242, 72, 239);" />
  <rect x="75" y="25" width="25" height="25" style="fill:rgb(242, 72, 239);" />
  </g>
  <g style="stroke:#000000;stroke-width:1;stroke-linejoin:miter;stroke-miterlimit:4;stroke-opacity:1;">
  <rect x="175" y="125" width="25" height="25" style="fill:rgb(72, 242, 194);" />
  <rect x="200" y="125" width="25" height="25" style="fill:rgb(72, 242, 194);" />
  <rect x="225" y="125" width="25" height="25" style="fill:rgb(72, 242, 194);" />
  <rect x="200" y="100" width="25" height="25" style="fill:rgb(72, 242, 194);" />
  <rect x="200" y="75" width="25" height="25" style="fill:rgb(72, 242, 194);" />
  <rect x="200" y="50" width="25" height="25" style="fill:rgb(72, 242, 194);" />
  </g>
  <g style="stroke:#000000;stroke-width:1;stroke-linejoin:miter;stroke-miterlimit:4;stroke-opacity:1;">
  <rect x="100" y="125" width="25" height="25" style="fill:rgb(242, 146, 72);" />
  <rect x="125" y="125" width="25" height="25" style="fill:rgb(242, 146, 72);" />
  <rect x="150" y="125" width="25" height="25" style="fill:rgb(242, 146, 72);" />
  <rect x="150" y="100" width="25" height="25" style="fill:rgb(242, 146, 72);" />
  <rect x="175" y="100" width="25" height="25" style="fill:rgb(242, 146, 72);" />
  <rect x="150" y="75" width="25" height="25" style="fill:rgb(242, 146, 72);" />
  </g>
  <g style="stroke:#000000;stroke-width:1;stroke-linejoin:miter;stroke-miterlimit:4;stroke-opacity:1;">
  <rect x="50" y="125" width="25" height="25" style="fill:rgb(95, 72, 242);" />
  <rect x="50" y="100" width="25" height="25" style="fill:rgb(95, 72, 242);" />
  <rect x="75" y="100" width="25" height="25" style="fill:rgb(95, 72, 242);" />
  <rect x="100" y="100" width="25" height="25" style="fill:rgb(95, 72, 242);" />
  <rect x="125" y="100" width="25" height="25" style="fill:rgb(95, 72, 242);" />
  <rect x="125" y="75" width="25" height="25" style="fill:rgb(95, 72, 242);" />
  </g>
  <g style="stroke:#000000;stroke-width:1;stroke-linejoin:miter;stroke-miterlimit:4;stroke-opacity:1;">
  <rect x="50" y="175" width="25" height="25" style="fill:rgb(98, 242, 72);" />
  <rect x="100" y="175" width="25" height="25" style="fill:rgb(98, 242, 72);" />
  <rect x="50" y="150" width="25" height="25" style="fill:rgb(98, 242, 72);" />
  <rect x="75" y="150" width="25" height="25" style="fill:rgb(98, 242, 72);" />
  <rect x="100" y="150" width="25" height="25" style="fill:rgb(98, 242, 72);" />
  <rect x="75" y="125" width="25" height="25" style="fill:rgb(98, 242, 72);" />
  </g>
  <g style="stroke:#000000;stroke-width:1;stroke-linejoin:miter;stroke-miterlimit:4;stroke-opacity:1;">
  <rect x="25" y="125" width="25" height="25" style="fill:rgb(242, 72, 148);" />
  <rect x="25" y="100" width="25" height="25" style="fill:rgb(242, 72, 148);" />
  <rect x="0" y="75" width="25" height="25" style="fill:rgb(242, 72, 148);" />
  <rect x="25" y="75" width="25" height="25" style="fill:rgb(242, 72, 148);" />
  <rect x="50" y="75" width="25" height="25" style="fill:rgb(242, 72, 148);" />
  <rect x="75" y="75" width="25" height="25" style="fill:rgb(242, 72, 148);" />
  </g>
  <g style="stroke:#000000;stroke-width:1;stroke-linejoin:miter;stroke-miterlimit:4;stroke-opacity:1;">
  <rect x="100" y="225" width="25" height="25" style="fill:rgb(72, 197, 242);" />
  <rect x="125" y="225" width="25" height="25" style="fill:rgb(72, 197, 242);" />
  <rect x="50" y="200" width="25" height="25" style="fill:rgb(72, 197, 242);" />
  <rect x="75" y="200" width="25" height="25" style="fill:rgb(72, 197, 242);" />
  <rect x="100" y="200" width="25" height="25" style="fill:rgb(72, 197, 242);" />
  <rect x="75" y="175" width="25" height="25" style="fill:rgb(72, 197, 242);" />
  </g>
  <g style="stroke:#000000;stroke-width:1;stroke-linejoin:miter;stroke-miterlimit:4;stroke-opacity:1;">
  <rect x="75" y="275" width="25" height="25" style="fill:rgb(242, 236, 72);" />
  <rect x="25" y="250" width="25" height="25" style="fill:rgb(242, 236, 72);" />
  <rect x="50" y="250" width="25" height="25" style="fill:rgb(242, 236, 72);" />
  <rect x="75" y="250" width="25" height="25" style="fill:rgb(242, 236, 72);" />
  <rect x="100" y="250" width="25" height="25" style="fill:rgb(242, 236, 72);" />
  <rect x="75" y="225" width="25" height="25" style="fill:rgb(242, 236, 72);" />
  </g>
  <g style="stroke:#000000;stroke-width:1;stroke-linejoin:miter;stroke-miterlimit:4;stroke-opacity:1;">
  <rect x="0" y="200" width="25" height="25" style="fill:rgb(188, 72, 242);" />
  <rect x="0" y="175" width="25" height="25" style="fill:rgb(188, 72, 242);" />
  <rect x="0" y="150" width="25" height="25" style="fill:rgb(188, 72, 242);" />
  <rect x="25" y="150" width="25" height="25" style="fill:rgb(188, 72, 242);" />
  <rect x="0" y="125" width="25" height="25" style="fill:rgb(188, 72, 242);" />
  <rect x="0" y="100" width="25" height="25" style="fill:rgb(188, 72, 242);" />
  </g>
  <g style="stroke:#000000;stroke-width:1;stroke-linejoin:miter;stroke-miterlimit:4;stroke-opacity:1;">
  <rect x="0" y="250" width="25" height="25" style="fill:rgb(72, 242, 137);" />
  <rect x="0" y="225" width="25" height="25" style="fill:rgb(72, 242, 137);" />
  <rect x="25" y="225" width="25" height="25" style="fill:rgb(72, 242, 137);" />
  <rect x="50" y="225" width="25" height="25" style="fill:rgb(72, 242, 137);" />
  <rect x="25" y="200" width="25" height="25" style="fill:rgb(72, 242, 137);" />
  <rect x="25" y="175" width="25" height="25" style="fill:rgb(72, 242, 137);" />
  </g>
  <g style="stroke:#000000;stroke-width:1;stroke-linejoin:miter;stroke-miterlimit:4;stroke-opacity:1;">
  <rect x="300" y="125" width="25" height="25" style="fill:rgb(242, 89, 72);" />
  <rect x="325" y="125" width="25" height="25" style="fill:rgb(242, 89, 72);" />
  <rect x="300" y="100" width="25" height="25" style="fill:rgb(242, 89, 72);" />
  <rect x="325" y="100" width="25" height="25" style="fill:rgb(242, 89, 72);" />
  <rect x="350" y="100" width="25" height="25" style="fill:rgb(242, 89, 72);" />
  <rect x="325" y="75" width="25" height="25" style="fill:rgb(242, 89, 72);" />
  </g>
  <g style="stroke:#000000;stroke-width:1;stroke-linejoin:miter;stroke-miterlimit:4;stroke-opacity:1;">
  <rect x="300" y="75" width="25" height="25" style="fill:rgb(72, 106, 242);" />
  <rect x="350" y="75" width="25" height="25" style="fill:rgb(72, 106, 242);" />
  <rect x="300" y="50" width="25" height="25" style="fill:rgb(72, 106, 242);" />
  <rect x="325" y="50" width="25" height="25" style="fill:rgb(72, 106, 242);" />
  <rect x="350" y="50" width="25" height="25" style="fill:rgb(72, 106, 242);" />
  <rect x="350" y="25" width="25" height="25" style="fill:rgb(72, 106, 242);" />
  </g>
  <g style="stroke:#000000;stroke-width:1;stroke-linejoin:miter;stroke-miterlimit:4;stroke-opacity:1;">
  <rect x="300" y="25" width="25" height="25" style="fill:rgb(154, 242, 72);" />
  <rect x="325" y="25" width="25" height="25" style="fill:rgb(154, 242, 72);" />
  <rect x="275" y="0" width="25" height="25" style="fill:rgb(154, 242, 72);" />
  <rect x="300" y="0" width="25" height="25" style="fill:rgb(154, 242, 72);" />
  <rect x="325" y="0" width="25" height="25" style="fill:rgb(154, 242, 72);" />
  <rect x="350" y="0" width="25" height="25" style="fill:rgb(154, 242, 72);" />
  </g>
  <g style="stroke:#000000;stroke-width:1;stroke-linejoin:miter;stroke-miterlimit:4;stroke-opacity:1;">
  <rect x="100" y="300" width="25" height="25" style="fill:rgb(242, 72, 205);" />
  <rect x="150" y="300" width="25" height="25" style="fill:rgb(242, 72, 205);" />
  <rect x="100" y="275" width="25" height="25" style="fill:rgb(242, 72, 205);" />
  <rect x="125" y="275" width="25" height="25" style="fill:rgb(242, 72, 205);" />
  <rect x="150" y="275" width="25" height="25" style="fill:rgb(242, 72, 205);" />
  <rect x="175" y="275" width="25" height="25" style="fill:rgb(242, 72, 205);" />
  </g>
  <g style="stroke:#000000;stroke-width:1;stroke-linejoin:miter;stroke-miterlimit:4;stroke-opacity:1;">
  <rect x="200" y="275" width="25" height="25" style="fill:rgb(72, 242, 230);" />
  <rect x="125" y="250" width="25" height="25" style="fill:rgb(72, 242, 230);" />
  <rect x="150" y="250" width="25" height="25" style="fill:rgb(72, 242, 230);" />
  <rect x="175" y="250" width="25" height="25" style="fill:rgb(72, 242, 230);" />
  <rect x="200" y="250" width="25" height="25" style="fill:rgb(72, 242, 230);" />
  <rect x="150" y="225" width="25" height="25" style="fill:rgb(72, 242, 230);" />
  </g>
  <g style="stroke:#000000;stroke-width:1;stroke-linejoin:miter;stroke-miterlimit:4;stroke-opacity:1;">
  <rect x="275" y="200" width="25" height="25" style="fill:rgb(242, 180, 72);" />
  <rect x="250" y="175" width="25" height="25" style="fill:rgb(242, 180, 72);" />
  <rect x="275" y="175" width="25" height="25" style="fill:rgb(242, 180, 72);" />
  <rect x="250" y="150" width="25" height="25" style="fill:rgb(242, 180, 72);" />
  <rect x="250" y="125" width="25" height="25" style="fill:rgb(242, 180, 72);" />
  <rect x="275" y="125" width="25" height="25" style="fill:rgb(242, 180, 72);" />
  </g>
  <g style="stroke:#000000;stroke-width:1;stroke-linejoin:miter;stroke-miterlimit:4;stroke-opacity:1;">
  <rect x="275" y="225" width="25" height="25" style="fill:rgb(132, 72, 242);" />
  <rect x="300" y="225" width="25" height="25" style="fill:rgb(132, 72, 242);" />
  <rect x="300" y="200" width="25" height="25" style="fill:rgb(132, 72, 242);" />
  <rect x="300" y="175" width="25" height="25" style="fill:rgb(132, 72, 242);" />
  <rect x="275" y="150" width="25" height="25" style="fill:rgb(132, 72, 242);" />
  <rect x="300" y="150" width="25" height="25" style="fill:rgb(132, 72, 242);" />
  </g>
  <g style="stroke:#000000;stroke-width:1;stroke-linejoin:miter;stroke-miterlimit:4;stroke-opacity:1;">
  <rect x="225" y="275" width="25" height="25" style="fill:rgb(72, 242, 81);" />
  <rect x="250" y="275" width="25" height="25" style="fill:rgb(72, 242, 81);" />
  <rect x="225" y="250" width="25" height="25" style="fill:rgb(72, 242, 81);" />
  <rect x="175" y="225" width="25" height="25" style="fill:rgb(72, 242, 81);" />
  <rect x="200" y="225" width="25" height="25" style="fill:rgb(72, 242, 81);" />
  <rect x="225" y="225" width="25" height="25" style="fill:rgb(72, 242, 81);" />
  </g>
  <g style="stroke:#000000;stroke-width:1;stroke-linejoin:miter;stroke-miterlimit:4;stroke-opacity:1;">
  <rect x="275" y="300" width="25" height="25" style="fill:rgb(242, 72, 112);" />
  <rect x="275" y="275" width="25" height="25" style="fill:rgb(242, 72, 112);" />
  <rect x="250" y="250" width="25" height="25" style="fill:rgb(242, 72, 112);" />
  <rect x="275" y="250" width="25" height="25" style="fill:rgb(242, 72, 112);" />
  <rect x="250" y="225" width="25" height="25" style="fill:rgb(242, 72, 112);" />
  <rect x="250" y="200" width="25" height="25" style="fill:rgb(242, 72, 112);" />
  </g>
  <g style="stroke:#000000;stroke-width:1;stroke-linejoin:miter;stroke-miterlimit:4;stroke-opacity:1;">
  <rect x="350" y="225" width="25" height="25" style="fill:rgb(72, 163, 242);" />
  <rect x="350" y="200" width="25" height="25" style="fill:rgb(72, 163, 242);" />
  <rect x="350" y="175" width="25" height="25" style="fill:rgb(72, 163, 242);" />
  <rect x="325" y="150" width="25" height="25" style="fill:rgb(72, 163, 242);" />
  <rect x="350" y="150" width="25" height="25" style="fill:rgb(72, 163, 242);" />
  <rect x="350" y="125" width="25" height="25" style="fill:rgb(72, 163, 242);" />
  </g>
  <g style="stroke:#000000;stroke-width:1;stroke-linejoin:miter;stroke-miterlimit:4;stroke-opacity:1;">
  <rect x="350" y="275" width="25" height="25" style="fill:rgb(211, 242, 72);" />
  <rect x="325" y="250" width="25" height="25" style="fill:rgb(211, 242, 72);" />
  <rect x="350" y="250" width="25" height="25" style="fill:rgb(211, 242, 72);" />
  <rect x="325" y="225" width="25" height="25" style="fill:rgb(211, 242, 72);" />
  <rect x="325" y="200" width="25" height="25" style="fill:rgb(211, 242, 72);" />
  <rect x="325" y="175" width="25" height="25" style="fill:rgb(211, 242, 72);" />
  </g>
  <g style="stroke:#000000;stroke-width:1;stroke-linejoin:miter;stroke-miterlimit:4;stroke-opacity:1;">
  <rect x="300" y="350" width="25" height="25" style="fill:rgb(222, 72, 242);" />
  <rect x="325" y="350" width="25" height="25" style="fill:rgb(222, 72, 242);" />
  <rect x="300" y="325" width="25" height="25" style="fill:rgb(222, 72, 242);" />
  <rect x="300" y="300" width="25" height="25" style="fill:rgb(222, 72, 242);" />
  <rect x="300" y="275" width="25" height="25" style="fill:rgb(222, 72, 242);" />
  <rect x="300" y="250" width="25" height="25" style="fill:rgb(222, 72, 242);" />
  </g>
  <g style="stroke:#000000;stroke-width:1;stroke-linejoin:miter;stroke-miterlimit:4;stroke-opacity:1;">
  <rect x="350" y="350" width="25" height="25" style="fill:rgb(72, 242, 174);" />
  <rect x="325" y="325" width="25" height="25" style="fill:rgb(72, 242, 174);" />
  <rect x="350" y="325" width="25" height="25" style="fill:rgb(72, 242, 174);" />
  <rect x="325" y="300" width="25" height="25" style="fill:rgb(72, 242, 174);" />
  <rect x="350" y="300" width="25" height="25" style="fill:rgb(72, 242, 174);" />
  <rect x="325" y="275" width="25" height="25" style="fill:rgb(72, 242, 174);" />
  </g>
  <g style="stroke:#000000;stroke-width:1;stroke-linejoin:miter;stroke-miterlimit:4;stroke-opacity:1;">
  <rect x="225" y="350" width="25" height="25" style="fill:rgb(242, 123, 72);" />
  <rect x="250" y="350" width="25" height="25" style="fill:rgb(242, 123, 72);" />
  <rect x="275" y="350" width="25" height="25" style="fill:rgb(242, 123, 72);" />
  <rect x="250" y="325" width="25" height="25" style="fill:rgb(242, 123, 72);" />
  <rect x="275" y="325" width="25" height="25" style="fill:rgb(242, 123, 72);" />
  <rect x="250" y="300" width="25" height="25" style="fill:rgb(242, 123, 72);" />
  </g>
  <g style="stroke:#000000;stroke-width:1;stroke-linejoin:miter;stroke-miterlimit:4;stroke-opacity:1;">
  <rect x="175" y="350" width="25" height="25" style="fill:rgb(75, 72, 242);" />
  <rect x="200" y="350" width="25" height="25" style="fill:rgb(75, 72, 242);" />
  <rect x="200" y="325" width="25" height="25" style="fill:rgb(75, 72, 242);" />
  <rect x="225" y="325" width="25" height="25" style="fill:rgb(75, 72, 242);" />
  <rect x="200" y="300" width="25" height="25" style="fill:rgb(75, 72, 242);" />
  <rect x="225" y="300" width="25" height="25" style="fill:rgb(75, 72, 242);" />
  </g>
  <g style="stroke:#000000;stroke-width:1;stroke-linejoin:miter;stroke-miterlimit:4;stroke-opacity:1;">
  <rect x="0" y="325" width="25" height="25" style="fill:rgb(120, 242, 72);" />
  <rect x="0" y="300" width="25" height="25" style="fill:rgb(120, 242, 72);" />
  <rect x="25" y="300" width="25" height="25" style="fill:rgb(120, 242, 72);" />
  <rect x="0" y="275" width="25" height="25" style="fill:rgb(120, 242, 72);" />
  <rect x="25" y="275" width="25" height="25" style="fill:rgb(120, 242, 72);" />
  <rect x="50" y="275" width="25" height="25" style="fill:rgb(120, 242, 72);" />
  </g>
  <g style="stroke:#000000;stroke-width:1;stroke-linejoin:miter;stroke-miterlimit:4;stroke-opacity:1;">
  <rect x="100" y="350" width="25" height="25" style="fill:rgb(242, 72, 168);" />
  <rect x="125" y="350" width="25" height="25" style="fill:rgb(242, 72, 168);" />
  <rect x="150" y="350" width="25" height="25" style="fill:rgb(242, 72, 168);" />
  <rect x="150" y="325" width="25" height="25" style="fill:rgb(242, 72, 168);" />
  <rect x="175" y="325" width="25" height="25" style="fill:rgb(242, 72, 168);" />
  <rect x="175" y="300" width="25" height="25" style="fill:rgb(242, 72, 168);" />
  </g>
  <g style="stroke:#000000;stroke-width:1;stroke-linejoin:miter;stroke-miterlimit:4;stroke-opacity:1;">
  <rect x="50" y="350" width="25" height="25" style="fill:rgb(72, 219, 242);" />
  <rect x="75" y="350" width="25" height="25" style="fill:rgb(72, 219, 242);" />
  <rect x="75" y="325" width="25" height="25" style="fill:rgb(72, 219, 242);" />
  <rect x="100" y="325" width="25" height="25" style="fill:rgb(72, 219, 242);" />
  <rect x="125" y="325" width="25" height="25" style="fill:rgb(72, 219, 242);" />
  <rect x="125" y="300" width="25" height="25" style="fill:rgb(72, 219, 242);" />
  </g>
  <g style="stroke:#000000;stroke-width:1;stroke-linejoin:miter;stroke-miterlimit:4;stroke-opacity:1;">
  <rect x="0" y="350" width="25" height="25" style="fill:rgb(242, 216, 72);" />
  <rect x="25" y="350" width="25" height="25" style="fill:rgb(242, 216, 72);" />
  <rect x="25" y="325" width="25" height="25" style="fill:rgb(242, 216, 72);" />
  <rect x="50" y="325" width="25" height="25" style="fill:rgb(242, 216, 72);" />
  <rect x="50" y="300" width="25" height="25" style="fill:rgb(242, 216, 72);" />
  <rect x="75" y="300" width="25" height="25" style="fill:rgb(242, 216, 72);" />
  </g>
  <g style="stroke:#000000;stroke-width:1;stroke-linejoin:miter;stroke-miterlimit:4;stroke-opacity:1;">
  <rect x="0" y="50" width="25" height="25" style="fill:rgb(165, 72, 242);" />
  <rect x="25" y="50" width="25" height="25" style="fill:rgb(165, 72, 242);" />
  <rect x="50" y="50" width="25" height="25" style="fill:rgb(165, 72, 242);" />
  <rect x="0" y="25" width="25" height="25" style="fill:rgb(165, 72, 242);" />
  <rect x="25" y="25" width="25" height="25" style="fill:rgb(165, 72, 242);" />
  <rect x="50" y="25" width="25" height="25" style="fill:rgb(165, 72, 242);" />
  </g>
  <g style="stroke:#000000;stroke-width:1;stroke-linejoin:miter;stroke-miterlimit:4;stroke-opacity:1;">
  <rect x="0" y="0" width="25" height="25" style="fill:rgb(72, 242, 117);" />
  <rect x="25" y="0" width="25" height="25" style="fill:rgb(72, 242, 117);" />
  <rect x="50" y="0" width="25" height="25" style="fill:rgb(72, 242, 117);" />
  <rect x="75" y="0" width="25" height="25" style="fill:rgb(72, 242, 117);" />
  <rect x="100" y="0" width="25" height="25" style="fill:rgb(72, 242, 117);" />
  <rect x="125" y="0" width="25" height="25" style="fill:rgb(72, 242, 117);" />
  </g>
  
</svg>
