<?xml version="1.0" standalone="no"?> 
<svg xmlns="http://www.w3.org/2000/svg" width="200" height="200"
preserveAspectRatio="x200Y200 meet"
viewBox="0 0 200 200"
>
  <g style="stroke:#000000;stroke-width:1;stroke-linejoin:miter;stroke-miterlimit:4;stroke-opacity:1;">
  <rect x="75" y="125" width="25" height="25" style="fill:rgb(72, 242, 219);" />
  <rect x="25" y="150" width="25" height="25" style="fill:rgb(72, 242, 219);" />
  <rect x="50" y="150" width="25" height="25" style="fill:rgb(72, 242, 219);" />
  <rect x="75" y="150" width="25" height="25" style="fill:rgb(72, 242, 219);" />
  <rect x="25" y="175" width="25" height="25" style="fill:rgb(72, 242, 219);" />
  </g>
  <g style="stroke:#000000;stroke-width:1;stroke-linejoin:miter;stroke-miterlimit:4;stroke-opacity:1;">
  <rect x="0" y="125" width="25" height="25" style="fill:rgb(242, 168, 72);" />
  <rect x="25" y="125" width="25" height="25" style="fill:rgb(242, 168, 72);" />
  <rect x="50" y="125" width="25" height="25" style="fill:rgb(242, 168, 72);" />
  <rect x="0" y="150" width="25" height="25" style="fill:rgb(242, 168, 72);" />
  <rect x="0" y="175" width="25" height="25" style="fill:rgb(242, 168, 72);" />
  </g>
  <g style="stroke:#000000;stroke-width:1;stroke-linejoin:miter;stroke-miterlimit:4;stroke-opacity:1;">
  <rect x="0" y="75" width="25" height="25" style="fill:rgb(120, 72, 242);" />
  <rect x="50" y="75" width="25" height="25" style="fill:rgb(120, 72, 242);" />
  <rect x="0" y="100" width="25" height="25" style="fill:rgb(120, 72, 242);" />
  <rect x="25" y="100" width="25" height="25" style="fill:rgb(120, 72, 242);" />
  <rect x="50" y="100" width="25" height="25" style="fill:rgb(120, 72, 242);" />
  </g>
  <g style="stroke:#000000;stroke-width:1;stroke-linejoin:miter;stroke-miterlimit:4;stroke-opacity:1;">
  <rect x="150" y="75" width="25" height="25" style="fill:rgb(75, 242, 72);" />
  <rect x="125" y="100" width="25" height="25" style="fill:rgb(75, 242, 72);" />
  <rect x="150" y="100" width="25" height="25" style="fill:rgb(75, 242, 72);" />
  <rect x="100" y="125" width="25" height="25" style="fill:rgb(75, 242, 72);" />
  <rect x="125" y="125" width="25" height="25" style="fill:rgb(75, 242, 72);" />
  </g>
  <g style="stroke:#000000;stroke-width:1;stroke-linejoin:miter;stroke-miterlimit:4;stroke-opacity:1;">
  <rect x="150" y="0" width="25" height="25" style="fill:rgb(242, 72, 123);" />
  <rect x="175" y="0" width="25" height="25" style="fill:rgb(242, 72, 123);" />
  <rect x="150" y="25" width="25" height="25" style="fill:rgb(242, 72, 123);" />
  <rect x="175" y="25" width="25" height="25" style="fill:rgb(242, 72, 123);" />
  <rect x="150" y="50" width="25" height="25" style="fill:rgb(242, 72, 123);" />
  </g>
  <g style="stroke:#000000;stroke-width:1;stroke-linejoin:miter;stroke-miterlimit:4;stroke-opacity:1;">
  <rect x="125" y="25" width="25" height="25" style="fill:rgb(72, 174, 242);" />
  <rect x="75" y="50" width="25" height="25" style="fill:rgb(72, 174, 242);" />
  <rect x="100" y="50" width="25" height="25" style="fill:rgb(72, 174, 242);" />
  <rect x="125" y="50" width="25" height="25" style="fill:rgb(72, 174, 242);" />
  <rect x="125" y="75" width="25" height="25" style="fill:rgb(72, 174, 242);" />
  </g>
  <g style="stroke:#000000;stroke-width:1;stroke-linejoin:miter;stroke-miterlimit:4;stroke-opacity:1;">
  <rect x="100" y="0" width="25" height="25" style="fill:rgb(222, 242, 72);" />
  <rect x="125" y="0" width="25" height="25" style="fill:rgb(222, 242, 72);" />
  <rect x="50" y="25" width="25" height="25" style="fill:rgb(222, 242, 72);" />
  <rect x="75" y="25" width="25" height="25" style="fill:rgb(222, 242, 72);" />
  <rect x="100" y="25" width="25" height="25" style="fill:rgb(222, 242, 72);" />
  </g>
  <g style="stroke:#000000;stroke-width:1;stroke-linejoin:miter;stroke-miterlimit:4;stroke-opacity:1;">
  <rect x="0" y="0" width="25" height="25" style="fill:rgb(211, 72, 242);" />
  <rect x="25" y="0" width="25" height="25" style="fill:rgb(211, 72, 242);" />
  <rect x="50" y="0" width="25" height="25" style="fill:rgb(211, 72, 242);" />
  <rect x="75" y="0" width="25" height="25" style="fill:rgb(211, 72, 242);" />
  <rect x="0" y="25" width="25" height="25" style="fill:rgb(211, 72, 242);" />
  </g>
  <g style="stroke:#000000;stroke-width:1;stroke-linejoin:miter;stroke-miterlimit:4;stroke-opacity:1;">
  <rect x="25" y="25" width="25" height="25" style="fill:rgb(72, 242, 163);" />
  <rect x="0" y="50" width="25" height="25" style="fill:rgb(72, 242, 163);" />
  <rect x="25" y="50" width="25" height="25" style="fill:rgb(72, 242, 163);" />
  <rect x="50" y="50" width="25" height="25" style="fill:rgb(72, 242, 163);" />
  <rect x="25" y="75" width="25" height="25" style="fill:rgb(72, 242, 163);" />
  </g>
  <g style="stroke:#000000;stroke-width:1;stroke-linejoin:miter;stroke-miterlimit:4;stroke-opacity:1;">
  <rect x="100" y="150" width="25" height="25" style="fill:rgb(242, 112, 72);" />
  <rect x="50" y="175" width="25" height="25" style="fill:rgb(242, 112, 72);" />
  <rect x="75" y="175" width="25" height="25" style="fill:rgb(242, 112, 72);" />
  <rect x="100" y="175" width="25" height="25" style="fill:rgb(242, 112, 72);" />
  <rect x="125" y="175" width="25" height="25" style="fill:rgb(242, 112, 72);" />
  </g>
  <g style="stroke:#000000;stroke-width:1;stroke-linejoin:miter;stroke-miterlimit:4;stroke-opacity:1;">
  <rect x="175" y="50" width="25" height="25" style="fill:rgb(72, 81, 242);" />
  <rect x="175" y="75" width="25" height="25" style="fill:rgb(72, 81, 242);" />
  <rect x="175" y="100" width="25" height="25" style="fill:rgb(72, 81, 242);" />
  <rect x="175" y="125" width="25" height="25" style="fill:rgb(72, 81, 242);" />
  <rect x="175" y="150" width="25" height="25" style="fill:rgb(72, 81, 242);" />
  </g>
  <g style="stroke:#000000;stroke-width:1;stroke-linejoin:miter;stroke-miterlimit:4;stroke-opacity:1;">
  <rect x="150" y="125" width="25" height="25" style="fill:rgb(132, 242, 72);" />
  <rect x="125" y="150" width="25" height="25" style="fill:rgb(132, 242, 72);" />
  <rect x="150" y="150" width="25" height="25" style="fill:rgb(132, 242, 72);" />
  <rect x="150" y="175" width="25" height="25" style="fill:rgb(132, 242, 72);" />
  <rect x="175" y="175" width="25" height="25" style="fill:rgb(132, 242, 72);" />
  </g>
  
</svg>
