<?xml version="1.0" standalone="no"?> 
<svg xmlns="http://www.w3.org/2000/svg" width="350" height="325">
  <g style="stroke:#000000;stroke-width:1;stroke-linejoin:miter;stroke-miterlimit:4;stroke-opacity:1;">
  <rect x="250" y="225" width="25" height="25" style="fill:rgb(242, 182, 72);" />
  <rect x="250" y="250" width="25" height="25" style="fill:rgb(242, 182, 72);" />
  </g>
  <g style="stroke:#000000;stroke-width:1;stroke-linejoin:miter;stroke-miterlimit:4;stroke-opacity:1;">
  <rect x="225" y="225" width="25" height="25" style="fill:rgb(132, 72, 242);" />
  <rect x="225" y="250" width="25" height="25" style="fill:rgb(132, 72, 242);" />
  </g>
  <g style="stroke:#000000;stroke-width:1;stroke-linejoin:miter;stroke-miterlimit:4;stroke-opacity:1;">
  <rect x="200" y="200" width="25" height="25" style="fill:rgb(72, 242, 83);" />
  <rect x="200" y="225" width="25" height="25" style="fill:rgb(72, 242, 83);" />
  </g>
  <g style="stroke:#000000;stroke-width:1;stroke-linejoin:miter;stroke-miterlimit:4;stroke-opacity:1;">
  <rect x="175" y="200" width="25" height="25" style="fill:rgb(242, 72, 112);" />
  <rect x="175" y="225" width="25" height="25" style="fill:rgb(242, 72, 112);" />
  </g>
  <g style="stroke:#000000;stroke-width:1;stroke-linejoin:miter;stroke-miterlimit:4;stroke-opacity:1;">
  <rect x="150" y="250" width="25" height="25" style="fill:rgb(72, 160, 242);" />
  <rect x="175" y="250" width="25" height="25" style="fill:rgb(72, 160, 242);" />
  </g>
  <g style="stroke:#000000;stroke-width:1;stroke-linejoin:miter;stroke-miterlimit:4;stroke-opacity:1;">
  <rect x="150" y="200" width="25" height="25" style="fill:rgb(211, 242, 72);" />
  <rect x="150" y="225" width="25" height="25" style="fill:rgb(211, 242, 72);" />
  </g>
  <g style="stroke:#000000;stroke-width:1;stroke-linejoin:miter;stroke-miterlimit:4;stroke-opacity:1;">
  <rect x="250" y="200" width="25" height="25" style="fill:rgb(225, 72, 242);" />
  <rect x="275" y="200" width="25" height="25" style="fill:rgb(225, 72, 242);" />
  </g>
  <g style="stroke:#000000;stroke-width:1;stroke-linejoin:miter;stroke-miterlimit:4;stroke-opacity:1;">
  <rect x="300" y="150" width="25" height="25" style="fill:rgb(72, 242, 174);" />
  <rect x="300" y="175" width="25" height="25" style="fill:rgb(72, 242, 174);" />
  </g>
  <g style="stroke:#000000;stroke-width:1;stroke-linejoin:miter;stroke-miterlimit:4;stroke-opacity:1;">
  <rect x="275" y="150" width="25" height="25" style="fill:rgb(242, 126, 72);" />
  <rect x="275" y="175" width="25" height="25" style="fill:rgb(242, 126, 72);" />
  </g>
  <g style="stroke:#000000;stroke-width:1;stroke-linejoin:miter;stroke-miterlimit:4;stroke-opacity:1;">
  <rect x="225" y="175" width="25" height="25" style="fill:rgb(75, 72, 242);" />
  <rect x="225" y="200" width="25" height="25" style="fill:rgb(75, 72, 242);" />
  </g>
  <g style="stroke:#000000;stroke-width:1;stroke-linejoin:miter;stroke-miterlimit:4;stroke-opacity:1;">
  <rect x="250" y="150" width="25" height="25" style="fill:rgb(117, 242, 72);" />
  <rect x="250" y="175" width="25" height="25" style="fill:rgb(117, 242, 72);" />
  </g>
  <g style="stroke:#000000;stroke-width:1;stroke-linejoin:miter;stroke-miterlimit:4;stroke-opacity:1;">
  <rect x="200" y="150" width="25" height="25" style="fill:rgb(242, 72, 168);" />
  <rect x="200" y="175" width="25" height="25" style="fill:rgb(242, 72, 168);" />
  </g>
  <g style="stroke:#000000;stroke-width:1;stroke-linejoin:miter;stroke-miterlimit:4;stroke-opacity:1;">
  <rect x="175" y="150" width="25" height="25" style="fill:rgb(72, 219, 242);" />
  <rect x="175" y="175" width="25" height="25" style="fill:rgb(72, 219, 242);" />
  </g>
  <g style="stroke:#000000;stroke-width:1;stroke-linejoin:miter;stroke-miterlimit:4;stroke-opacity:1;">
  <rect x="125" y="175" width="25" height="25" style="fill:rgb(242, 216, 72);" />
  <rect x="125" y="200" width="25" height="25" style="fill:rgb(242, 216, 72);" />
  </g>
  <g style="stroke:#000000;stroke-width:1;stroke-linejoin:miter;stroke-miterlimit:4;stroke-opacity:1;">
  <rect x="150" y="150" width="25" height="25" style="fill:rgb(165, 72, 242);" />
  <rect x="150" y="175" width="25" height="25" style="fill:rgb(165, 72, 242);" />
  </g>
  <g style="stroke:#000000;stroke-width:1;stroke-linejoin:miter;stroke-miterlimit:4;stroke-opacity:1;">
  <rect x="225" y="125" width="25" height="25" style="fill:rgb(72, 242, 117);" />
  <rect x="225" y="150" width="25" height="25" style="fill:rgb(72, 242, 117);" />
  </g>
  <g style="stroke:#000000;stroke-width:1;stroke-linejoin:miter;stroke-miterlimit:4;stroke-opacity:1;">
  <rect x="275" y="100" width="25" height="25" style="fill:rgb(242, 72, 78);" />
  <rect x="275" y="125" width="25" height="25" style="fill:rgb(242, 72, 78);" />
  </g>
  <g style="stroke:#000000;stroke-width:1;stroke-linejoin:miter;stroke-miterlimit:4;stroke-opacity:1;">
  <rect x="250" y="100" width="25" height="25" style="fill:rgb(72, 126, 242);" />
  <rect x="250" y="125" width="25" height="25" style="fill:rgb(72, 126, 242);" />
  </g>
  <g style="stroke:#000000;stroke-width:1;stroke-linejoin:miter;stroke-miterlimit:4;stroke-opacity:1;">
  <rect x="275" y="50" width="25" height="25" style="fill:rgb(177, 242, 72);" />
  <rect x="275" y="75" width="25" height="25" style="fill:rgb(177, 242, 72);" />
  </g>
  <g style="stroke:#000000;stroke-width:1;stroke-linejoin:miter;stroke-miterlimit:4;stroke-opacity:1;">
  <rect x="250" y="50" width="25" height="25" style="fill:rgb(242, 72, 225);" />
  <rect x="250" y="75" width="25" height="25" style="fill:rgb(242, 72, 225);" />
  </g>
  <g style="stroke:#000000;stroke-width:1;stroke-linejoin:miter;stroke-miterlimit:4;stroke-opacity:1;">
  <rect x="125" y="125" width="25" height="25" style="fill:rgb(72, 242, 208);" />
  <rect x="150" y="125" width="25" height="25" style="fill:rgb(72, 242, 208);" />
  </g>
  <g style="stroke:#000000;stroke-width:1;stroke-linejoin:miter;stroke-miterlimit:4;stroke-opacity:1;">
  <rect x="100" y="100" width="25" height="25" style="fill:rgb(242, 160, 72);" />
  <rect x="125" y="100" width="25" height="25" style="fill:rgb(242, 160, 72);" />
  </g>
  <g style="stroke:#000000;stroke-width:1;stroke-linejoin:miter;stroke-miterlimit:4;stroke-opacity:1;">
  <rect x="125" y="50" width="25" height="25" style="fill:rgb(109, 72, 242);" />
  <rect x="125" y="75" width="25" height="25" style="fill:rgb(109, 72, 242);" />
  </g>
  <g style="stroke:#000000;stroke-width:1;stroke-linejoin:miter;stroke-miterlimit:4;stroke-opacity:1;">
  <rect x="100" y="50" width="25" height="25" style="fill:rgb(83, 242, 72);" />
  <rect x="100" y="75" width="25" height="25" style="fill:rgb(83, 242, 72);" />
  </g>
  <g style="stroke:#000000;stroke-width:1;stroke-linejoin:miter;stroke-miterlimit:4;stroke-opacity:1;">
  <rect x="275" y="0" width="25" height="25" style="fill:rgb(242, 72, 134);" />
  <rect x="275" y="25" width="25" height="25" style="fill:rgb(242, 72, 134);" />
  </g>
  <g style="stroke:#000000;stroke-width:1;stroke-linejoin:miter;stroke-miterlimit:4;stroke-opacity:1;">
  <rect x="250" y="0" width="25" height="25" style="fill:rgb(72, 182, 242);" />
  <rect x="250" y="25" width="25" height="25" style="fill:rgb(72, 182, 242);" />
  </g>
  <g style="stroke:#000000;stroke-width:1;stroke-linejoin:miter;stroke-miterlimit:4;stroke-opacity:1;">
  <rect x="125" y="0" width="25" height="25" style="fill:rgb(233, 242, 72);" />
  <rect x="125" y="25" width="25" height="25" style="fill:rgb(233, 242, 72);" />
  </g>
  <g style="stroke:#000000;stroke-width:1;stroke-linejoin:miter;stroke-miterlimit:4;stroke-opacity:1;">
  <rect x="100" y="0" width="25" height="25" style="fill:rgb(202, 72, 242);" />
  <rect x="100" y="25" width="25" height="25" style="fill:rgb(202, 72, 242);" />
  </g>
  <g style="stroke:#000000;stroke-width:1;stroke-linejoin:miter;stroke-miterlimit:4;stroke-opacity:1;">
  <rect x="100" y="150" width="25" height="25" style="fill:rgb(72, 242, 151);" />
  <rect x="125" y="150" width="25" height="25" style="fill:rgb(72, 242, 151);" />
  </g>
  <g style="stroke:#000000;stroke-width:1;stroke-linejoin:miter;stroke-miterlimit:4;stroke-opacity:1;">
  <rect x="75" y="175" width="25" height="25" style="fill:rgb(242, 103, 72);" />
  <rect x="100" y="175" width="25" height="25" style="fill:rgb(242, 103, 72);" />
  </g>
  <g style="stroke:#000000;stroke-width:1;stroke-linejoin:miter;stroke-miterlimit:4;stroke-opacity:1;">
  <rect x="75" y="125" width="25" height="25" style="fill:rgb(72, 92, 242);" />
  <rect x="100" y="125" width="25" height="25" style="fill:rgb(72, 92, 242);" />
  </g>
  <g style="stroke:#000000;stroke-width:1;stroke-linejoin:miter;stroke-miterlimit:4;stroke-opacity:1;">
  <rect x="50" y="150" width="25" height="25" style="fill:rgb(140, 242, 72);" />
  <rect x="75" y="150" width="25" height="25" style="fill:rgb(140, 242, 72);" />
  </g>
  <g style="stroke:#000000;stroke-width:1;stroke-linejoin:miter;stroke-miterlimit:4;stroke-opacity:1;">
  <rect x="50" y="175" width="25" height="25" style="fill:rgb(242, 72, 191);" />
  <rect x="50" y="200" width="25" height="25" style="fill:rgb(242, 72, 191);" />
  </g>
  <g style="stroke:#000000;stroke-width:1;stroke-linejoin:miter;stroke-miterlimit:4;stroke-opacity:1;">
  <rect x="75" y="200" width="25" height="25" style="fill:rgb(72, 239, 242);" />
  <rect x="75" y="225" width="25" height="25" style="fill:rgb(72, 239, 242);" />
  </g>
  <g style="stroke:#000000;stroke-width:1;stroke-linejoin:miter;stroke-miterlimit:4;stroke-opacity:1;">
  <rect x="50" y="225" width="25" height="25" style="fill:rgb(242, 194, 72);" />
  <rect x="50" y="250" width="25" height="25" style="fill:rgb(242, 194, 72);" />
  </g>
  <g style="stroke:#000000;stroke-width:1;stroke-linejoin:miter;stroke-miterlimit:4;stroke-opacity:1;">
  <rect x="75" y="250" width="25" height="25" style="fill:rgb(146, 72, 242);" />
  <rect x="75" y="275" width="25" height="25" style="fill:rgb(146, 72, 242);" />
  </g>
  <g style="stroke:#000000;stroke-width:1;stroke-linejoin:miter;stroke-miterlimit:4;stroke-opacity:1;">
  <rect x="50" y="300" width="25" height="25" style="fill:rgb(72, 242, 95);" />
  <rect x="75" y="300" width="25" height="25" style="fill:rgb(72, 242, 95);" />
  </g>
  <g style="stroke:#000000;stroke-width:1;stroke-linejoin:miter;stroke-miterlimit:4;stroke-opacity:1;">
  <rect x="25" y="275" width="25" height="25" style="fill:rgb(242, 72, 98);" />
  <rect x="50" y="275" width="25" height="25" style="fill:rgb(242, 72, 98);" />
  </g>
  <g style="stroke:#000000;stroke-width:1;stroke-linejoin:miter;stroke-miterlimit:4;stroke-opacity:1;">
  <rect x="0" y="250" width="25" height="25" style="fill:rgb(72, 148, 242);" />
  <rect x="25" y="250" width="25" height="25" style="fill:rgb(72, 148, 242);" />
  </g>
  <g style="stroke:#000000;stroke-width:1;stroke-linejoin:miter;stroke-miterlimit:4;stroke-opacity:1;">
  <rect x="325" y="125" width="25" height="25" style="fill:rgb(197, 242, 72);" />
  <rect x="325" y="150" width="25" height="25" style="fill:rgb(197, 242, 72);" />
  </g>
  
</svg>
