<?xml version="1.0" standalone="no"?> 
<svg xmlns="http://www.w3.org/2000/svg" width="350" height="325">
  <g style="stroke:#000000;stroke-width:1;stroke-linejoin:miter;stroke-miterlimit:4;stroke-opacity:1;">
  <rect x="250" y="225" width="25" height="25" style="fill:rgb(242, 72, 182);" />
  <rect x="250" y="250" width="25" height="25" style="fill:rgb(242, 72, 182);" />
  </g>
  <g style="stroke:#000000;stroke-width:1;stroke-linejoin:miter;stroke-miterlimit:4;stroke-opacity:1;">
  <rect x="225" y="225" width="25" height="25" style="fill:rgb(72, 233, 242);" />
  <rect x="225" y="250" width="25" height="25" style="fill:rgb(72, 233, 242);" />
  </g>
  <g style="stroke:#000000;stroke-width:1;stroke-linejoin:miter;stroke-miterlimit:4;stroke-opacity:1;">
  <rect x="200" y="200" width="25" height="25" style="fill:rgb(242, 202, 72);" />
  <rect x="200" y="225" width="25" height="25" style="fill:rgb(242, 202, 72);" />
  </g>
  <g style="stroke:#000000;stroke-width:1;stroke-linejoin:miter;stroke-miterlimit:4;stroke-opacity:1;">
  <rect x="175" y="200" width="25" height="25" style="fill:rgb(151, 72, 242);" />
  <rect x="175" y="225" width="25" height="25" style="fill:rgb(151, 72, 242);" />
  </g>
  <g style="stroke:#000000;stroke-width:1;stroke-linejoin:miter;stroke-miterlimit:4;stroke-opacity:1;">
  <rect x="150" y="250" width="25" height="25" style="fill:rgb(72, 242, 103);" />
  <rect x="175" y="250" width="25" height="25" style="fill:rgb(72, 242, 103);" />
  </g>
  <g style="stroke:#000000;stroke-width:1;stroke-linejoin:miter;stroke-miterlimit:4;stroke-opacity:1;">
  <rect x="150" y="200" width="25" height="25" style="fill:rgb(242, 72, 92);" />
  <rect x="150" y="225" width="25" height="25" style="fill:rgb(242, 72, 92);" />
  </g>
  <g style="stroke:#000000;stroke-width:1;stroke-linejoin:miter;stroke-miterlimit:4;stroke-opacity:1;">
  <rect x="250" y="200" width="25" height="25" style="fill:rgb(72, 140, 242);" />
  <rect x="275" y="200" width="25" height="25" style="fill:rgb(72, 140, 242);" />
  </g>
  <g style="stroke:#000000;stroke-width:1;stroke-linejoin:miter;stroke-miterlimit:4;stroke-opacity:1;">
  <rect x="300" y="150" width="25" height="25" style="fill:rgb(191, 242, 72);" />
  <rect x="300" y="175" width="25" height="25" style="fill:rgb(191, 242, 72);" />
  </g>
  <g style="stroke:#000000;stroke-width:1;stroke-linejoin:miter;stroke-miterlimit:4;stroke-opacity:1;">
  <rect x="275" y="150" width="25" height="25" style="fill:rgb(242, 72, 239);" />
  <rect x="275" y="175" width="25" height="25" style="fill:rgb(242, 72, 239);" />
  </g>
  <g style="stroke:#000000;stroke-width:1;stroke-linejoin:miter;stroke-miterlimit:4;stroke-opacity:1;">
  <rect x="225" y="175" width="25" height="25" style="fill:rgb(72, 242, 194);" />
  <rect x="225" y="200" width="25" height="25" style="fill:rgb(72, 242, 194);" />
  </g>
  <g style="stroke:#000000;stroke-width:1;stroke-linejoin:miter;stroke-miterlimit:4;stroke-opacity:1;">
  <rect x="250" y="150" width="25" height="25" style="fill:rgb(242, 146, 72);" />
  <rect x="250" y="175" width="25" height="25" style="fill:rgb(242, 146, 72);" />
  </g>
  <g style="stroke:#000000;stroke-width:1;stroke-linejoin:miter;stroke-miterlimit:4;stroke-opacity:1;">
  <rect x="200" y="150" width="25" height="25" style="fill:rgb(95, 72, 242);" />
  <rect x="200" y="175" width="25" height="25" style="fill:rgb(95, 72, 242);" />
  </g>
  <g style="stroke:#000000;stroke-width:1;stroke-linejoin:miter;stroke-miterlimit:4;stroke-opacity:1;">
  <rect x="175" y="150" width="25" height="25" style="fill:rgb(98, 242, 72);" />
  <rect x="175" y="175" width="25" height="25" style="fill:rgb(98, 242, 72);" />
  </g>
  <g style="stroke:#000000;stroke-width:1;stroke-linejoin:miter;stroke-miterlimit:4;stroke-opacity:1;">
  <rect x="125" y="175" width="25" height="25" style="fill:rgb(242, 72, 148);" />
  <rect x="125" y="200" width="25" height="25" style="fill:rgb(242, 72, 148);" />
  </g>
  <g style="stroke:#000000;stroke-width:1;stroke-linejoin:miter;stroke-miterlimit:4;stroke-opacity:1;">
  <rect x="150" y="150" width="25" height="25" style="fill:rgb(72, 197, 242);" />
  <rect x="150" y="175" width="25" height="25" style="fill:rgb(72, 197, 242);" />
  </g>
  <g style="stroke:#000000;stroke-width:1;stroke-linejoin:miter;stroke-miterlimit:4;stroke-opacity:1;">
  <rect x="225" y="125" width="25" height="25" style="fill:rgb(242, 236, 72);" />
  <rect x="225" y="150" width="25" height="25" style="fill:rgb(242, 236, 72);" />
  </g>
  <g style="stroke:#000000;stroke-width:1;stroke-linejoin:miter;stroke-miterlimit:4;stroke-opacity:1;">
  <rect x="275" y="100" width="25" height="25" style="fill:rgb(188, 72, 242);" />
  <rect x="275" y="125" width="25" height="25" style="fill:rgb(188, 72, 242);" />
  </g>
  <g style="stroke:#000000;stroke-width:1;stroke-linejoin:miter;stroke-miterlimit:4;stroke-opacity:1;">
  <rect x="250" y="100" width="25" height="25" style="fill:rgb(72, 242, 137);" />
  <rect x="250" y="125" width="25" height="25" style="fill:rgb(72, 242, 137);" />
  </g>
  <g style="stroke:#000000;stroke-width:1;stroke-linejoin:miter;stroke-miterlimit:4;stroke-opacity:1;">
  <rect x="275" y="50" width="25" height="25" style="fill:rgb(242, 89, 72);" />
  <rect x="275" y="75" width="25" height="25" style="fill:rgb(242, 89, 72);" />
  </g>
  <g style="stroke:#000000;stroke-width:1;stroke-linejoin:miter;stroke-miterlimit:4;stroke-opacity:1;">
  <rect x="250" y="50" width="25" height="25" style="fill:rgb(72, 106, 242);" />
  <rect x="250" y="75" width="25" height="25" style="fill:rgb(72, 106, 242);" />
  </g>
  <g style="stroke:#000000;stroke-width:1;stroke-linejoin:miter;stroke-miterlimit:4;stroke-opacity:1;">
  <rect x="125" y="125" width="25" height="25" style="fill:rgb(154, 242, 72);" />
  <rect x="150" y="125" width="25" height="25" style="fill:rgb(154, 242, 72);" />
  </g>
  <g style="stroke:#000000;stroke-width:1;stroke-linejoin:miter;stroke-miterlimit:4;stroke-opacity:1;">
  <rect x="100" y="100" width="25" height="25" style="fill:rgb(242, 72, 205);" />
  <rect x="125" y="100" width="25" height="25" style="fill:rgb(242, 72, 205);" />
  </g>
  <g style="stroke:#000000;stroke-width:1;stroke-linejoin:miter;stroke-miterlimit:4;stroke-opacity:1;">
  <rect x="125" y="50" width="25" height="25" style="fill:rgb(72, 242, 230);" />
  <rect x="125" y="75" width="25" height="25" style="fill:rgb(72, 242, 230);" />
  </g>
  <g style="stroke:#000000;stroke-width:1;stroke-linejoin:miter;stroke-miterlimit:4;stroke-opacity:1;">
  <rect x="100" y="50" width="25" height="25" style="fill:rgb(242, 180, 72);" />
  <rect x="100" y="75" width="25" height="25" style="fill:rgb(242, 180, 72);" />
  </g>
  <g style="stroke:#000000;stroke-width:1;stroke-linejoin:miter;stroke-miterlimit:4;stroke-opacity:1;">
  <rect x="275" y="0" width="25" height="25" style="fill:rgb(132, 72, 242);" />
  <rect x="275" y="25" width="25" height="25" style="fill:rgb(132, 72, 242);" />
  </g>
  <g style="stroke:#000000;stroke-width:1;stroke-linejoin:miter;stroke-miterlimit:4;stroke-opacity:1;">
  <rect x="250" y="0" width="25" height="25" style="fill:rgb(72, 242, 81);" />
  <rect x="250" y="25" width="25" height="25" style="fill:rgb(72, 242, 81);" />
  </g>
  <g style="stroke:#000000;stroke-width:1;stroke-linejoin:miter;stroke-miterlimit:4;stroke-opacity:1;">
  <rect x="125" y="0" width="25" height="25" style="fill:rgb(242, 72, 112);" />
  <rect x="125" y="25" width="25" height="25" style="fill:rgb(242, 72, 112);" />
  </g>
  <g style="stroke:#000000;stroke-width:1;stroke-linejoin:miter;stroke-miterlimit:4;stroke-opacity:1;">
  <rect x="100" y="0" width="25" height="25" style="fill:rgb(72, 163, 242);" />
  <rect x="100" y="25" width="25" height="25" style="fill:rgb(72, 163, 242);" />
  </g>
  <g style="stroke:#000000;stroke-width:1;stroke-linejoin:miter;stroke-miterlimit:4;stroke-opacity:1;">
  <rect x="100" y="150" width="25" height="25" style="fill:rgb(211, 242, 72);" />
  <rect x="125" y="150" width="25" height="25" style="fill:rgb(211, 242, 72);" />
  </g>
  <g style="stroke:#000000;stroke-width:1;stroke-linejoin:miter;stroke-miterlimit:4;stroke-opacity:1;">
  <rect x="75" y="175" width="25" height="25" style="fill:rgb(222, 72, 242);" />
  <rect x="100" y="175" width="25" height="25" style="fill:rgb(222, 72, 242);" />
  </g>
  <g style="stroke:#000000;stroke-width:1;stroke-linejoin:miter;stroke-miterlimit:4;stroke-opacity:1;">
  <rect x="75" y="125" width="25" height="25" style="fill:rgb(72, 242, 174);" />
  <rect x="100" y="125" width="25" height="25" style="fill:rgb(72, 242, 174);" />
  </g>
  <g style="stroke:#000000;stroke-width:1;stroke-linejoin:miter;stroke-miterlimit:4;stroke-opacity:1;">
  <rect x="50" y="150" width="25" height="25" style="fill:rgb(242, 123, 72);" />
  <rect x="75" y="150" width="25" height="25" style="fill:rgb(242, 123, 72);" />
  </g>
  <g style="stroke:#000000;stroke-width:1;stroke-linejoin:miter;stroke-miterlimit:4;stroke-opacity:1;">
  <rect x="50" y="175" width="25" height="25" style="fill:rgb(75, 72, 242);" />
  <rect x="50" y="200" width="25" height="25" style="fill:rgb(75, 72, 242);" />
  </g>
  <g style="stroke:#000000;stroke-width:1;stroke-linejoin:miter;stroke-miterlimit:4;stroke-opacity:1;">
  <rect x="75" y="200" width="25" height="25" style="fill:rgb(120, 242, 72);" />
  <rect x="75" y="225" width="25" height="25" style="fill:rgb(120, 242, 72);" />
  </g>
  <g style="stroke:#000000;stroke-width:1;stroke-linejoin:miter;stroke-miterlimit:4;stroke-opacity:1;">
  <rect x="50" y="225" width="25" height="25" style="fill:rgb(242, 72, 168);" />
  <rect x="50" y="250" width="25" height="25" style="fill:rgb(242, 72, 168);" />
  </g>
  <g style="stroke:#000000;stroke-width:1;stroke-linejoin:miter;stroke-miterlimit:4;stroke-opacity:1;">
  <rect x="75" y="250" width="25" height="25" style="fill:rgb(72, 219, 242);" />
  <rect x="75" y="275" width="25" height="25" style="fill:rgb(72, 219, 242);" />
  </g>
  <g style="stroke:#000000;stroke-width:1;stroke-linejoin:miter;stroke-miterlimit:4;stroke-opacity:1;">
  <rect x="50" y="300" width="25" height="25" style="fill:rgb(242, 216, 72);" />
  <rect x="75" y="300" width="25" height="25" style="fill:rgb(242, 216, 72);" />
  </g>
  <g style="stroke:#000000;stroke-width:1;stroke-linejoin:miter;stroke-miterlimit:4;stroke-opacity:1;">
  <rect x="25" y="275" width="25" height="25" style="fill:rgb(165, 72, 242);" />
  <rect x="50" y="275" width="25" height="25" style="fill:rgb(165, 72, 242);" />
  </g>
  <g style="stroke:#000000;stroke-width:1;stroke-linejoin:miter;stroke-miterlimit:4;stroke-opacity:1;">
  <rect x="0" y="250" width="25" height="25" style="fill:rgb(72, 242, 117);" />
  <rect x="25" y="250" width="25" height="25" style="fill:rgb(72, 242, 117);" />
  </g>
  <g style="stroke:#000000;stroke-width:1;stroke-linejoin:miter;stroke-miterlimit:4;stroke-opacity:1;">
  <rect x="325" y="125" width="25" height="25" style="fill:rgb(242, 72, 78);" />
  <rect x="325" y="150" width="25" height="25" style="fill:rgb(242, 72, 78);" />
  </g>
  
</svg>
