<?xml version="1.0" standalone="no"?> 
<svg xmlns="http://www.w3.org/2000/svg" width="350" height="325">
  <g style="stroke:#000000;stroke-width:1;stroke-linejoin:miter;stroke-miterlimit:4;stroke-opacity:1;">
  <rect x="50" y="300" width="25" height="25" style="fill:rgb(242, 143, 72);" />
  <rect x="75" y="300" width="25" height="25" style="fill:rgb(242, 143, 72);" />
  </g>
  <g style="stroke:#000000;stroke-width:1;stroke-linejoin:miter;stroke-miterlimit:4;stroke-opacity:1;">
  <rect x="25" y="275" width="25" height="25" style="fill:rgb(95, 72, 242);" />
  <rect x="50" y="275" width="25" height="25" style="fill:rgb(95, 72, 242);" />
  </g>
  <g style="stroke:#000000;stroke-width:1;stroke-linejoin:miter;stroke-miterlimit:4;stroke-opacity:1;">
  <rect x="225" y="250" width="25" height="25" style="fill:rgb(100, 242, 72);" />
  <rect x="250" y="250" width="25" height="25" style="fill:rgb(100, 242, 72);" />
  </g>
  <g style="stroke:#000000;stroke-width:1;stroke-linejoin:miter;stroke-miterlimit:4;stroke-opacity:1;">
  <rect x="150" y="250" width="25" height="25" style="fill:rgb(242, 72, 148);" />
  <rect x="175" y="250" width="25" height="25" style="fill:rgb(242, 72, 148);" />
  </g>
  <g style="stroke:#000000;stroke-width:1;stroke-linejoin:miter;stroke-miterlimit:4;stroke-opacity:1;">
  <rect x="75" y="250" width="25" height="25" style="fill:rgb(72, 199, 242);" />
  <rect x="75" y="275" width="25" height="25" style="fill:rgb(72, 199, 242);" />
  </g>
  <g style="stroke:#000000;stroke-width:1;stroke-linejoin:miter;stroke-miterlimit:4;stroke-opacity:1;">
  <rect x="0" y="250" width="25" height="25" style="fill:rgb(242, 236, 72);" />
  <rect x="25" y="250" width="25" height="25" style="fill:rgb(242, 236, 72);" />
  </g>
  <g style="stroke:#000000;stroke-width:1;stroke-linejoin:miter;stroke-miterlimit:4;stroke-opacity:1;">
  <rect x="250" y="225" width="25" height="25" style="fill:rgb(185, 72, 242);" />
  <rect x="250" y="250" width="25" height="25" style="fill:rgb(185, 72, 242);" />
  </g>
  <g style="stroke:#000000;stroke-width:1;stroke-linejoin:miter;stroke-miterlimit:4;stroke-opacity:1;">
  <rect x="225" y="225" width="25" height="25" style="fill:rgb(72, 242, 137);" />
  <rect x="225" y="250" width="25" height="25" style="fill:rgb(72, 242, 137);" />
  </g>
  <g style="stroke:#000000;stroke-width:1;stroke-linejoin:miter;stroke-miterlimit:4;stroke-opacity:1;">
  <rect x="175" y="225" width="25" height="25" style="fill:rgb(242, 86, 72);" />
  <rect x="175" y="250" width="25" height="25" style="fill:rgb(242, 86, 72);" />
  </g>
  <g style="stroke:#000000;stroke-width:1;stroke-linejoin:miter;stroke-miterlimit:4;stroke-opacity:1;">
  <rect x="150" y="225" width="25" height="25" style="fill:rgb(72, 106, 242);" />
  <rect x="150" y="250" width="25" height="25" style="fill:rgb(72, 106, 242);" />
  </g>
  <g style="stroke:#000000;stroke-width:1;stroke-linejoin:miter;stroke-miterlimit:4;stroke-opacity:1;">
  <rect x="50" y="225" width="25" height="25" style="fill:rgb(157, 242, 72);" />
  <rect x="50" y="250" width="25" height="25" style="fill:rgb(157, 242, 72);" />
  </g>
  <g style="stroke:#000000;stroke-width:1;stroke-linejoin:miter;stroke-miterlimit:4;stroke-opacity:1;">
  <rect x="250" y="200" width="25" height="25" style="fill:rgb(242, 72, 205);" />
  <rect x="275" y="200" width="25" height="25" style="fill:rgb(242, 72, 205);" />
  </g>
  <g style="stroke:#000000;stroke-width:1;stroke-linejoin:miter;stroke-miterlimit:4;stroke-opacity:1;">
  <rect x="200" y="200" width="25" height="25" style="fill:rgb(72, 242, 228);" />
  <rect x="200" y="225" width="25" height="25" style="fill:rgb(72, 242, 228);" />
  </g>
  <g style="stroke:#000000;stroke-width:1;stroke-linejoin:miter;stroke-miterlimit:4;stroke-opacity:1;">
  <rect x="150" y="200" width="25" height="25" style="fill:rgb(242, 177, 72);" />
  <rect x="175" y="200" width="25" height="25" style="fill:rgb(242, 177, 72);" />
  </g>
  <g style="stroke:#000000;stroke-width:1;stroke-linejoin:miter;stroke-miterlimit:4;stroke-opacity:1;">
  <rect x="75" y="200" width="25" height="25" style="fill:rgb(129, 72, 242);" />
  <rect x="75" y="225" width="25" height="25" style="fill:rgb(129, 72, 242);" />
  </g>
  <g style="stroke:#000000;stroke-width:1;stroke-linejoin:miter;stroke-miterlimit:4;stroke-opacity:1;">
  <rect x="275" y="175" width="25" height="25" style="fill:rgb(72, 242, 78);" />
  <rect x="300" y="175" width="25" height="25" style="fill:rgb(72, 242, 78);" />
  </g>
  <g style="stroke:#000000;stroke-width:1;stroke-linejoin:miter;stroke-miterlimit:4;stroke-opacity:1;">
  <rect x="225" y="175" width="25" height="25" style="fill:rgb(242, 72, 115);" />
  <rect x="225" y="200" width="25" height="25" style="fill:rgb(242, 72, 115);" />
  </g>
  <g style="stroke:#000000;stroke-width:1;stroke-linejoin:miter;stroke-miterlimit:4;stroke-opacity:1;">
  <rect x="175" y="175" width="25" height="25" style="fill:rgb(72, 165, 242);" />
  <rect x="200" y="175" width="25" height="25" style="fill:rgb(72, 165, 242);" />
  </g>
  <g style="stroke:#000000;stroke-width:1;stroke-linejoin:miter;stroke-miterlimit:4;stroke-opacity:1;">
  <rect x="150" y="175" width="25" height="25" style="fill:rgb(213, 242, 72);" />
  <rect x="175" y="175" width="25" height="25" style="fill:rgb(213, 242, 72);" />
  </g>
  <g style="stroke:#000000;stroke-width:1;stroke-linejoin:miter;stroke-miterlimit:4;stroke-opacity:1;">
  <rect x="125" y="175" width="25" height="25" style="fill:rgb(219, 72, 242);" />
  <rect x="125" y="200" width="25" height="25" style="fill:rgb(219, 72, 242);" />
  </g>
  <g style="stroke:#000000;stroke-width:1;stroke-linejoin:miter;stroke-miterlimit:4;stroke-opacity:1;">
  <rect x="75" y="175" width="25" height="25" style="fill:rgb(72, 242, 171);" />
  <rect x="100" y="175" width="25" height="25" style="fill:rgb(72, 242, 171);" />
  </g>
  <g style="stroke:#000000;stroke-width:1;stroke-linejoin:miter;stroke-miterlimit:4;stroke-opacity:1;">
  <rect x="50" y="175" width="25" height="25" style="fill:rgb(242, 120, 72);" />
  <rect x="50" y="200" width="25" height="25" style="fill:rgb(242, 120, 72);" />
  </g>
  <g style="stroke:#000000;stroke-width:1;stroke-linejoin:miter;stroke-miterlimit:4;stroke-opacity:1;">
  <rect x="275" y="150" width="25" height="25" style="fill:rgb(72, 72, 242);" />
  <rect x="300" y="150" width="25" height="25" style="fill:rgb(72, 72, 242);" />
  </g>
  <g style="stroke:#000000;stroke-width:1;stroke-linejoin:miter;stroke-miterlimit:4;stroke-opacity:1;">
  <rect x="250" y="150" width="25" height="25" style="fill:rgb(123, 242, 72);" />
  <rect x="250" y="175" width="25" height="25" style="fill:rgb(123, 242, 72);" />
  </g>
  <g style="stroke:#000000;stroke-width:1;stroke-linejoin:miter;stroke-miterlimit:4;stroke-opacity:1;">
  <rect x="200" y="150" width="25" height="25" style="fill:rgb(242, 72, 171);" />
  <rect x="200" y="175" width="25" height="25" style="fill:rgb(242, 72, 171);" />
  </g>
  <g style="stroke:#000000;stroke-width:1;stroke-linejoin:miter;stroke-miterlimit:4;stroke-opacity:1;">
  <rect x="150" y="150" width="25" height="25" style="fill:rgb(72, 222, 242);" />
  <rect x="175" y="150" width="25" height="25" style="fill:rgb(72, 222, 242);" />
  </g>
  <g style="stroke:#000000;stroke-width:1;stroke-linejoin:miter;stroke-miterlimit:4;stroke-opacity:1;">
  <rect x="100" y="150" width="25" height="25" style="fill:rgb(242, 213, 72);" />
  <rect x="125" y="150" width="25" height="25" style="fill:rgb(242, 213, 72);" />
  </g>
  <g style="stroke:#000000;stroke-width:1;stroke-linejoin:miter;stroke-miterlimit:4;stroke-opacity:1;">
  <rect x="50" y="150" width="25" height="25" style="fill:rgb(163, 72, 242);" />
  <rect x="75" y="150" width="25" height="25" style="fill:rgb(163, 72, 242);" />
  </g>
  <g style="stroke:#000000;stroke-width:1;stroke-linejoin:miter;stroke-miterlimit:4;stroke-opacity:1;">
  <rect x="325" y="125" width="25" height="25" style="fill:rgb(72, 242, 115);" />
  <rect x="325" y="150" width="25" height="25" style="fill:rgb(72, 242, 115);" />
  </g>
  <g style="stroke:#000000;stroke-width:1;stroke-linejoin:miter;stroke-miterlimit:4;stroke-opacity:1;">
  <rect x="250" y="125" width="25" height="25" style="fill:rgb(242, 72, 81);" />
  <rect x="275" y="125" width="25" height="25" style="fill:rgb(242, 72, 81);" />
  </g>
  <g style="stroke:#000000;stroke-width:1;stroke-linejoin:miter;stroke-miterlimit:4;stroke-opacity:1;">
  <rect x="225" y="125" width="25" height="25" style="fill:rgb(72, 129, 242);" />
  <rect x="225" y="150" width="25" height="25" style="fill:rgb(72, 129, 242);" />
  </g>
  <g style="stroke:#000000;stroke-width:1;stroke-linejoin:miter;stroke-miterlimit:4;stroke-opacity:1;">
  <rect x="125" y="125" width="25" height="25" style="fill:rgb(180, 242, 72);" />
  <rect x="150" y="125" width="25" height="25" style="fill:rgb(180, 242, 72);" />
  </g>
  <g style="stroke:#000000;stroke-width:1;stroke-linejoin:miter;stroke-miterlimit:4;stroke-opacity:1;">
  <rect x="75" y="125" width="25" height="25" style="fill:rgb(242, 72, 228);" />
  <rect x="100" y="125" width="25" height="25" style="fill:rgb(242, 72, 228);" />
  </g>
  <g style="stroke:#000000;stroke-width:1;stroke-linejoin:miter;stroke-miterlimit:4;stroke-opacity:1;">
  <rect x="250" y="100" width="25" height="25" style="fill:rgb(72, 242, 205);" />
  <rect x="275" y="100" width="25" height="25" style="fill:rgb(72, 242, 205);" />
  </g>
  <g style="stroke:#000000;stroke-width:1;stroke-linejoin:miter;stroke-miterlimit:4;stroke-opacity:1;">
  <rect x="100" y="100" width="25" height="25" style="fill:rgb(242, 157, 72);" />
  <rect x="125" y="100" width="25" height="25" style="fill:rgb(242, 157, 72);" />
  </g>
  <g style="stroke:#000000;stroke-width:1;stroke-linejoin:miter;stroke-miterlimit:4;stroke-opacity:1;">
  <rect x="250" y="75" width="25" height="25" style="fill:rgb(106, 72, 242);" />
  <rect x="275" y="75" width="25" height="25" style="fill:rgb(106, 72, 242);" />
  </g>
  <g style="stroke:#000000;stroke-width:1;stroke-linejoin:miter;stroke-miterlimit:4;stroke-opacity:1;">
  <rect x="125" y="75" width="25" height="25" style="fill:rgb(86, 242, 72);" />
  <rect x="125" y="100" width="25" height="25" style="fill:rgb(86, 242, 72);" />
  </g>
  <g style="stroke:#000000;stroke-width:1;stroke-linejoin:miter;stroke-miterlimit:4;stroke-opacity:1;">
  <rect x="100" y="75" width="25" height="25" style="fill:rgb(242, 72, 137);" />
  <rect x="100" y="100" width="25" height="25" style="fill:rgb(242, 72, 137);" />
  </g>
  <g style="stroke:#000000;stroke-width:1;stroke-linejoin:miter;stroke-miterlimit:4;stroke-opacity:1;">
  <rect x="250" y="50" width="25" height="25" style="fill:rgb(72, 185, 242);" />
  <rect x="275" y="50" width="25" height="25" style="fill:rgb(72, 185, 242);" />
  </g>
  <g style="stroke:#000000;stroke-width:1;stroke-linejoin:miter;stroke-miterlimit:4;stroke-opacity:1;">
  <rect x="100" y="50" width="25" height="25" style="fill:rgb(236, 242, 72);" />
  <rect x="125" y="50" width="25" height="25" style="fill:rgb(236, 242, 72);" />
  </g>
  <g style="stroke:#000000;stroke-width:1;stroke-linejoin:miter;stroke-miterlimit:4;stroke-opacity:1;">
  <rect x="250" y="25" width="25" height="25" style="fill:rgb(199, 72, 242);" />
  <rect x="275" y="25" width="25" height="25" style="fill:rgb(199, 72, 242);" />
  </g>
  <g style="stroke:#000000;stroke-width:1;stroke-linejoin:miter;stroke-miterlimit:4;stroke-opacity:1;">
  <rect x="100" y="25" width="25" height="25" style="fill:rgb(72, 242, 148);" />
  <rect x="125" y="25" width="25" height="25" style="fill:rgb(72, 242, 148);" />
  </g>
  <g style="stroke:#000000;stroke-width:1;stroke-linejoin:miter;stroke-miterlimit:4;stroke-opacity:1;">
  <rect x="275" y="0" width="25" height="25" style="fill:rgb(242, 100, 72);" />
  <rect x="275" y="25" width="25" height="25" style="fill:rgb(242, 100, 72);" />
  </g>
  <g style="stroke:#000000;stroke-width:1;stroke-linejoin:miter;stroke-miterlimit:4;stroke-opacity:1;">
  <rect x="250" y="0" width="25" height="25" style="fill:rgb(72, 95, 242);" />
  <rect x="250" y="25" width="25" height="25" style="fill:rgb(72, 95, 242);" />
  </g>
  <g style="stroke:#000000;stroke-width:1;stroke-linejoin:miter;stroke-miterlimit:4;stroke-opacity:1;">
  <rect x="125" y="0" width="25" height="25" style="fill:rgb(143, 242, 72);" />
  <rect x="125" y="25" width="25" height="25" style="fill:rgb(143, 242, 72);" />
  </g>
  <g style="stroke:#000000;stroke-width:1;stroke-linejoin:miter;stroke-miterlimit:4;stroke-opacity:1;">
  <rect x="100" y="0" width="25" height="25" style="fill:rgb(242, 72, 194);" />
  <rect x="100" y="25" width="25" height="25" style="fill:rgb(242, 72, 194);" />
  </g>
  
</svg>
