<?xml version="1.0" standalone="no"?> 
<svg xmlns="http://www.w3.org/2000/svg" width="350" height="325">
  <g style="stroke:#000000;stroke-width:1;stroke-linejoin:miter;stroke-miterlimit:4;stroke-opacity:1;">
  <rect x="250" y="225" width="25" height="25" style="fill:rgb(242, 72, 191);" />
  <rect x="250" y="250" width="25" height="25" style="fill:rgb(242, 72, 191);" />
  </g>
  <g style="stroke:#000000;stroke-width:1;stroke-linejoin:miter;stroke-miterlimit:4;stroke-opacity:1;">
  <rect x="225" y="225" width="25" height="25" style="fill:rgb(72, 242, 242);" />
  <rect x="225" y="250" width="25" height="25" style="fill:rgb(72, 242, 242);" />
  </g>
  <g style="stroke:#000000;stroke-width:1;stroke-linejoin:miter;stroke-miterlimit:4;stroke-opacity:1;">
  <rect x="200" y="200" width="25" height="25" style="fill:rgb(242, 194, 72);" />
  <rect x="200" y="225" width="25" height="25" style="fill:rgb(242, 194, 72);" />
  </g>
  <g style="stroke:#000000;stroke-width:1;stroke-linejoin:miter;stroke-miterlimit:4;stroke-opacity:1;">
  <rect x="175" y="200" width="25" height="25" style="fill:rgb(143, 72, 242);" />
  <rect x="175" y="225" width="25" height="25" style="fill:rgb(143, 72, 242);" />
  </g>
  <g style="stroke:#000000;stroke-width:1;stroke-linejoin:miter;stroke-miterlimit:4;stroke-opacity:1;">
  <rect x="150" y="250" width="25" height="25" style="fill:rgb(72, 242, 95);" />
  <rect x="175" y="250" width="25" height="25" style="fill:rgb(72, 242, 95);" />
  </g>
  <g style="stroke:#000000;stroke-width:1;stroke-linejoin:miter;stroke-miterlimit:4;stroke-opacity:1;">
  <rect x="150" y="200" width="25" height="25" style="fill:rgb(242, 72, 100);" />
  <rect x="150" y="225" width="25" height="25" style="fill:rgb(242, 72, 100);" />
  </g>
  <g style="stroke:#000000;stroke-width:1;stroke-linejoin:miter;stroke-miterlimit:4;stroke-opacity:1;">
  <rect x="250" y="200" width="25" height="25" style="fill:rgb(72, 148, 242);" />
  <rect x="275" y="200" width="25" height="25" style="fill:rgb(72, 148, 242);" />
  </g>
  <g style="stroke:#000000;stroke-width:1;stroke-linejoin:miter;stroke-miterlimit:4;stroke-opacity:1;">
  <rect x="300" y="150" width="25" height="25" style="fill:rgb(199, 242, 72);" />
  <rect x="300" y="175" width="25" height="25" style="fill:rgb(199, 242, 72);" />
  </g>
  <g style="stroke:#000000;stroke-width:1;stroke-linejoin:miter;stroke-miterlimit:4;stroke-opacity:1;">
  <rect x="275" y="150" width="25" height="25" style="fill:rgb(236, 72, 242);" />
  <rect x="275" y="175" width="25" height="25" style="fill:rgb(236, 72, 242);" />
  </g>
  <g style="stroke:#000000;stroke-width:1;stroke-linejoin:miter;stroke-miterlimit:4;stroke-opacity:1;">
  <rect x="225" y="175" width="25" height="25" style="fill:rgb(72, 242, 185);" />
  <rect x="225" y="200" width="25" height="25" style="fill:rgb(72, 242, 185);" />
  </g>
  <g style="stroke:#000000;stroke-width:1;stroke-linejoin:miter;stroke-miterlimit:4;stroke-opacity:1;">
  <rect x="250" y="150" width="25" height="25" style="fill:rgb(242, 137, 72);" />
  <rect x="250" y="175" width="25" height="25" style="fill:rgb(242, 137, 72);" />
  </g>
  <g style="stroke:#000000;stroke-width:1;stroke-linejoin:miter;stroke-miterlimit:4;stroke-opacity:1;">
  <rect x="200" y="150" width="25" height="25" style="fill:rgb(86, 72, 242);" />
  <rect x="200" y="175" width="25" height="25" style="fill:rgb(86, 72, 242);" />
  </g>
  <g style="stroke:#000000;stroke-width:1;stroke-linejoin:miter;stroke-miterlimit:4;stroke-opacity:1;">
  <rect x="175" y="150" width="25" height="25" style="fill:rgb(106, 242, 72);" />
  <rect x="175" y="175" width="25" height="25" style="fill:rgb(106, 242, 72);" />
  </g>
  <g style="stroke:#000000;stroke-width:1;stroke-linejoin:miter;stroke-miterlimit:4;stroke-opacity:1;">
  <rect x="125" y="175" width="25" height="25" style="fill:rgb(242, 72, 157);" />
  <rect x="125" y="200" width="25" height="25" style="fill:rgb(242, 72, 157);" />
  </g>
  <g style="stroke:#000000;stroke-width:1;stroke-linejoin:miter;stroke-miterlimit:4;stroke-opacity:1;">
  <rect x="150" y="150" width="25" height="25" style="fill:rgb(72, 205, 242);" />
  <rect x="150" y="175" width="25" height="25" style="fill:rgb(72, 205, 242);" />
  </g>
  <g style="stroke:#000000;stroke-width:1;stroke-linejoin:miter;stroke-miterlimit:4;stroke-opacity:1;">
  <rect x="225" y="125" width="25" height="25" style="fill:rgb(242, 228, 72);" />
  <rect x="225" y="150" width="25" height="25" style="fill:rgb(242, 228, 72);" />
  </g>
  <g style="stroke:#000000;stroke-width:1;stroke-linejoin:miter;stroke-miterlimit:4;stroke-opacity:1;">
  <rect x="275" y="100" width="25" height="25" style="fill:rgb(180, 72, 242);" />
  <rect x="275" y="125" width="25" height="25" style="fill:rgb(180, 72, 242);" />
  </g>
  <g style="stroke:#000000;stroke-width:1;stroke-linejoin:miter;stroke-miterlimit:4;stroke-opacity:1;">
  <rect x="250" y="100" width="25" height="25" style="fill:rgb(72, 242, 129);" />
  <rect x="250" y="125" width="25" height="25" style="fill:rgb(72, 242, 129);" />
  </g>
  <g style="stroke:#000000;stroke-width:1;stroke-linejoin:miter;stroke-miterlimit:4;stroke-opacity:1;">
  <rect x="275" y="50" width="25" height="25" style="fill:rgb(242, 81, 72);" />
  <rect x="275" y="75" width="25" height="25" style="fill:rgb(242, 81, 72);" />
  </g>
  <g style="stroke:#000000;stroke-width:1;stroke-linejoin:miter;stroke-miterlimit:4;stroke-opacity:1;">
  <rect x="250" y="50" width="25" height="25" style="fill:rgb(72, 115, 242);" />
  <rect x="250" y="75" width="25" height="25" style="fill:rgb(72, 115, 242);" />
  </g>
  <g style="stroke:#000000;stroke-width:1;stroke-linejoin:miter;stroke-miterlimit:4;stroke-opacity:1;">
  <rect x="125" y="125" width="25" height="25" style="fill:rgb(163, 242, 72);" />
  <rect x="150" y="125" width="25" height="25" style="fill:rgb(163, 242, 72);" />
  </g>
  <g style="stroke:#000000;stroke-width:1;stroke-linejoin:miter;stroke-miterlimit:4;stroke-opacity:1;">
  <rect x="100" y="100" width="25" height="25" style="fill:rgb(242, 72, 213);" />
  <rect x="125" y="100" width="25" height="25" style="fill:rgb(242, 72, 213);" />
  </g>
  <g style="stroke:#000000;stroke-width:1;stroke-linejoin:miter;stroke-miterlimit:4;stroke-opacity:1;">
  <rect x="125" y="50" width="25" height="25" style="fill:rgb(72, 242, 222);" />
  <rect x="125" y="75" width="25" height="25" style="fill:rgb(72, 242, 222);" />
  </g>
  <g style="stroke:#000000;stroke-width:1;stroke-linejoin:miter;stroke-miterlimit:4;stroke-opacity:1;">
  <rect x="100" y="50" width="25" height="25" style="fill:rgb(242, 171, 72);" />
  <rect x="100" y="75" width="25" height="25" style="fill:rgb(242, 171, 72);" />
  </g>
  <g style="stroke:#000000;stroke-width:1;stroke-linejoin:miter;stroke-miterlimit:4;stroke-opacity:1;">
  <rect x="275" y="0" width="25" height="25" style="fill:rgb(123, 72, 242);" />
  <rect x="275" y="25" width="25" height="25" style="fill:rgb(123, 72, 242);" />
  </g>
  <g style="stroke:#000000;stroke-width:1;stroke-linejoin:miter;stroke-miterlimit:4;stroke-opacity:1;">
  <rect x="250" y="0" width="25" height="25" style="fill:rgb(72, 242, 72);" />
  <rect x="250" y="25" width="25" height="25" style="fill:rgb(72, 242, 72);" />
  </g>
  <g style="stroke:#000000;stroke-width:1;stroke-linejoin:miter;stroke-miterlimit:4;stroke-opacity:1;">
  <rect x="125" y="0" width="25" height="25" style="fill:rgb(242, 72, 120);" />
  <rect x="125" y="25" width="25" height="25" style="fill:rgb(242, 72, 120);" />
  </g>
  <g style="stroke:#000000;stroke-width:1;stroke-linejoin:miter;stroke-miterlimit:4;stroke-opacity:1;">
  <rect x="100" y="0" width="25" height="25" style="fill:rgb(72, 171, 242);" />
  <rect x="100" y="25" width="25" height="25" style="fill:rgb(72, 171, 242);" />
  </g>
  <g style="stroke:#000000;stroke-width:1;stroke-linejoin:miter;stroke-miterlimit:4;stroke-opacity:1;">
  <rect x="100" y="150" width="25" height="25" style="fill:rgb(219, 242, 72);" />
  <rect x="125" y="150" width="25" height="25" style="fill:rgb(219, 242, 72);" />
  </g>
  <g style="stroke:#000000;stroke-width:1;stroke-linejoin:miter;stroke-miterlimit:4;stroke-opacity:1;">
  <rect x="75" y="175" width="25" height="25" style="fill:rgb(213, 72, 242);" />
  <rect x="100" y="175" width="25" height="25" style="fill:rgb(213, 72, 242);" />
  </g>
  <g style="stroke:#000000;stroke-width:1;stroke-linejoin:miter;stroke-miterlimit:4;stroke-opacity:1;">
  <rect x="75" y="125" width="25" height="25" style="fill:rgb(72, 242, 165);" />
  <rect x="100" y="125" width="25" height="25" style="fill:rgb(72, 242, 165);" />
  </g>
  <g style="stroke:#000000;stroke-width:1;stroke-linejoin:miter;stroke-miterlimit:4;stroke-opacity:1;">
  <rect x="50" y="150" width="25" height="25" style="fill:rgb(242, 115, 72);" />
  <rect x="75" y="150" width="25" height="25" style="fill:rgb(242, 115, 72);" />
  </g>
  <g style="stroke:#000000;stroke-width:1;stroke-linejoin:miter;stroke-miterlimit:4;stroke-opacity:1;">
  <rect x="50" y="175" width="25" height="25" style="fill:rgb(72, 78, 242);" />
  <rect x="50" y="200" width="25" height="25" style="fill:rgb(72, 78, 242);" />
  </g>
  <g style="stroke:#000000;stroke-width:1;stroke-linejoin:miter;stroke-miterlimit:4;stroke-opacity:1;">
  <rect x="75" y="200" width="25" height="25" style="fill:rgb(129, 242, 72);" />
  <rect x="75" y="225" width="25" height="25" style="fill:rgb(129, 242, 72);" />
  </g>
  <g style="stroke:#000000;stroke-width:1;stroke-linejoin:miter;stroke-miterlimit:4;stroke-opacity:1;">
  <rect x="50" y="225" width="25" height="25" style="fill:rgb(242, 72, 177);" />
  <rect x="50" y="250" width="25" height="25" style="fill:rgb(242, 72, 177);" />
  </g>
  <g style="stroke:#000000;stroke-width:1;stroke-linejoin:miter;stroke-miterlimit:4;stroke-opacity:1;">
  <rect x="75" y="250" width="25" height="25" style="fill:rgb(72, 228, 242);" />
  <rect x="75" y="275" width="25" height="25" style="fill:rgb(72, 228, 242);" />
  </g>
  <g style="stroke:#000000;stroke-width:1;stroke-linejoin:miter;stroke-miterlimit:4;stroke-opacity:1;">
  <rect x="50" y="300" width="25" height="25" style="fill:rgb(242, 205, 72);" />
  <rect x="75" y="300" width="25" height="25" style="fill:rgb(242, 205, 72);" />
  </g>
  <g style="stroke:#000000;stroke-width:1;stroke-linejoin:miter;stroke-miterlimit:4;stroke-opacity:1;">
  <rect x="25" y="275" width="25" height="25" style="fill:rgb(157, 72, 242);" />
  <rect x="50" y="275" width="25" height="25" style="fill:rgb(157, 72, 242);" />
  </g>
  <g style="stroke:#000000;stroke-width:1;stroke-linejoin:miter;stroke-miterlimit:4;stroke-opacity:1;">
  <rect x="0" y="250" width="25" height="25" style="fill:rgb(72, 242, 106);" />
  <rect x="25" y="250" width="25" height="25" style="fill:rgb(72, 242, 106);" />
  </g>
  <g style="stroke:#000000;stroke-width:1;stroke-linejoin:miter;stroke-miterlimit:4;stroke-opacity:1;">
  <rect x="325" y="125" width="25" height="25" style="fill:rgb(242, 72, 86);" />
  <rect x="325" y="150" width="25" height="25" style="fill:rgb(242, 72, 86);" />
  </g>
  
</svg>
