<?xml version="1.0" encoding="UTF-8" standalone="no"?>
<!-- Created with Inkscape (http://www.inkscape.org/) -->

<svg
   xmlns:dc="http://purl.org/dc/elements/1.1/"
   xmlns:cc="http://creativecommons.org/ns#"
   xmlns:rdf="http://www.w3.org/1999/02/22-rdf-syntax-ns#"
   xmlns:svg="http://www.w3.org/2000/svg"
   xmlns="http://www.w3.org/2000/svg"
   xmlns:sodipodi="http://sodipodi.sourceforge.net/DTD/sodipodi-0.dtd"
   xmlns:inkscape="http://www.inkscape.org/namespaces/inkscape"
   id="svg1952"
   sodipodi:version="0.32"
   inkscape:version="0.48.2 r9819"
   width="458"
   height="468"
   version="1.0"
   sodipodi:docname="8queens.pdf"
   inkscape:export-filename="C:\Documents and Settings\Nevit\Belgelerim\Schachbrett_Nummerierung.png.png"
   inkscape:export-xdpi="90"
   inkscape:export-ydpi="90">
  <metadata
     id="metadata1957">
    <rdf:RDF>
      <cc:Work
         rdf:about="">
        <dc:format>image/svg+xml</dc:format>
        <dc:type
           rdf:resource="http://purl.org/dc/dcmitype/StillImage" />
        <dc:title></dc:title>
      </cc:Work>
    </rdf:RDF>
  </metadata>
  <defs
     id="defs1955">
    <inkscape:perspective
       sodipodi:type="inkscape:persp3d"
       inkscape:vp_x="0 : 0.5 : 1"
       inkscape:vp_y="0 : 1000 : 0"
       inkscape:vp_z="1 : 0.5 : 1"
       inkscape:persp3d-origin="0.5 : 0.33333333 : 1"
       id="perspective3420" />
    <inkscape:perspective
       id="perspective3433"
       inkscape:persp3d-origin="372.04724 : 350.78739 : 1"
       inkscape:vp_z="744.09448 : 526.18109 : 1"
       inkscape:vp_y="0 : 1000 : 0"
       inkscape:vp_x="0 : 526.18109 : 1"
       sodipodi:type="inkscape:persp3d" />
  </defs>
  <sodipodi:namedview
     inkscape:window-height="990"
     inkscape:window-width="1438"
     inkscape:pageshadow="2"
     inkscape:pageopacity="0.0"
     guidetolerance="10.0"
     gridtolerance="10.0"
     objecttolerance="10.0"
     borderopacity="1.0"
     bordercolor="#666666"
     pagecolor="#ffffff"
     id="base"
     showborder="false"
     inkscape:showpageshadow="false"
     inkscape:zoom="0.80555556"
     inkscape:cx="437.27964"
     inkscape:cy="280.18073"
     inkscape:window-x="110"
     inkscape:window-y="145"
     inkscape:current-layer="svg1952"
     showgrid="false"
     inkscape:window-maximized="0" />
  <g
     id="g2015"
     transform="translate(-5.036163e-8,1.347461e-5)"
     inkscape:export-xdpi="196.53845"
     inkscape:export-ydpi="196.53845">
    <path
       style="fill:#fdfdfd"
       d="M 0,234 L 0,0 L 229,0 L 458,0 L 458,234 L 458,468 L 229,468 L 0,468 L 0,234 z M 355,456 C 356.64444,454.35556 357,452.66667 357,446.5 C 357,439.66667 356.82222,439 355,439 C 353.9,439 353,439.5051 353,440.12244 C 353,440.88829 352.51405,440.84158 351.47039,439.97542 C 350.30742,439.01025 349.35524,438.97274 347.49797,439.81897 C 344.75776,441.06749 343.46421,444.72911 344.41918,448.53401 C 345.23862,451.79891 349.31239,453.81555 351.47039,452.02458 C 352.76519,450.94998 353,451.09638 353,452.97825 C 353,454.99944 352.59122,455.16888 348.5,454.84349 C 343.7814,454.4682 342.80563,455.20496 345.75,456.9199 C 348.58697,458.57229 352.85185,458.14815 355,456 z M 348.41789,448.64663 C 347.30646,445.75028 348.40745,442.5 350.5,442.5 C 352.11755,442.5 352.5,443.16667 352.5,445.9863 C 352.5,448.51383 352.0179,449.56545 350.74698,449.81021 C 349.78281,449.99589 348.73473,449.47228 348.41789,448.64663 z M 65.982609,446.81811 C 65.638831,443.22245 64.838616,440.50993 63.957153,439.95236 C 61.596075,438.45884 58.388813,438.86067 55.860784,440.96673 C 53.947377,442.56076 53.820447,442.93977 55.190983,442.96673 C 56.121024,442.98503 57.160081,442.55 57.5,442 C 57.839919,441.45 59.024472,441 60.132341,441 C 63.220044,441 62.024256,444.16252 58.5,445.31708 C 51.196262,447.70981 53.272398,452.56181 61.654073,452.68825 L 66.550912,452.76212 L 65.982609,446.81811 z M 58,449.07332 C 58,447.933 58.188196,447 58.418213,447 C 58.648229,447 59.587828,446.71166 60.506209,446.35924 C 61.822831,445.85401 62.104506,446.22198 61.837996,448.09903 C 61.404174,451.15448 58,452.01865 58,449.07332 z M 104,451.87756 C 104,451.11171 104.48595,451.15842 105.52961,452.02458 C 107.68761,453.81555 111.76138,451.79891 112.58082,448.53401 C 113.53579,444.72911 112.24224,441.06749 109.50203,439.81897 C 107.64476,438.97274 106.69258,439.01025 105.52961,439.97542 C 104.20467,441.07503 104,440.76018 104,437.62244 C 104,434.66667 103.63192,434 102,434 C 100.14035,434 100,434.66667 100,443.5 C 100,452.33333 100.14035,453 102,453 C 103.1,453 104,452.4949 104,451.87756 z M 104.41789,448.64663 C 103.30646,445.75028 104.40745,442.5 106.5,442.5 C 108.11755,442.5 108.5,443.16667 108.5,445.9863 C 108.5,448.51383 108.0179,449.56545 106.74698,449.81021 C 105.78281,449.99589 104.73473,449.47228 104.41789,448.64663 z M 159.94893,451.32322 C 162.21064,449.73905 162.23674,449.60851 160.42143,448.95971 C 159.36464,448.58201 158.20792,448.72714 157.85092,449.28221 C 156.56422,451.28287 154,449.09734 154,446 C 154,442.90266 156.56422,440.71713 157.85092,442.71779 C 158.20792,443.27286 159.38316,443.41149 160.46258,443.02585 C 162.29651,442.37065 162.24782,442.20848 159.71987,440.55211 C 154.33173,437.02167 149.05069,441.40134 150.53685,448.16777 C 151.57007,452.872 155.74123,454.27041 159.94893,451.32322 z M 203.8,451.8 C 204.73333,450.86667 205,450.86667 205,451.8 C 205,452.46 205.9,453 207,453 C 208.85965,453 209,452.33333 209,443.5 C 209,434.66667 208.85965,434 207,434 C 205.36036,434 205,434.66667 205,437.7 C 205,440.57778 204.73333,441.13333 203.8,440.2 C 203.14,439.54 202.015,439 201.3,439 C 198.96946,439 196,442.92192 196,446 C 196,449.07808 198.96946,453 201.3,453 C 202.015,453 203.14,452.46 203.8,451.8 z M 200.41789,448.64663 C 199.30646,445.75028 200.40745,442.5 202.5,442.5 C 204.11755,442.5 204.5,443.16667 204.5,445.9863 C 204.5,448.51383 204.0179,449.56545 202.74698,449.81021 C 201.78281,449.99589 200.73473,449.47228 200.41789,448.64663 z M 257.55887,451.5318 C 259.47458,450.08283 259.47381,450.0618 257.5,449.9255 C 256.4,449.84955 254.63947,449.72274 253.58771,449.6437 C 252.53595,449.56467 251.48595,448.9375 251.25438,448.25 C 250.96195,447.38184 252.11379,447 255.02507,447 C 259.09198,447 259.19707,446.9181 258.55367,444.25 C 256.62437,436.2493 247.54545,437.69259 247.54545,446 C 247.54545,452.2513 252.78252,455.14446 257.55887,451.5318 z M 251.25,443.75 C 251.47917,443.0625 252.26667,442.5 253,442.5 C 253.73333,442.5 254.52083,443.0625 254.75,443.75 C 254.99786,444.49359 254.28889,445 253,445 C 251.71111,445 251.00214,444.49359 251.25,443.75 z M 298,447.5 C 298,443.27778 298.34848,442 299.5,442 C 300.325,442 301,441.325 301,440.5 C 301,439.675 300.325,439 299.5,439 C 297.19407,439 297.72216,437.30592 300.23275,436.64938 C 301.92605,436.20658 302.18535,435.78535 301.30597,434.90597 C 299.64745,433.24745 294.89252,434.69498 294.27784,437.04554 C 293.99673,438.12049 293.36922,439 292.88337,439 C 292.39752,439 292,439.675 292,440.5 C 292,441.325 292.45,442 293,442 C 293.55,442 294,444.475 294,447.5 C 294,452.33333 294.24242,453 296,453 C 297.75758,453 298,452.33333 298,447.5 z M 395.19774,447.75937 C 395.43135,443.70904 395.89748,442.44317 397.25,442.18604 C 398.74713,441.90142 399,442.65868 399,447.42668 C 399,452.33333 399.23923,453 401,453 C 402.75439,453 403,452.33333 403,447.57143 C 403,441.24651 401.09752,438.50772 397.35624,439.44672 C 395.27097,439.9701 395,439.69091 395,437.01905 C 395,434.66667 394.55836,434 393,434 C 391.14035,434 391,434.66667 391,443.5 C 391,452.24837 391.1541,453 392.94774,453 C 394.59184,453 394.9426,452.18301 395.19774,447.75937 z M 422,231.5 L 422,38 L 227.5,38 L 33,38 L 33,231.5 L 33,425 L 227.5,425 L 422,425 L 422,231.5 z M 83,400.5 L 83,377 L 106.5,377 L 130,377 L 130,400.5 L 130,424 L 106.5,424 L 83,424 L 83,400.5 z M 180,400.5 L 180,377 L 203.5,377 L 227,377 L 227,400.5 L 227,424 L 203.5,424 L 180,424 L 180,400.5 z M 276,400.5 L 276,377 L 300,377 L 324,377 L 324,400.5 L 324,424 L 300,424 L 276,424 L 276,400.5 z M 373,400.5 L 373,377 L 397,377 L 421,377 L 421,400.5 L 421,424 L 397,424 L 373,424 L 373,400.5 z M 34,352 L 34,328 L 58,328 L 82,328 L 82,352 L 82,376 L 58,376 L 34,376 L 34,352 z M 131,352 L 131,328 L 155,328 L 179,328 L 179,352 L 179,376 L 155,376 L 131,376 L 131,352 z M 228,352 L 228,328 L 251.5,328 L 275,328 L 275,352 L 275,376 L 251.5,376 L 228,376 L 228,352 z M 325,352 L 325,328 L 348.5,328 L 372,328 L 372,352 L 372,376 L 348.5,376 L 325,376 L 325,352 z M 83,303.5 L 83,280 L 106.5,280 L 130,280 L 130,303.5 L 130,327 L 106.5,327 L 83,327 L 83,303.5 z M 180,303.5 L 180,280 L 203.5,280 L 227,280 L 227,303.5 L 227,327 L 203.5,327 L 180,327 L 180,303.5 z M 276,303.5 L 276,280 L 300,280 L 324,280 L 324,303.5 L 324,327 L 300,327 L 276,327 L 276,303.5 z M 373,303.5 L 373,280 L 397,280 L 421,280 L 421,303.5 L 421,327 L 397,327 L 373,327 L 373,303.5 z M 34,255 L 34,231 L 58,231 L 82,231 L 82,255 L 82,279 L 58,279 L 34,279 L 34,255 z M 131,255 L 131,231 L 155,231 L 179,231 L 179,255 L 179,279 L 155,279 L 131,279 L 131,255 z M 228,255 L 228,231 L 251.5,231 L 275,231 L 275,255 L 275,279 L 251.5,279 L 228,279 L 228,255 z M 325,255 L 325,231 L 348.5,231 L 372,231 L 372,255 L 372,279 L 348.5,279 L 325,279 L 325,255 z M 83,206.5 L 83,183 L 106.5,183 L 130,183 L 130,206.5 L 130,230 L 106.5,230 L 83,230 L 83,206.5 z M 180,206.5 L 180,183 L 203.5,183 L 227,183 L 227,206.5 L 227,230 L 203.5,230 L 180,230 L 180,206.5 z M 276,206.5 L 276,183 L 300,183 L 324,183 L 324,206.5 L 324,230 L 300,230 L 276,230 L 276,206.5 z M 373,206.5 L 373,183 L 397,183 L 421,183 L 421,206.5 L 421,230 L 397,230 L 373,230 L 373,206.5 z M 34,158.5 L 34,135 L 58,135 L 82,135 L 82,158.5 L 82,182 L 58,182 L 34,182 L 34,158.5 z M 131,158.5 L 131,135 L 155,135 L 179,135 L 179,158.5 L 179,182 L 155,182 L 131,182 L 131,158.5 z M 228,158.5 L 228,135 L 251.5,135 L 275,135 L 275,158.5 L 275,182 L 251.5,182 L 228,182 L 228,158.5 z M 325,158.5 L 325,135 L 348.5,135 L 372,135 L 372,158.5 L 372,182 L 348.5,182 L 325,182 L 325,158.5 z M 83,110.5 L 83,87 L 106.5,87 L 130,87 L 130,110.5 L 130,134 L 106.5,134 L 83,134 L 83,110.5 z M 180,110.5 L 180,87 L 203.5,87 L 227,87 L 227,110.5 L 227,134 L 203.5,134 L 180,134 L 180,110.5 z M 276,110.5 L 276,87 L 300,87 L 324,87 L 324,110.5 L 324,134 L 300,134 L 276,134 L 276,110.5 z M 373,110.5 L 373,87 L 397,87 L 421,87 L 421,110.5 L 421,134 L 397,134 L 373,134 L 373,110.5 z M 34,62.5 L 34,39 L 58,39 L 82,39 L 82,62.5 L 82,86 L 58,86 L 34,86 L 34,62.5 z M 131,62.5 L 131,39 L 155,39 L 179,39 L 179,62.5 L 179,86 L 155,86 L 131,86 L 131,62.5 z M 228,62.5 L 228,39 L 251.5,39 L 275,39 L 275,62.5 L 275,86 L 251.5,86 L 228,86 L 228,62.5 z M 325,62.5 L 325,39 L 348.5,39 L 372,39 L 372,62.5 L 372,86 L 348.5,86 L 325,86 L 325,62.5 z M 20,399.5 C 20,392.55103 19.664338,390.00787 18.75,390.02931 C 16.827006,390.07441 11,395.76728 11,397.60091 C 11,399.104 11.193388,399.10331 13.5,397.59196 L 16,395.95389 L 16,402.47695 C 16,408.33333 16.204403,409 18,409 C 19.859649,409 20,408.33333 20,399.5 z M 442,399.5 C 442,392.55103 441.66434,390.00787 440.75,390.02931 C 438.82701,390.07441 433,395.76728 433,397.60091 C 433,399.104 433.19339,399.10331 435.5,397.59196 L 438,395.95389 L 438,402.47695 C 438,408.33333 438.2044,409 440,409 C 441.85965,409 442,408.33333 442,399.5 z M 22,355.5 C 22,354.43722 20.922648,354 18.303833,354 L 14.607666,354 L 17.734659,350.75 C 21.988178,346.32916 22.772636,342.77264 20.086658,340.08666 C 18.938996,338.939 17.1,338 16,338 C 13.916552,338 10,341.26379 10,343 C 10,344.58682 13.724688,344.15984 14.361626,342.5 C 14.678209,341.675 15.626354,341 16.468615,341 C 18.235166,341 18.613333,345.50291 16.93395,346.54082 C 15.521927,347.4135 10,355.0659 10,356.15004 C 10,356.61752 12.7,357 16,357 C 20.666667,357 22,356.66667 22,355.5 z M 444,355.5 C 444,354.43722 442.92265,354 440.30383,354 L 436.60767,354 L 439.73466,350.75 C 443.98818,346.32916 444.77264,342.77264 442.08666,340.08666 C 440.939,338.939 439.1,338 438,338 C 435.91655,338 432,341.26379 432,343 C 432,344.58682 435.72469,344.15984 436.36163,342.5 C 436.67821,341.675 437.62635,341 438.46862,341 C 440.23517,341 440.61333,345.50291 438.93395,346.54082 C 437.52193,347.4135 432,355.0659 432,356.15004 C 432,356.61752 434.7,357 438,357 C 442.66667,357 444,356.66667 444,355.5 z M 20,307 C 22.559955,304.44005 22.551165,301.49946 19.978172,299.69726 C 18.192445,298.44649 18.134057,298.13363 19.478172,297.01812 C 21.693042,295.17994 21.348542,293.27448 18.459036,291.3812 C 16.42424,290.04795 15.428224,289.93949 13.459036,290.83671 C 10.771763,292.06111 10.094775,295 12.5,295 C 13.325,295 14,294.55 14,294 C 14,293.45 14.675,293 15.5,293 C 16.333333,293 17,293.88889 17,295 C 17,296.1 16.55,297 16,297 C 14.427755,297 14.832586,299.72178 16.5,300.36163 C 18.26806,301.04009 18.50311,304.57103 16.848296,305.59376 C 16.214859,305.98524 15.15275,305.5618 14.488054,304.65278 C 13.136974,302.80506 11.422664,302.5071 10.522542,303.96353 C 9.666191,305.34913 13.636722,309 16,309 C 17.1,309 18.9,308.1 20,307 z M 442,307 C 444.55995,304.44005 444.55117,301.49946 441.97817,299.69726 C 440.19244,298.44649 440.13406,298.13363 441.47817,297.01812 C 443.69304,295.17994 443.34854,293.27448 440.45904,291.3812 C 438.42424,290.04795 437.42822,289.93949 435.45904,290.83671 C 432.77176,292.06111 432.09478,295 434.5,295 C 435.325,295 436,294.55 436,294 C 436,293.45 436.675,293 437.5,293 C 438.33333,293 439,293.88889 439,295 C 439,296.1 438.55,297 438,297 C 436.42776,297 436.83259,299.72178 438.5,300.36163 C 440.26806,301.04009 440.50311,304.57103 438.8483,305.59376 C 438.21486,305.98524 437.15275,305.5618 436.48805,304.65278 C 435.13697,302.80506 433.42266,302.5071 432.52254,303.96353 C 431.66619,305.34913 435.63672,309 438,309 C 439.1,309 440.9,308.1 442,307 z M 20,263 C 20,261.9 20.45,261 21,261 C 21.55,261 22,260.325 22,259.5 C 22,258.675 21.55,258 21,258 C 20.444444,258 20,255.33333 20,252 C 20,246.94573 19.724163,246.00275 18.25,246.01747 C 16.540301,246.03454 9,257.28436 9,259.81809 C 9,260.50218 10.474203,261 12.5,261 C 15.333333,261 16,261.38095 16,263 C 16,264.33333 16.666667,265 18,265 C 19.333333,265 20,264.33333 20,263 z M 12.931329,256.25 C 15.590022,251.60517 15.968993,251.41899 15.984687,254.75 C 15.996971,257.35708 15.597395,258 13.964816,258 C 12.311614,258 12.11764,257.67154 12.931329,256.25 z M 442,263 C 442,261.9 442.45,261 443,261 C 443.55,261 444,260.325 444,259.5 C 444,258.675 443.55,258 443,258 C 442.44444,258 442,255.33333 442,252 C 442,246.94573 441.72416,246.00275 440.25,246.01747 C 438.5403,246.03454 431,257.28436 431,259.81809 C 431,260.50218 432.4742,261 434.5,261 C 437.33333,261 438,261.38095 438,263 C 438,264.33333 438.66667,265 440,265 C 441.33333,265 442,264.33333 442,263 z M 434.93133,256.25 C 437.59002,251.60517 437.96899,251.41899 437.98469,254.75 C 437.99697,257.35708 437.5974,258 435.96482,258 C 434.31161,258 434.11764,257.67154 434.93133,256.25 z M 19.295399,210.75 C 20.218111,210.0625 21.250995,208.08437 21.590696,206.35417 C 22.333084,202.57294 19.040851,198.49455 15.907546,199.31393 C 14.523448,199.67588 14,199.28963 14,197.90638 C 14,196.39433 14.72396,196 17.5,196 C 19.944444,196 21,195.54762 21,194.5 C 21,193.39288 19.842162,193 16.579455,193 C 12.393018,193 12.124269,193.17212 11.504798,196.25 C 11.145037,198.0375 10.62127,200.31172 10.340873,201.30382 C 9.9036296,202.85088 10.376875,203.06439 13.66553,202.80382 C 17.041525,202.53633 17.540015,202.78282 17.834665,204.86534 C 18.307925,208.21023 16.25418,210.02628 14.572437,207.75 C 13.142638,205.81473 11.437219,205.48355 10.522542,206.96353 C 9.701555,208.29191 13.593598,212 15.80887,212 C 16.803749,212 18.372687,211.4375 19.295399,210.75 z M 441.2954,210.75 C 442.21811,210.0625 443.25099,208.08437 443.5907,206.35417 C 444.33308,202.57294 441.04085,198.49455 437.90755,199.31393 C 436.52345,199.67588 436,199.28963 436,197.90638 C 436,196.39433 436.72396,196 439.5,196 C 441.94444,196 443,195.54762 443,194.5 C 443,193.39288 441.84216,193 438.57946,193 C 434.39302,193 434.12427,193.17212 433.5048,196.25 C 433.14504,198.0375 432.62127,200.31172 432.34087,201.30382 C 431.90363,202.85088 432.37688,203.06439 435.66553,202.80382 C 439.04152,202.53633 439.54001,202.78282 439.83466,204.86534 C 440.30793,208.21023 438.25418,210.02628 436.57244,207.75 C 435.14264,205.81473 433.43722,205.48355 432.52254,206.96353 C 431.70155,208.29191 435.5936,212 437.80887,212 C 438.80375,212 440.37269,211.4375 441.2954,210.75 z M 20,157 C 21.1,155.9 22,154.1 22,153 C 22,150.20573 18.24623,146.70235 15.907546,147.31393 C 14.51547,147.67796 14,147.28913 14,145.875 C 14,143.56999 16.874257,142.17851 17.970752,143.95268 C 18.393648,144.63694 19.525625,145.04001 20.486256,144.84839 C 22.099274,144.52665 22.078994,144.31034 20.221097,142.02015 C 18.478582,139.87219 17.830124,139.67366 15.375922,140.53676 C 13.817544,141.08481 11.951811,142.65074 11.229849,144.01661 C 9.2972042,147.67294 10.287323,155.00449 13.011678,157.21054 C 15.862944,159.51936 17.530896,159.4691 20,157 z M 14.361626,154.5 C 13.561047,152.41372 14.743626,149.74916 16.250526,150.24396 C 18.215207,150.88908 18.467831,156 16.535038,156 C 15.656244,156 14.678209,155.325 14.361626,154.5 z M 442,157 C 443.1,155.9 444,154.1 444,153 C 444,150.20573 440.24623,146.70235 437.90755,147.31393 C 436.51547,147.67796 436,147.28913 436,145.875 C 436,143.56999 438.87426,142.17851 439.97075,143.95268 C 440.39365,144.63694 441.52563,145.04001 442.48626,144.84839 C 444.09927,144.52665 444.07899,144.31034 442.2211,142.02015 C 440.47858,139.87219 439.83012,139.67366 437.37592,140.53676 C 435.81754,141.08481 433.95181,142.65074 433.22985,144.01661 C 431.2972,147.67294 432.28732,155.00449 435.01168,157.21054 C 437.86294,159.51936 439.5309,159.4691 442,157 z M 436.36163,154.5 C 435.56105,152.41372 436.74363,149.74916 438.25053,150.24396 C 440.21521,150.88908 440.46783,156 438.53504,156 C 437.65624,156 436.67821,155.325 436.36163,154.5 z M 16.423853,106.75 C 16.797562,104.4125 18.205076,100.61987 19.551662,98.32193 C 20.898248,96.023992 22,93.661492 22,93.07193 C 22,92.42846 19.601747,92 16,92 C 11.333333,92 10,92.333333 10,93.5 C 10,94.573397 11.094121,95 13.84709,95 L 17.69418,95 L 15.418362,99.75 C 14.166662,102.3625 12.849716,105.9625 12.491817,107.75 C 11.93544,110.52878 12.124063,111 13.792737,111 C 15.315542,111 15.893686,110.06613 16.423853,106.75 z M 438.42385,106.75 C 438.79756,104.4125 440.20508,100.61987 441.55166,98.32193 C 442.89825,96.023992 444,93.661492 444,93.07193 C 444,92.42846 441.60175,92 438,92 C 433.33333,92 432,92.333333 432,93.5 C 432,94.573397 433.09412,95 435.84709,95 L 439.69418,95 L 437.41836,99.75 C 436.16666,102.3625 434.84972,105.9625 434.49182,107.75 C 433.93544,110.52878 434.12406,111 435.79274,111 C 437.31554,111 437.89369,110.06613 438.42385,106.75 z M 20,65 C 22.368037,62.631963 22.505193,61.071075 20.576332,58.44113 C 19.337079,56.751446 19.35279,56.278137 20.697613,54.787245 C 23.918058,51.21701 18.335311,46.614931 13.471935,48.830833 C 10.202023,50.320705 9.3596268,52.633471 11.302387,54.787245 C 12.64721,56.278137 12.662921,56.751446 11.423668,58.44113 C 10.640651,59.508751 10,60.971251 10,61.69113 C 10,63.684091 13.747587,67 16,67 C 17.1,67 18.9,66.1 20,65 z M 14.393537,62.583158 C 13.565857,60.426258 14.717469,57.739156 16.250526,58.250175 C 16.937737,58.479246 17.5,59.716667 17.5,61 C 17.5,63.740831 15.273252,64.875657 14.393537,62.583158 z M 14,53 C 14,51.666667 14.666667,51 16,51 C 17.333333,51 18,51.666667 18,53 C 18,54.333333 17.333333,55 16,55 C 14.666667,55 14,54.333333 14,53 z M 442,65 C 444.36804,62.631963 444.50519,61.071075 442.57633,58.44113 C 441.33708,56.751446 441.35279,56.278137 442.69761,54.787245 C 445.91806,51.21701 440.33531,46.614931 435.47194,48.830833 C 432.20202,50.320705 431.35963,52.633471 433.30239,54.787245 C 434.64721,56.278137 434.66292,56.751446 433.42367,58.44113 C 432.64065,59.508751 432,60.971251 432,61.69113 C 432,63.684091 435.74759,67 438,67 C 439.1,67 440.9,66.1 442,65 z M 436.39354,62.583158 C 435.56586,60.426258 436.71747,57.739156 438.25053,58.250175 C 438.93774,58.479246 439.5,59.716667 439.5,61 C 439.5,63.740831 437.27325,64.875657 436.39354,62.583158 z M 436,53 C 436,51.666667 436.66667,51 438,51 C 439.33333,51 440,51.666667 440,53 C 440,54.333333 439.33333,55 438,55 C 436.66667,55 436,54.333333 436,53 z M 353,29 C 354.64444,27.355556 355,25.666667 355,19.5 C 355,12.666667 354.82222,12 353,12 C 351.9,12 351,12.5051 351,13.122445 C 351,13.888293 350.51405,13.841585 349.47039,12.975423 C 348.30742,12.010245 347.35524,11.972744 345.49797,12.818969 C 342.75776,14.067493 341.46421,17.72911 342.41918,21.534009 C 343.23862,24.798909 347.31239,26.815555 349.47039,25.024577 C 350.76519,23.949983 351,24.096379 351,25.978249 C 351,27.999435 350.59122,28.168875 346.5,27.843488 C 341.7814,27.468202 340.80563,28.204964 343.75,29.919901 C 346.58697,31.572286 350.85185,31.148149 353,29 z M 346.41789,21.646633 C 345.30646,18.750275 346.40745,15.5 348.5,15.5 C 350.11755,15.5 350.5,16.166667 350.5,18.986305 C 350.5,21.513832 350.0179,22.565455 348.74698,22.810212 C 347.78281,22.995892 346.73473,22.472282 346.41789,21.646633 z M 63.982609,19.818106 C 63.638831,16.222445 62.838616,13.509933 61.957153,12.952358 C 59.596075,11.458841 56.388813,11.860671 53.860784,13.966731 C 51.947377,15.560759 51.820447,15.939766 53.190983,15.966731 C 54.121024,15.985029 55.160081,15.55 55.5,15 C 55.839919,14.45 57.024472,14 58.132341,14 C 61.220044,14 60.024256,17.162519 56.5,18.317078 C 49.196262,20.709808 51.272398,25.561806 59.654073,25.68825 L 64.550912,25.762122 L 63.982609,19.818106 z M 56,22.073324 C 56,20.932996 56.188196,20 56.418213,20 C 56.648229,20 57.587828,19.71166 58.506209,19.359244 C 59.822831,18.854009 60.104506,19.221975 59.837996,21.099028 C 59.404174,24.154481 56,25.018649 56,22.073324 z M 103,24.877555 C 103,24.111707 103.48595,24.158415 104.52961,25.024577 C 105.69258,25.989755 106.64476,26.027256 108.50203,25.181031 C 113.04415,23.111502 113.04415,14.888498 108.50203,12.818969 C 106.64476,11.972744 105.69258,12.010245 104.52961,12.975423 C 103.20467,14.075027 103,13.760183 103,10.622445 C 103,7.6666667 102.63192,7 101,7 C 99.140351,7 99,7.6666667 99,16.5 C 99,25.333333 99.140351,26 101,26 C 102.1,26 103,25.4949 103,24.877555 z M 103.41789,21.646633 C 102.30646,18.750275 103.40745,15.5 105.5,15.5 C 107.11755,15.5 107.5,16.166667 107.5,18.986305 C 107.5,21.513832 107.0179,22.565455 105.74698,22.810212 C 104.78281,22.995892 103.73473,22.472282 103.41789,21.646633 z M 158.94893,24.323221 C 161.21064,22.739051 161.23674,22.608513 159.42143,21.959713 C 158.36464,21.582012 157.20792,21.727136 156.85092,22.282209 C 155.56422,24.282868 153,22.097342 153,19 C 153,15.902658 155.56422,13.717132 156.85092,15.717791 C 157.20792,16.272864 158.38316,16.411492 159.46258,16.025851 C 161.29651,15.370652 161.24782,15.208485 158.71987,13.552107 C 153.33173,10.021666 148.05069,14.401339 149.53685,21.167767 C 150.57007,25.872004 154.74123,27.270407 158.94893,24.323221 z M 202.8,24.8 C 203.73333,23.866667 204,23.866667 204,24.8 C 204,25.46 204.9,26 206,26 C 207.85965,26 208,25.333333 208,16.5 C 208,7.6666667 207.85965,7 206,7 C 204.36036,7 204,7.6666667 204,10.7 C 204,13.577778 203.73333,14.133333 202.8,13.2 C 202.14,12.54 201.015,12 200.3,12 C 197.96946,12 195,15.921922 195,19 C 195,22.078078 197.96946,26 200.3,26 C 201.015,26 202.14,25.46 202.8,24.8 z M 199.41789,21.646633 C 198.30646,18.750275 199.40745,15.5 201.5,15.5 C 203.11755,15.5 203.5,16.166667 203.5,18.986305 C 203.5,21.513832 203.0179,22.565455 201.74698,22.810212 C 200.78281,22.995892 199.73473,22.472282 199.41789,21.646633 z M 256.55887,24.531803 C 258.47458,23.08283 258.47381,23.061799 256.5,22.925504 C 255.4,22.849548 253.63947,22.722736 252.58771,22.643701 C 251.53595,22.564665 250.48595,21.9375 250.25438,21.25 C 249.96195,20.381839 251.11379,20 254.02507,20 C 258.09198,20 258.19707,19.9181 257.55367,17.25 C 255.62437,9.249298 246.54545,10.692592 246.54545,19 C 246.54545,25.251297 251.78252,28.144456 256.55887,24.531803 z M 250.25,16.75 C 250.47917,16.0625 251.26667,15.5 252,15.5 C 252.73333,15.5 253.52083,16.0625 253.75,16.75 C 253.99786,17.49359 253.28889,18 252,18 C 250.71111,18 250.00214,17.49359 250.25,16.75 z M 296,20.5 C 296,16.277778 296.34848,15 297.5,15 C 298.325,15 299,14.325 299,13.5 C 299,12.675 298.325,12 297.5,12 C 295.19407,12 295.72216,10.30592 298.23275,9.6493846 C 299.92605,9.2065765 300.18535,8.7853523 299.30597,7.9059692 C 297.64745,6.2474457 292.89252,7.6949833 292.27784,10.045538 C 291.99673,11.120492 291.36922,12 290.88337,12 C 290.39752,12 290,12.675 290,13.5 C 290,14.325 290.45,15 291,15 C 291.55,15 292,17.475 292,20.5 C 292,25.333333 292.24242,26 294,26 C 295.75758,26 296,25.333333 296,20.5 z M 393.19774,20.759366 C 393.43135,16.709043 393.89748,15.443167 395.25,15.186042 C 396.74713,14.901424 397,15.658676 397,20.426676 C 397,25.333333 397.23923,26 399,26 C 400.75439,26 401,25.333333 401,20.571429 C 401,14.246511 399.09752,11.507723 395.35624,12.446724 C 393.27097,12.970095 393,12.690912 393,10.019052 C 393,7.6666667 392.55836,7 391,7 C 389.14035,7 389,7.6666667 389,16.5 C 389,25.248369 389.1541,26 390.94774,26 C 392.59184,26 392.9426,25.183007 393.19774,20.759366 z "
       id="path2019" />
    <path
       style="fill:#828282"
       d="M 345.75,456.9199 C 342.80563,455.20496 343.7814,454.4682 348.5,454.84349 C 352.59122,455.16888 353,454.99944 353,452.97825 C 353,451.09638 352.76519,450.94998 351.47039,452.02458 C 349.31239,453.81555 345.23862,451.79891 344.41918,448.53401 C 343.46421,444.72911 344.75776,441.06749 347.49797,439.81897 C 349.35524,438.97274 350.30742,439.01025 351.47039,439.97542 C 352.51405,440.84158 353,440.88829 353,440.12244 C 353,439.5051 353.9,439 355,439 C 356.82222,439 357,439.66667 357,446.5 C 357,452.66667 356.64444,454.35556 355,456 C 352.85185,458.14815 348.58697,458.57229 345.75,456.9199 z M 352.5,445.9863 C 352.5,443.16667 352.11755,442.5 350.5,442.5 C 349.16849,442.5 348.39001,443.27636 348.17092,444.82273 C 347.69453,448.18521 348.73407,450.19786 350.74698,449.81021 C 352.0179,449.56545 352.5,448.51383 352.5,445.9863 z M 55.378617,451.23576 C 52.970763,448.82791 54.054191,446.77354 58.5,445.31708 C 62.024256,444.16252 63.220044,441 60.132341,441 C 59.024472,441 57.839919,441.45 57.5,442 C 57.160081,442.55 56.121024,442.98503 55.190983,442.96673 C 53.820447,442.93977 53.947377,442.56076 55.860784,440.96673 C 58.388813,438.86067 61.596075,438.45884 63.957153,439.95236 C 64.838616,440.50993 65.638831,443.22245 65.982609,446.81811 L 66.550912,452.76212 L 61.654073,452.68825 C 58.919246,452.64699 56.148559,452.0057 55.378617,451.23576 z M 61.837996,448.09903 C 62.104506,446.22198 61.822831,445.85401 60.506209,446.35924 C 59.587828,446.71166 58.648229,447 58.418213,447 C 58.188196,447 58,447.933 58,449.07332 C 58,452.01865 61.404174,451.15448 61.837996,448.09903 z M 100,443.5 C 100,434.66667 100.14035,434 102,434 C 103.63192,434 104,434.66667 104,437.62244 C 104,440.76018 104.20467,441.07503 105.52961,439.97542 C 106.69258,439.01025 107.64476,438.97274 109.50203,439.81897 C 112.24224,441.06749 113.53579,444.72911 112.58082,448.53401 C 111.76138,451.79891 107.68761,453.81555 105.52961,452.02458 C 104.48595,451.15842 104,451.11171 104,451.87756 C 104,452.4949 103.1,453 102,453 C 100.14035,453 100,452.33333 100,443.5 z M 108.5,445.9863 C 108.5,443.16667 108.11755,442.5 106.5,442.5 C 105.16849,442.5 104.39001,443.27636 104.17092,444.82273 C 103.69453,448.18521 104.73407,450.19786 106.74698,449.81021 C 108.0179,449.56545 108.5,448.51383 108.5,445.9863 z M 152.82815,451.96363 C 150.62446,450.67775 149.66484,446.01172 150.92333,442.70165 C 152.25938,439.18758 156.17648,438.23039 159.71987,440.55211 C 162.24782,442.20848 162.29651,442.37065 160.46258,443.02585 C 159.38316,443.41149 158.20792,443.27286 157.85092,442.71779 C 156.56422,440.71713 154,442.90266 154,446 C 154,449.09734 156.56422,451.28287 157.85092,449.28221 C 158.20792,448.72714 159.36464,448.58201 160.42143,448.95971 C 162.23674,449.60851 162.21064,449.73905 159.94893,451.32322 C 157.25148,453.21259 155.27342,453.39049 152.82815,451.96363 z M 198,451 C 196.88889,449.88889 196,447.66667 196,446 C 196,442.92192 198.96946,439 201.3,439 C 202.015,439 203.14,439.54 203.8,440.2 C 204.73333,441.13333 205,440.57778 205,437.7 C 205,434.66667 205.36036,434 207,434 C 208.85965,434 209,434.66667 209,443.5 C 209,452.33333 208.85965,453 207,453 C 205.9,453 205,452.46 205,451.8 C 205,450.86667 204.73333,450.86667 203.8,451.8 C 202.07061,453.52939 200.2828,453.2828 198,451 z M 204.5,445.9863 C 204.5,443.16667 204.11755,442.5 202.5,442.5 C 201.16849,442.5 200.39001,443.27636 200.17092,444.82273 C 199.69453,448.18521 200.73407,450.19786 202.74698,449.81021 C 204.0179,449.56545 204.5,448.51383 204.5,445.9863 z M 249.46386,451.59723 C 246.79187,449.64342 246.79187,442.35658 249.46386,440.40277 C 253.23435,437.64572 257.3847,439.40234 258.55367,444.25 C 259.19707,446.9181 259.09198,447 255.02507,447 C 252.11379,447 250.96195,447.38184 251.25438,448.25 C 251.48595,448.9375 252.53595,449.56467 253.58771,449.6437 C 254.63947,449.72274 256.4,449.84955 257.5,449.9255 C 259.47381,450.0618 259.47458,450.08283 257.55887,451.5318 C 255.11218,453.38239 251.94027,453.40802 249.46386,451.59723 z M 254.75,443.75 C 254.52083,443.0625 253.73333,442.5 253,442.5 C 252.26667,442.5 251.47917,443.0625 251.25,443.75 C 251.00214,444.49359 251.71111,445 253,445 C 254.28889,445 254.99786,444.49359 254.75,443.75 z M 294,447.5 C 294,444.475 293.55,442 293,442 C 292.45,442 292,441.325 292,440.5 C 292,439.675 292.39752,439 292.88337,439 C 293.36922,439 293.99673,438.12049 294.27784,437.04554 C 294.89252,434.69498 299.64745,433.24745 301.30597,434.90597 C 302.18535,435.78535 301.92605,436.20658 300.23275,436.64938 C 297.72216,437.30592 297.19407,439 299.5,439 C 300.325,439 301,439.675 301,440.5 C 301,441.325 300.325,442 299.5,442 C 298.34848,442 298,443.27778 298,447.5 C 298,452.33333 297.75758,453 296,453 C 294.24242,453 294,452.33333 294,447.5 z M 391,443.5 C 391,434.66667 391.14035,434 393,434 C 394.55836,434 395,434.66667 395,437.01905 C 395,439.69091 395.27097,439.9701 397.35624,439.44672 C 401.09752,438.50772 403,441.24651 403,447.57143 C 403,452.33333 402.75439,453 401,453 C 399.23923,453 399,452.33333 399,447.42668 C 399,442.65868 398.74713,441.90142 397.25,442.18604 C 395.89748,442.44317 395.43135,443.70904 395.19774,447.75937 C 394.9426,452.18301 394.59184,453 392.94774,453 C 391.1541,453 391,452.24837 391,443.5 z M 33,231.5 L 33,38 L 227.5,38 L 422,38 L 422,231.5 L 422,425 L 227.5,425 L 33,425 L 33,231.5 z M 130,400.5 L 130,377 L 106.5,377 L 83,377 L 83,400.5 L 83,424 L 106.5,424 L 130,424 L 130,400.5 z M 227,400.5 L 227,377 L 203.5,377 L 180,377 L 180,400.5 L 180,424 L 203.5,424 L 227,424 L 227,400.5 z M 324,400.5 L 324,377 L 300,377 L 276,377 L 276,400.5 L 276,424 L 300,424 L 324,424 L 324,400.5 z M 421,400.5 L 421,377 L 397,377 L 373,377 L 373,400.5 L 373,424 L 397,424 L 421,424 L 421,400.5 z M 82,352 L 82,328 L 58,328 L 34,328 L 34,352 L 34,376 L 58,376 L 82,376 L 82,352 z M 179,352 L 179,328 L 155,328 L 131,328 L 131,352 L 131,376 L 155,376 L 179,376 L 179,352 z M 275,352 L 275,328 L 251.5,328 L 228,328 L 228,352 L 228,376 L 251.5,376 L 275,376 L 275,352 z M 372,352 L 372,328 L 348.5,328 L 325,328 L 325,352 L 325,376 L 348.5,376 L 372,376 L 372,352 z M 130,303.5 L 130,280 L 106.5,280 L 83,280 L 83,303.5 L 83,327 L 106.5,327 L 130,327 L 130,303.5 z M 227,303.5 L 227,280 L 203.5,280 L 180,280 L 180,303.5 L 180,327 L 203.5,327 L 227,327 L 227,303.5 z M 324,303.5 L 324,280 L 300,280 L 276,280 L 276,303.5 L 276,327 L 300,327 L 324,327 L 324,303.5 z M 421,303.5 L 421,280 L 397,280 L 373,280 L 373,303.5 L 373,327 L 397,327 L 421,327 L 421,303.5 z M 82,255 L 82,231 L 58,231 L 34,231 L 34,255 L 34,279 L 58,279 L 82,279 L 82,255 z M 179,255 L 179,231 L 155,231 L 131,231 L 131,255 L 131,279 L 155,279 L 179,279 L 179,255 z M 275,255 L 275,231 L 251.5,231 L 228,231 L 228,255 L 228,279 L 251.5,279 L 275,279 L 275,255 z M 372,255 L 372,231 L 348.5,231 L 325,231 L 325,255 L 325,279 L 348.5,279 L 372,279 L 372,255 z M 130,206.5 L 130,183 L 106.5,183 L 83,183 L 83,206.5 L 83,230 L 106.5,230 L 130,230 L 130,206.5 z M 227,206.5 L 227,183 L 203.5,183 L 180,183 L 180,206.5 L 180,230 L 203.5,230 L 227,230 L 227,206.5 z M 324,206.5 L 324,183 L 300,183 L 276,183 L 276,206.5 L 276,230 L 300,230 L 324,230 L 324,206.5 z M 421,206.5 L 421,183 L 397,183 L 373,183 L 373,206.5 L 373,230 L 397,230 L 421,230 L 421,206.5 z M 82,158.5 L 82,135 L 58,135 L 34,135 L 34,158.5 L 34,182 L 58,182 L 82,182 L 82,158.5 z M 179,158.5 L 179,135 L 155,135 L 131,135 L 131,158.5 L 131,182 L 155,182 L 179,182 L 179,158.5 z M 275,158.5 L 275,135 L 251.5,135 L 228,135 L 228,158.5 L 228,182 L 251.5,182 L 275,182 L 275,158.5 z M 372,158.5 L 372,135 L 348.5,135 L 325,135 L 325,158.5 L 325,182 L 348.5,182 L 372,182 L 372,158.5 z M 130,110.5 L 130,87 L 106.5,87 L 83,87 L 83,110.5 L 83,134 L 106.5,134 L 130,134 L 130,110.5 z M 227,110.5 L 227,87 L 203.5,87 L 180,87 L 180,110.5 L 180,134 L 203.5,134 L 227,134 L 227,110.5 z M 324,110.5 L 324,87 L 300,87 L 276,87 L 276,110.5 L 276,134 L 300,134 L 324,134 L 324,110.5 z M 421,110.5 L 421,87 L 397,87 L 373,87 L 373,110.5 L 373,134 L 397,134 L 421,134 L 421,110.5 z M 82,62.5 L 82,39 L 58,39 L 34,39 L 34,62.5 L 34,86 L 58,86 L 82,86 L 82,62.5 z M 179,62.5 L 179,39 L 155,39 L 131,39 L 131,62.5 L 131,86 L 155,86 L 179,86 L 179,62.5 z M 275,62.5 L 275,39 L 251.5,39 L 228,39 L 228,62.5 L 228,86 L 251.5,86 L 275,86 L 275,62.5 z M 372,62.5 L 372,39 L 348.5,39 L 325,39 L 325,62.5 L 325,86 L 348.5,86 L 372,86 L 372,62.5 z M 16,402.47695 L 16,395.95389 L 13.5,397.59196 C 11.193388,399.10331 11,399.104 11,397.60091 C 11,395.76728 16.827006,390.07441 18.75,390.02931 C 19.664338,390.00787 20,392.55103 20,399.5 C 20,408.33333 19.859649,409 18,409 C 16.204403,409 16,408.33333 16,402.47695 z M 438,402.47695 L 438,395.95389 L 435.5,397.59196 C 433.19339,399.10331 433,399.104 433,397.60091 C 433,395.76728 438.82701,390.07441 440.75,390.02931 C 441.66434,390.00787 442,392.55103 442,399.5 C 442,408.33333 441.85965,409 440,409 C 438.2044,409 438,408.33333 438,402.47695 z M 10,356.15004 C 10,355.0659 15.521927,347.4135 16.93395,346.54082 C 18.613333,345.50291 18.235166,341 16.468615,341 C 15.626354,341 14.678209,341.675 14.361626,342.5 C 13.724688,344.15984 10,344.58682 10,343 C 10,341.26379 13.916552,338 16,338 C 17.1,338 18.938996,338.939 20.086658,340.08666 C 22.772636,342.77264 21.988178,346.32916 17.734659,350.75 L 14.607666,354 L 18.303833,354 C 20.922648,354 22,354.43722 22,355.5 C 22,356.66667 20.666667,357 16,357 C 12.7,357 10,356.61752 10,356.15004 z M 432,356.15004 C 432,355.0659 437.52193,347.4135 438.93395,346.54082 C 440.61333,345.50291 440.23517,341 438.46862,341 C 437.62635,341 436.67821,341.675 436.36163,342.5 C 435.72469,344.15984 432,344.58682 432,343 C 432,341.26379 435.91655,338 438,338 C 439.1,338 440.939,338.939 442.08666,340.08666 C 444.77264,342.77264 443.98818,346.32916 439.73466,350.75 L 436.60767,354 L 440.30383,354 C 442.92265,354 444,354.43722 444,355.5 C 444,356.66667 442.66667,357 438,357 C 434.7,357 432,356.61752 432,356.15004 z M 11.963525,306.96353 C 9.9605072,304.96051 10.07687,303 12.198774,303 C 12.793182,303 13.823357,303.74375 14.488054,304.65278 C 15.15275,305.5618 16.214859,305.98524 16.848296,305.59376 C 18.50311,304.57103 18.26806,301.04009 16.5,300.36163 C 14.832586,299.72178 14.427755,297 16,297 C 16.55,297 17,296.1 17,295 C 17,293.88889 16.333333,293 15.5,293 C 14.675,293 14,293.45 14,294 C 14,294.55 13.325,295 12.5,295 C 10.094775,295 10.771763,292.06111 13.459036,290.83671 C 15.428224,289.93949 16.42424,290.04795 18.459036,291.3812 C 21.348542,293.27448 21.693042,295.17994 19.478172,297.01812 C 18.134057,298.13363 18.192445,298.44649 19.978172,299.69726 C 22.551165,301.49946 22.559955,304.44005 20,307 C 17.442688,309.55731 14.544157,309.54416 11.963525,306.96353 z M 433.96353,306.96353 C 431.96051,304.96051 432.07687,303 434.19877,303 C 434.79318,303 435.82336,303.74375 436.48805,304.65278 C 437.15275,305.5618 438.21486,305.98524 438.8483,305.59376 C 440.50311,304.57103 440.26806,301.04009 438.5,300.36163 C 436.83259,299.72178 436.42776,297 438,297 C 438.55,297 439,296.1 439,295 C 439,293.88889 438.33333,293 437.5,293 C 436.675,293 436,293.45 436,294 C 436,294.55 435.325,295 434.5,295 C 432.09478,295 432.77176,292.06111 435.45904,290.83671 C 437.42822,289.93949 438.42424,290.04795 440.45904,291.3812 C 443.34854,293.27448 443.69304,295.17994 441.47817,297.01812 C 440.13406,298.13363 440.19244,298.44649 441.97817,299.69726 C 444.55117,301.49946 444.55995,304.44005 442,307 C 439.44269,309.55731 436.54416,309.54416 433.96353,306.96353 z M 16,263 C 16,261.38095 15.333333,261 12.5,261 C 10.474203,261 9,260.50218 9,259.81809 C 9,257.28436 16.540301,246.03454 18.25,246.01747 C 19.724163,246.00275 20,246.94573 20,252 C 20,255.33333 20.444444,258 21,258 C 21.55,258 22,258.675 22,259.5 C 22,260.325 21.55,261 21,261 C 20.45,261 20,261.9 20,263 C 20,264.33333 19.333333,265 18,265 C 16.666667,265 16,264.33333 16,263 z M 15.984687,254.75 C 15.968993,251.41899 15.590022,251.60517 12.931329,256.25 C 12.11764,257.67154 12.311614,258 13.964816,258 C 15.597395,258 15.996971,257.35708 15.984687,254.75 z M 438,263 C 438,261.38095 437.33333,261 434.5,261 C 432.4742,261 431,260.50218 431,259.81809 C 431,257.28436 438.5403,246.03454 440.25,246.01747 C 441.72416,246.00275 442,246.94573 442,252 C 442,255.33333 442.44444,258 443,258 C 443.55,258 444,258.675 444,259.5 C 444,260.325 443.55,261 443,261 C 442.45,261 442,261.9 442,263 C 442,264.33333 441.33333,265 440,265 C 438.66667,265 438,264.33333 438,263 z M 437.98469,254.75 C 437.96899,251.41899 437.59002,251.60517 434.93133,256.25 C 434.11764,257.67154 434.31161,258 435.96482,258 C 437.5974,258 437.99697,257.35708 437.98469,254.75 z M 11.963525,209.96353 C 9.9605072,207.96051 10.07687,206 12.198774,206 C 12.793182,206 13.86133,206.7875 14.572437,207.75 C 16.25418,210.02628 18.307925,208.21023 17.834665,204.86534 C 17.540015,202.78282 17.041525,202.53633 13.66553,202.80382 C 10.376875,203.06439 9.9036296,202.85088 10.340873,201.30382 C 10.62127,200.31172 11.145037,198.0375 11.504798,196.25 C 12.124269,193.17212 12.393018,193 16.579455,193 C 19.842162,193 21,193.39288 21,194.5 C 21,195.54762 19.944444,196 17.5,196 C 14.72396,196 14,196.39433 14,197.90638 C 14,199.28963 14.523448,199.67588 15.907546,199.31393 C 19.040851,198.49455 22.333084,202.57294 21.590696,206.35417 C 20.502456,211.89693 15.698137,213.69814 11.963525,209.96353 z M 433.96353,209.96353 C 431.96051,207.96051 432.07687,206 434.19877,206 C 434.79318,206 435.86133,206.7875 436.57244,207.75 C 438.25418,210.02628 440.30793,208.21023 439.83466,204.86534 C 439.54001,202.78282 439.04152,202.53633 435.66553,202.80382 C 432.37688,203.06439 431.90363,202.85088 432.34087,201.30382 C 432.62127,200.31172 433.14504,198.0375 433.5048,196.25 C 434.12427,193.17212 434.39302,193 438.57946,193 C 441.84216,193 443,193.39288 443,194.5 C 443,195.54762 441.94444,196 439.5,196 C 436.72396,196 436,196.39433 436,197.90638 C 436,199.28963 436.52345,199.67588 437.90755,199.31393 C 441.04085,198.49455 444.33308,202.57294 443.5907,206.35417 C 442.50246,211.89693 437.69814,213.69814 433.96353,209.96353 z M 13.011678,157.21054 C 10.287323,155.00449 9.2972042,147.67294 11.229849,144.01661 C 11.951811,142.65074 13.817544,141.08481 15.375922,140.53676 C 17.830124,139.67366 18.478582,139.87219 20.221097,142.02015 C 22.078994,144.31034 22.099274,144.52665 20.486256,144.84839 C 19.525625,145.04001 18.393648,144.63694 17.970752,143.95268 C 16.874257,142.17851 14,143.56999 14,145.875 C 14,147.28913 14.51547,147.67796 15.907546,147.31393 C 18.24623,146.70235 22,150.20573 22,153 C 22,155.29363 18.67093,159 16.610784,159 C 15.846715,159 14.227117,158.19474 13.011678,157.21054 z M 17.816422,153.32712 C 17.454033,150.26595 15.297103,149.06219 14.393537,151.41684 C 13.539624,153.6421 14.64136,156 16.535038,156 C 17.679179,156 18.043003,155.24109 17.816422,153.32712 z M 435.01168,157.21054 C 432.28732,155.00449 431.2972,147.67294 433.22985,144.01661 C 433.95181,142.65074 435.81754,141.08481 437.37592,140.53676 C 439.83012,139.67366 440.47858,139.87219 442.2211,142.02015 C 444.07899,144.31034 444.09927,144.52665 442.48626,144.84839 C 441.52563,145.04001 440.39365,144.63694 439.97075,143.95268 C 438.87426,142.17851 436,143.56999 436,145.875 C 436,147.28913 436.51547,147.67796 437.90755,147.31393 C 440.24623,146.70235 444,150.20573 444,153 C 444,155.29363 440.67093,159 438.61078,159 C 437.84672,159 436.22712,158.19474 435.01168,157.21054 z M 439.81642,153.32712 C 439.45403,150.26595 437.2971,149.06219 436.39354,151.41684 C 435.53962,153.6421 436.64136,156 438.53504,156 C 439.67918,156 440.043,155.24109 439.81642,153.32712 z M 12.491817,107.75 C 12.849716,105.9625 14.166662,102.3625 15.418362,99.75 L 17.69418,95 L 13.84709,95 C 11.094121,95 10,94.573397 10,93.5 C 10,92.333333 11.333333,92 16,92 C 19.601747,92 22,92.42846 22,93.07193 C 22,93.661492 20.898248,96.023992 19.551662,98.32193 C 18.205076,100.61987 16.797562,104.4125 16.423853,106.75 C 15.893686,110.06613 15.315542,111 13.792737,111 C 12.124063,111 11.93544,110.52878 12.491817,107.75 z M 434.49182,107.75 C 434.84972,105.9625 436.16666,102.3625 437.41836,99.75 L 439.69418,95 L 435.84709,95 C 433.09412,95 432,94.573397 432,93.5 C 432,92.333333 433.33333,92 438,92 C 441.60175,92 444,92.42846 444,93.07193 C 444,93.661492 442.89825,96.023992 441.55166,98.32193 C 440.20508,100.61987 438.79756,104.4125 438.42385,106.75 C 437.89369,110.06613 437.31554,111 435.79274,111 C 434.12406,111 433.93544,110.52878 434.49182,107.75 z M 12,65 C 9.6319628,62.631963 9.4948067,61.071075 11.423668,58.44113 C 12.662921,56.751446 12.64721,56.278137 11.302387,54.787245 C 9.3596268,52.633471 10.202023,50.320705 13.471935,48.830833 C 18.335311,46.614931 23.918058,51.21701 20.697613,54.787245 C 19.35279,56.278137 19.337079,56.751446 20.576332,58.44113 C 21.359349,59.508751 22,60.971251 22,61.69113 C 22,63.684091 18.252413,67 16,67 C 14.9,67 13.1,66.1 12,65 z M 17.5,61 C 17.5,58.259169 15.273252,57.124343 14.393537,59.416842 C 13.565857,61.573742 14.717469,64.260844 16.250526,63.749825 C 16.937737,63.520754 17.5,62.283333 17.5,61 z M 18,53 C 18,51.666667 17.333333,51 16,51 C 14.666667,51 14,51.666667 14,53 C 14,54.333333 14.666667,55 16,55 C 17.333333,55 18,54.333333 18,53 z M 434,65 C 431.63196,62.631963 431.49481,61.071075 433.42367,58.44113 C 434.66292,56.751446 434.64721,56.278137 433.30239,54.787245 C 430.08194,51.21701 435.66469,46.614931 440.52806,48.830833 C 443.79798,50.320705 444.64037,52.633471 442.69761,54.787245 C 441.35279,56.278137 441.33708,56.751446 442.57633,58.44113 C 443.35935,59.508751 444,60.971251 444,61.69113 C 444,63.684091 440.25241,67 438,67 C 436.9,67 435.1,66.1 434,65 z M 439.5,61 C 439.5,58.259169 437.27325,57.124343 436.39354,59.416842 C 435.56586,61.573742 436.71747,64.260844 438.25053,63.749825 C 438.93774,63.520754 439.5,62.283333 439.5,61 z M 440,53 C 440,51.666667 439.33333,51 438,51 C 436.66667,51 436,51.666667 436,53 C 436,54.333333 436.66667,55 438,55 C 439.33333,55 440,54.333333 440,53 z M 343.75,29.919901 C 340.80563,28.204964 341.7814,27.468202 346.5,27.843488 C 350.59122,28.168875 351,27.999435 351,25.978249 C 351,24.096379 350.76519,23.949983 349.47039,25.024577 C 347.31239,26.815555 343.23862,24.798909 342.41918,21.534009 C 341.46421,17.72911 342.75776,14.067493 345.49797,12.818969 C 347.35524,11.972744 348.30742,12.010245 349.47039,12.975423 C 350.51405,13.841585 351,13.888293 351,13.122445 C 351,12.5051 351.9,12 353,12 C 354.82222,12 355,12.666667 355,19.5 C 355,25.666667 354.64444,27.355556 353,29 C 350.85185,31.148149 346.58697,31.572286 343.75,29.919901 z M 350.5,18.986305 C 350.5,16.166667 350.11755,15.5 348.5,15.5 C 347.16849,15.5 346.39001,16.27636 346.17092,17.822726 C 345.69453,21.185213 346.73407,23.197862 348.74698,22.810212 C 350.0179,22.565455 350.5,21.513832 350.5,18.986305 z M 53.378617,24.23576 C 50.970763,21.827906 52.054191,19.77354 56.5,18.317078 C 60.024256,17.162519 61.220044,14 58.132341,14 C 57.024472,14 55.839919,14.45 55.5,15 C 55.160081,15.55 54.121024,15.985029 53.190983,15.966731 C 51.820447,15.939766 51.947377,15.560759 53.860784,13.966731 C 56.388813,11.860671 59.596075,11.458841 61.957153,12.952358 C 62.838616,13.509933 63.638831,16.222445 63.982609,19.818106 L 64.550912,25.762122 L 59.654073,25.68825 C 56.919246,25.646993 54.148559,25.005702 53.378617,24.23576 z M 59.837996,21.099028 C 60.104506,19.221975 59.822831,18.854009 58.506209,19.359244 C 57.587828,19.71166 56.648229,20 56.418213,20 C 56.188196,20 56,20.932996 56,22.073324 C 56,25.018649 59.404174,24.154481 59.837996,21.099028 z M 99,16.5 C 99,7.6666667 99.140351,7 101,7 C 102.63192,7 103,7.6666667 103,10.622445 C 103,13.760183 103.20467,14.075027 104.52961,12.975423 C 105.69258,12.010245 106.64476,11.972744 108.50203,12.818969 C 111.24224,14.067493 112.53579,17.72911 111.58082,21.534009 C 110.76138,24.798909 106.68761,26.815555 104.52961,25.024577 C 103.48595,24.158415 103,24.111707 103,24.877555 C 103,25.4949 102.1,26 101,26 C 99.140351,26 99,25.333333 99,16.5 z M 107.5,18.986305 C 107.5,16.166667 107.11755,15.5 105.5,15.5 C 104.16849,15.5 103.39001,16.27636 103.17092,17.822726 C 102.69453,21.185213 103.73407,23.197862 105.74698,22.810212 C 107.0179,22.565455 107.5,21.513832 107.5,18.986305 z M 151.82815,24.963634 C 149.62446,23.677753 148.66484,19.011724 149.92333,15.701654 C 151.25938,12.18758 155.17648,11.230387 158.71987,13.552107 C 161.24782,15.208485 161.29651,15.370652 159.46258,16.025851 C 158.38316,16.411492 157.20792,16.272864 156.85092,15.717791 C 155.56422,13.717132 153,15.902658 153,19 C 153,22.097342 155.56422,24.282868 156.85092,22.282209 C 157.20792,21.727136 158.36464,21.582012 159.42143,21.959713 C 161.23674,22.608513 161.21064,22.739051 158.94893,24.323221 C 156.25148,26.212587 154.27342,26.390485 151.82815,24.963634 z M 197,24 C 195.88889,22.888889 195,20.666667 195,19 C 195,15.921922 197.96946,12 200.3,12 C 201.015,12 202.14,12.54 202.8,13.2 C 203.73333,14.133333 204,13.577778 204,10.7 C 204,7.6666667 204.36036,7 206,7 C 207.85965,7 208,7.6666667 208,16.5 C 208,25.333333 207.85965,26 206,26 C 204.9,26 204,25.46 204,24.8 C 204,23.866667 203.73333,23.866667 202.8,24.8 C 201.07061,26.529393 199.2828,26.282799 197,24 z M 203.5,18.986305 C 203.5,16.166667 203.11755,15.5 201.5,15.5 C 200.16849,15.5 199.39001,16.27636 199.17092,17.822726 C 198.69453,21.185213 199.73407,23.197862 201.74698,22.810212 C 203.0179,22.565455 203.5,21.513832 203.5,18.986305 z M 248.46386,24.59723 C 245.79187,22.643423 245.79187,15.356577 248.46386,13.40277 C 252.23435,10.645719 256.3847,12.402339 257.55367,17.25 C 258.19707,19.9181 258.09198,20 254.02507,20 C 251.11379,20 249.96195,20.381839 250.25438,21.25 C 250.48595,21.9375 251.53595,22.564665 252.58771,22.643701 C 253.63947,22.722736 255.4,22.849548 256.5,22.925504 C 258.47381,23.061799 258.47458,23.08283 256.55887,24.531803 C 254.11218,26.382387 250.94027,26.408024 248.46386,24.59723 z M 253.75,16.75 C 253.52083,16.0625 252.73333,15.5 252,15.5 C 251.26667,15.5 250.47917,16.0625 250.25,16.75 C 250.00214,17.49359 250.71111,18 252,18 C 253.28889,18 253.99786,17.49359 253.75,16.75 z M 292,20.5 C 292,17.475 291.55,15 291,15 C 290.45,15 290,14.325 290,13.5 C 290,12.675 290.39752,12 290.88337,12 C 291.36922,12 291.99673,11.120492 292.27784,10.045538 C 292.89252,7.6949833 297.64745,6.2474457 299.30597,7.9059692 C 300.18535,8.7853523 299.92605,9.2065765 298.23275,9.6493846 C 295.72216,10.30592 295.19407,12 297.5,12 C 298.325,12 299,12.675 299,13.5 C 299,14.325 298.325,15 297.5,15 C 296.34848,15 296,16.277778 296,20.5 C 296,25.333333 295.75758,26 294,26 C 292.24242,26 292,25.333333 292,20.5 z M 389,16.5 C 389,7.6666667 389.14035,7 391,7 C 392.55836,7 393,7.6666667 393,10.019052 C 393,12.690912 393.27097,12.970095 395.35624,12.446724 C 399.09752,11.507723 401,14.246511 401,20.571429 C 401,25.333333 400.75439,26 399,26 C 397.23923,26 397,25.333333 397,20.426676 C 397,15.658676 396.74713,14.901424 395.25,15.186042 C 393.89748,15.443167 393.43135,16.709043 393.19774,20.759366 C 392.9426,25.183007 392.59184,26 390.94774,26 C 389.1541,26 389,25.248369 389,16.5 z "
       id="path2017" />
  </g>
  <g
     id="layer1"
     inkscape:label="Calque 1"
     transform="matrix(0.05556772,0,0,0.05556772,280.98135,129.21558)">
    <path
       sodipodi:nodetypes="csscccccscccssssscccsssssssscccsccccsssscccscccsssssssscccssssscccscccccsssscc"
       d="m 281.69441,842.27791 c -39.94555,-2.09335 -78.07922,-11.63416 -107.25393,-26.83371 -14.25795,-7.42826 -18.6925,-11.4824 -18.6925,-17.08847 0,-1.89049 5.84757,-16.86285 12.99457,-33.27176 l 12.99446,-29.83403 -12.21608,-28.04071 -12.21606,-28.04082 -24.96857,-30.5669 c -13.73267,-16.81181 -25.596,-31.38616 -26.36291,-32.38738 -0.7665,-1.0015 -7.905585,-53.86217 -15.863683,-117.46869 l -14.469532,-115.64827 -9.05222,-3.04629 c -11.061233,-3.7225 -18.001334,-8.83728 -23.295523,-17.16879 -9.344865,-14.70598 -10.23976,-30.58846 -2.598208,-46.11089 7.824932,-15.89437 22.155205,-24.3938 41.128742,-24.3938 18.973584,0 33.303854,8.49943 41.128604,24.3938 9.06907,18.42192 6.39061,35.10703 -8.80664,54.86044 -0.7902,1.02742 12.66187,30.11514 38.32069,82.85978 l 39.53875,81.2764 5.73763,-99.87173 c 3.15563,-54.92962 5.77865,-101.86152 5.82902,-104.2932 0.0752,-3.76504 -0.67056,-4.81423 -5.04227,-7.06771 -9.21656,-4.75088 -16.46453,-12.1959 -21.16173,-21.73745 -11.50443,-23.36859 -1.39791,-49.85464 23.55746,-61.73719 10.6588,-5.07519 24.93465,-5.07519 35.5935,0 11.15831,5.31312 18.41222,12.32715 23.55744,22.77853 3.88876,7.89918 4.50666,10.57018 4.50666,19.47931 0,8.90921 -0.6177,11.58021 -4.50666,19.47935 -2.64831,5.37928 -6.78556,11.10511 -10.03306,13.88476 l -5.52644,4.73045 33.99024,98.66397 c 18.69466,54.26518 34.32578,98.67368 34.73576,98.68528 0.4097,0.0112 9.38218,-49.71601 19.93809,-110.5059 l 19.19265,-110.52696 -5.87634,-3.89239 c -13.09517,-8.67387 -20.28719,-22.11025 -20.301,-37.92694 -0.0232,-18.40588 10.14565,-33.70146 28.05515,-42.22902 10.65892,-5.07526 24.93465,-5.07526 35.59355,0 11.15831,5.31304 18.41217,12.32695 23.55741,22.7785 3.88995,7.90139 4.50552,10.56347 4.49771,19.45052 -0.0112,15.81669 -7.20581,29.25307 -20.30098,37.92694 l -5.87635,3.89239 19.1926,110.52698 c 10.55599,60.78987 19.52803,110.51755 19.93804,110.50588 0.4097,-0.0112 16.04104,-44.4201 34.73577,-98.68526 l 33.99035,-98.66399 -5.52642,-4.73045 c -3.24753,-2.77965 -7.38489,-8.50548 -10.03315,-13.88476 -11.50441,-23.36859 -1.39786,-49.85464 23.5575,-61.73719 10.65879,-5.07519 24.93461,-5.07519 35.59351,0 11.15831,5.31312 18.41221,12.32715 23.55741,22.77853 3.88875,7.89918 4.50669,10.57018 4.50669,19.47931 0,8.90921 -0.61772,11.58021 -4.50669,19.47935 -4.69722,9.54155 -11.94515,16.98657 -21.16166,21.73745 -4.37162,2.25348 -5.12012,3.30267 -5.0423,7.06771 0.0542,2.43168 2.67328,49.36358 5.82902,104.2932 l 5.73765,99.87173 39.53865,-81.2764 c 25.65882,-52.74462 39.11111,-81.83225 38.32066,-82.85978 -15.19725,-19.75338 -17.8756,-36.4385 -8.80662,-54.86044 7.82484,-15.89437 22.155,-24.3938 41.12872,-24.3938 18.97354,0 33.30379,8.49943 41.12859,24.3938 7.6417,15.52243 6.74681,31.40491 -2.59808,46.11089 -5.29417,8.33151 -12.23427,13.44629 -23.2955,17.16881 l -9.05231,3.0463 -14.46944,115.64824 c -7.95828,63.60652 -15.09694,116.46746 -15.8638,117.46869 -0.7665,1.00149 -12.63015,15.57557 -26.36286,32.38738 l -24.96864,30.5669 -12.21606,28.04082 -12.2161,28.04071 12.99457,29.83403 c 7.14705,16.40891 12.99444,31.38127 12.99444,33.27176 0,5.60607 -4.4344,9.66021 -18.69239,17.08847 -22.60764,11.77811 -50.11263,20.11692 -81.1647,24.60691 -11.65891,1.68561 -32.31657,2.1411 -106.85921,2.35557 -50.8234,0.1473 -95.79447,0.087 -99.93564,-0.12721 l 0,-6.7e-4 z"
       style="fill:#000000;display:inline"
       id="path2161"
       inkscape:connector-curvature="0" />
  </g>
  <rect
     style="fill:#00ff00;stroke:#000000;stroke-width:1.13425112;stroke-opacity:1"
     id="rect3617"
     width="5.6416411"
     height="333.14273"
     x="321.75211"
     y="-44.245399"
     transform="matrix(0.74714559,0.66466042,-0.71176111,0.70242161,0,0)" />
  <rect
     style="fill:#00ff00;stroke:#000000;stroke-width:0.90613931;stroke-opacity:1"
     id="rect4423"
     width="4.5120149"
     height="127.87715"
     x="325.14783"
     y="-242.1584"
     transform="matrix(0.75120068,0.66007389,-0.68872052,0.72502693,0,0)" />
  <rect
     style="fill:#00ff00;stroke:#000000;stroke-width:0.90613931;stroke-opacity:1"
     id="rect4423-4"
     width="4.5120149"
     height="127.87715"
     x="98.749664"
     y="161.76553"
     transform="matrix(0.68773374,-0.72596301,0.69873516,0.71538044,0,0)" />
  <rect
     style="fill:#00ff00;stroke:#000000;stroke-width:0.90613931;stroke-opacity:1"
     id="rect4423-4-2"
     width="4.5120149"
     height="127.87715"
     x="102.90517"
     y="365.53876"
     transform="matrix(0.68773374,-0.72596301,0.69873516,0.71538044,0,0)" />
  <rect
     style="fill:#00ff00;stroke:#000000;stroke-width:0.95019585;stroke-opacity:1"
     id="rect4461"
     width="4.965517"
     height="238.7318"
     x="299.17242"
     y="182.84114" />
  <rect
     style="fill:#00ff00;stroke:#000000;stroke-width:0.57519144;stroke-opacity:1"
     id="rect4461-2"
     width="4.965517"
     height="87.480019"
     x="297.93103"
     y="41.681496" />
  <rect
     style="fill:#00ff00;stroke:#000000;stroke-width:0.93470782;stroke-opacity:1"
     id="rect4461-5"
     width="4.965517"
     height="231.01266"
     x="157.65518"
     y="-270.67877"
     transform="matrix(0,1,-1,0,0,0)" />
  <rect
     style="fill:#00ff00;stroke:#000000;stroke-width:0.57519144;stroke-opacity:1"
     id="rect4461-2-1"
     width="4.965517"
     height="87.480019"
     x="155.41011"
     y="-417.11118"
     transform="matrix(-0.00602062,0.99998188,-0.99998188,-0.00602062,0,0)" />
</svg>
