<?xml version="1.0" encoding="UTF-8" standalone="no"?>
<!DOCTYPE svg PUBLIC "-//W3C//DTD SVG 1.1//EN"
 "http://www.w3.org/Graphics/SVG/1.1/DTD/svg11.dtd">
<!-- Generated by graphviz version 2.26.3 (20100126.1600)
 -->
<!-- Title: ZDD Pages: 1 -->
<svg width="100pt" height="194pt"
 viewBox="0.00 0.00 100.00 194.00" xmlns="http://www.w3.org/2000/svg" xmlns:xlink="http://www.w3.org/1999/xlink">
<g id="graph1" class="graph" transform="scale(1 1) rotate(0) translate(4 190)">
<title>ZDD</title>
<polygon fill="white" stroke="white" points="-4,5 -4,-190 97,-190 97,5 -4,5"/>
<!-- Pavage -->
<g id="node1" class="node"><title>Pavage</title>
<ellipse fill="none" stroke="black" cx="46" cy="-167" rx="46.1672" ry="18.3848"/>
<text text-anchor="middle" x="46" y="-163.4" font-family="Times Roman,serif" font-size="14.00">Pavage</text>
</g>
<!-- EMC -->
<g id="node3" class="node"><title>EMC</title>
<ellipse fill="none" stroke="black" cx="46" cy="-93" rx="33.234" ry="18.3848"/>
<text text-anchor="middle" x="46" y="-89.4" font-family="Times Roman,serif" font-size="14.00">EMC</text>
</g>
<!-- Pavage&#45;&gt;EMC -->
<g id="edge2" class="edge"><title>Pavage&#45;&gt;EMC</title>
<path fill="none" stroke="black" d="M46,-148.327C46,-140.264 46,-130.648 46,-121.711"/>
<polygon fill="black" stroke="black" points="49.5001,-121.667 46,-111.667 42.5001,-121.667 49.5001,-121.667"/>
</g>
<!-- matrix -->
<g id="node5" class="node"><title>matrix</title>
<ellipse fill="none" stroke="black" cx="46" cy="-19" rx="43.8406" ry="18.3848"/>
<text text-anchor="middle" x="46" y="-15.4" font-family="Times Roman,serif" font-size="14.00">matrix</text>
</g>
<!-- EMC&#45;&gt;matrix -->
<g id="edge4" class="edge"><title>EMC&#45;&gt;matrix</title>
<path fill="none" stroke="black" d="M46,-74.3267C46,-66.2639 46,-56.6477 46,-47.7115"/>
<polygon fill="black" stroke="black" points="49.5001,-47.6673 46,-37.6674 42.5001,-47.6674 49.5001,-47.6673"/>
</g>
</g>
</svg>
