<svg xmlns="http://www.w3.org/2000/svg" width="300" height="225">
  <g style="stroke:#000000;stroke-width:1;stroke-linejoin:miter;stroke-miterlimit:4;stroke-opacity:1;">
  <rect x="75" y="150" width="25" height="25" style="fill:rgb(72, 165, 242);" />
  <rect x="75" y="125" width="25" height="25" style="fill:rgb(72, 165, 242);" />
  <rect x="100" y="125" width="25" height="25" style="fill:rgb(72, 165, 242);" />
  <rect x="125" y="125" width="25" height="25" style="fill:rgb(72, 165, 242);" />
  <rect x="75" y="100" width="25" height="25" style="fill:rgb(72, 165, 242);" />
  <rect x="100" y="100" width="25" height="25" style="fill:rgb(72, 165, 242);" />
  </g>
  <g style="stroke:#000000;stroke-width:1;stroke-linejoin:miter;stroke-miterlimit:4;stroke-opacity:1;">
  <rect x="75" y="200" width="25" height="25" style="fill:rgb(216, 242, 72);" />
  <rect x="100" y="200" width="25" height="25" style="fill:rgb(216, 242, 72);" />
  <rect x="75" y="175" width="25" height="25" style="fill:rgb(216, 242, 72);" />
  <rect x="100" y="175" width="25" height="25" style="fill:rgb(216, 242, 72);" />
  <rect x="100" y="150" width="25" height="25" style="fill:rgb(216, 242, 72);" />
  <rect x="125" y="150" width="25" height="25" style="fill:rgb(216, 242, 72);" />
  </g>
  <g style="stroke:#000000;stroke-width:1;stroke-linejoin:miter;stroke-miterlimit:4;stroke-opacity:1;">
  <rect x="125" y="200" width="25" height="25" style="fill:rgb(219, 72, 242);" />
  <rect x="150" y="200" width="25" height="25" style="fill:rgb(219, 72, 242);" />
  <rect x="125" y="175" width="25" height="25" style="fill:rgb(219, 72, 242);" />
  <rect x="150" y="175" width="25" height="25" style="fill:rgb(219, 72, 242);" />
  <rect x="175" y="175" width="25" height="25" style="fill:rgb(219, 72, 242);" />
  <rect x="200" y="175" width="25" height="25" style="fill:rgb(219, 72, 242);" />
  </g>
  <g style="stroke:#000000;stroke-width:1;stroke-linejoin:miter;stroke-miterlimit:4;stroke-opacity:1;">
  <rect x="175" y="200" width="25" height="25" style="fill:rgb(72, 242, 168);" />
  <rect x="200" y="200" width="25" height="25" style="fill:rgb(72, 242, 168);" />
  <rect x="225" y="200" width="25" height="25" style="fill:rgb(72, 242, 168);" />
  <rect x="225" y="175" width="25" height="25" style="fill:rgb(72, 242, 168);" />
  <rect x="200" y="150" width="25" height="25" style="fill:rgb(72, 242, 168);" />
  <rect x="225" y="150" width="25" height="25" style="fill:rgb(72, 242, 168);" />
  </g>
  <g style="stroke:#000000;stroke-width:1;stroke-linejoin:miter;stroke-miterlimit:4;stroke-opacity:1;">
  <rect x="250" y="200" width="25" height="25" style="fill:rgb(242, 120, 72);" />
  <rect x="250" y="175" width="25" height="25" style="fill:rgb(242, 120, 72);" />
  <rect x="275" y="175" width="25" height="25" style="fill:rgb(242, 120, 72);" />
  <rect x="250" y="150" width="25" height="25" style="fill:rgb(242, 120, 72);" />
  <rect x="275" y="150" width="25" height="25" style="fill:rgb(242, 120, 72);" />
  <rect x="250" y="125" width="25" height="25" style="fill:rgb(242, 120, 72);" />
  </g>
  <g style="stroke:#000000;stroke-width:1;stroke-linejoin:miter;stroke-miterlimit:4;stroke-opacity:1;">
  <rect x="150" y="150" width="25" height="25" style="fill:rgb(72, 75, 242);" />
  <rect x="175" y="150" width="25" height="25" style="fill:rgb(72, 75, 242);" />
  <rect x="150" y="125" width="25" height="25" style="fill:rgb(72, 75, 242);" />
  <rect x="150" y="100" width="25" height="25" style="fill:rgb(72, 75, 242);" />
  <rect x="175" y="100" width="25" height="25" style="fill:rgb(72, 75, 242);" />
  <rect x="175" y="75" width="25" height="25" style="fill:rgb(72, 75, 242);" />
  </g>
  <g style="stroke:#000000;stroke-width:1;stroke-linejoin:miter;stroke-miterlimit:4;stroke-opacity:1;">
  <rect x="175" y="125" width="25" height="25" style="fill:rgb(123, 242, 72);" />
  <rect x="200" y="125" width="25" height="25" style="fill:rgb(123, 242, 72);" />
  <rect x="200" y="100" width="25" height="25" style="fill:rgb(123, 242, 72);" />
  <rect x="200" y="75" width="25" height="25" style="fill:rgb(123, 242, 72);" />
  <rect x="175" y="50" width="25" height="25" style="fill:rgb(123, 242, 72);" />
  <rect x="200" y="50" width="25" height="25" style="fill:rgb(123, 242, 72);" />
  </g>
  <g style="stroke:#000000;stroke-width:1;stroke-linejoin:miter;stroke-miterlimit:4;stroke-opacity:1;">
  <rect x="225" y="125" width="25" height="25" style="fill:rgb(242, 72, 174);" />
  <rect x="275" y="125" width="25" height="25" style="fill:rgb(242, 72, 174);" />
  <rect x="225" y="100" width="25" height="25" style="fill:rgb(242, 72, 174);" />
  <rect x="250" y="100" width="25" height="25" style="fill:rgb(242, 72, 174);" />
  <rect x="275" y="100" width="25" height="25" style="fill:rgb(242, 72, 174);" />
  <rect x="275" y="75" width="25" height="25" style="fill:rgb(242, 72, 174);" />
  </g>
  <g style="stroke:#000000;stroke-width:1;stroke-linejoin:miter;stroke-miterlimit:4;stroke-opacity:1;">
  <rect x="225" y="75" width="25" height="25" style="fill:rgb(72, 222, 242);" />
  <rect x="250" y="75" width="25" height="25" style="fill:rgb(72, 222, 242);" />
  <rect x="225" y="50" width="25" height="25" style="fill:rgb(72, 222, 242);" />
  <rect x="250" y="50" width="25" height="25" style="fill:rgb(72, 222, 242);" />
  <rect x="275" y="50" width="25" height="25" style="fill:rgb(72, 222, 242);" />
  <rect x="250" y="25" width="25" height="25" style="fill:rgb(72, 222, 242);" />
  </g>
  <g style="stroke:#000000;stroke-width:1;stroke-linejoin:miter;stroke-miterlimit:4;stroke-opacity:1;">
  <rect x="225" y="25" width="25" height="25" style="fill:rgb(242, 211, 72);" />
  <rect x="275" y="25" width="25" height="25" style="fill:rgb(242, 211, 72);" />
  <rect x="200" y="0" width="25" height="25" style="fill:rgb(242, 211, 72);" />
  <rect x="225" y="0" width="25" height="25" style="fill:rgb(242, 211, 72);" />
  <rect x="250" y="0" width="25" height="25" style="fill:rgb(242, 211, 72);" />
  <rect x="275" y="0" width="25" height="25" style="fill:rgb(242, 211, 72);" />
  </g>
  <g style="stroke:#000000;stroke-width:1;stroke-linejoin:miter;stroke-miterlimit:4;stroke-opacity:1;">
  <rect x="150" y="50" width="25" height="25" style="fill:rgb(163, 72, 242);" />
  </g>
  <g style="stroke:#000000;stroke-width:1;stroke-linejoin:miter;stroke-miterlimit:4;stroke-opacity:1;">
  <rect x="150" y="25" width="25" height="25" style="fill:rgb(72, 242, 112);" />
  <rect x="175" y="25" width="25" height="25" style="fill:rgb(72, 242, 112);" />
  <rect x="200" y="25" width="25" height="25" style="fill:rgb(72, 242, 112);" />
  <rect x="125" y="0" width="25" height="25" style="fill:rgb(72, 242, 112);" />
  <rect x="150" y="0" width="25" height="25" style="fill:rgb(72, 242, 112);" />
  <rect x="175" y="0" width="25" height="25" style="fill:rgb(72, 242, 112);" />
  </g>
  <g style="stroke:#000000;stroke-width:1;stroke-linejoin:miter;stroke-miterlimit:4;stroke-opacity:1;">
  <rect x="125" y="100" width="25" height="25" style="fill:rgb(242, 72, 81);" />
  <rect x="50" y="75" width="25" height="25" style="fill:rgb(242, 72, 81);" />
  <rect x="75" y="75" width="25" height="25" style="fill:rgb(242, 72, 81);" />
  <rect x="100" y="75" width="25" height="25" style="fill:rgb(242, 72, 81);" />
  <rect x="125" y="75" width="25" height="25" style="fill:rgb(242, 72, 81);" />
  <rect x="150" y="75" width="25" height="25" style="fill:rgb(242, 72, 81);" />
  </g>
  <g style="stroke:#000000;stroke-width:1;stroke-linejoin:miter;stroke-miterlimit:4;stroke-opacity:1;">
  <rect x="100" y="0" width="25" height="25" style="fill:rgb(72, 132, 242);" />
  </g>
  <g style="stroke:#000000;stroke-width:1;stroke-linejoin:miter;stroke-miterlimit:4;stroke-opacity:1;">
  <rect x="25" y="50" width="25" height="25" style="fill:rgb(180, 242, 72);" />
  <rect x="50" y="50" width="25" height="25" style="fill:rgb(180, 242, 72);" />
  <rect x="75" y="50" width="25" height="25" style="fill:rgb(180, 242, 72);" />
  <rect x="100" y="50" width="25" height="25" style="fill:rgb(180, 242, 72);" />
  <rect x="125" y="50" width="25" height="25" style="fill:rgb(180, 242, 72);" />
  <rect x="125" y="25" width="25" height="25" style="fill:rgb(180, 242, 72);" />
  </g>
  <g style="stroke:#000000;stroke-width:1;stroke-linejoin:miter;stroke-miterlimit:4;stroke-opacity:1;">
  <rect x="75" y="0" width="25" height="25" style="fill:rgb(242, 72, 230);" />
  </g>
  <g style="stroke:#000000;stroke-width:1;stroke-linejoin:miter;stroke-miterlimit:4;stroke-opacity:1;">
  <rect x="25" y="0" width="25" height="25" style="fill:rgb(72, 242, 205);" />
  </g>
  <g style="stroke:#000000;stroke-width:1;stroke-linejoin:miter;stroke-miterlimit:4;stroke-opacity:1;">
  <rect x="0" y="25" width="25" height="25" style="fill:rgb(242, 154, 72);" />
  <rect x="25" y="25" width="25" height="25" style="fill:rgb(242, 154, 72);" />
  <rect x="50" y="25" width="25" height="25" style="fill:rgb(242, 154, 72);" />
  <rect x="75" y="25" width="25" height="25" style="fill:rgb(242, 154, 72);" />
  <rect x="100" y="25" width="25" height="25" style="fill:rgb(242, 154, 72);" />
  <rect x="50" y="0" width="25" height="25" style="fill:rgb(242, 154, 72);" />
  </g>
  <g style="stroke:#000000;stroke-width:1;stroke-linejoin:miter;stroke-miterlimit:4;stroke-opacity:1;">
  <rect x="0" y="100" width="25" height="25" style="fill:rgb(106, 72, 242);" />
  <rect x="25" y="100" width="25" height="25" style="fill:rgb(106, 72, 242);" />
  <rect x="50" y="100" width="25" height="25" style="fill:rgb(106, 72, 242);" />
  <rect x="0" y="75" width="25" height="25" style="fill:rgb(106, 72, 242);" />
  <rect x="25" y="75" width="25" height="25" style="fill:rgb(106, 72, 242);" />
  <rect x="0" y="50" width="25" height="25" style="fill:rgb(106, 72, 242);" />
  </g>
  <g style="stroke:#000000;stroke-width:1;stroke-linejoin:miter;stroke-miterlimit:4;stroke-opacity:1;">
  <rect x="0" y="0" width="25" height="25" style="fill:rgb(89, 242, 72);" />
  </g>
  <g style="stroke:#000000;stroke-width:1;stroke-linejoin:miter;stroke-miterlimit:4;stroke-opacity:1;">
  <rect x="275" y="200" width="25" height="25" style="fill:rgb(242, 72, 137);" />
  </g>
  <g style="stroke:#000000;stroke-width:1;stroke-linejoin:miter;stroke-miterlimit:4;stroke-opacity:1;">
  <rect x="0" y="175" width="25" height="25" style="fill:rgb(72, 188, 242);" />
  <rect x="25" y="175" width="25" height="25" style="fill:rgb(72, 188, 242);" />
  <rect x="0" y="150" width="25" height="25" style="fill:rgb(72, 188, 242);" />
  <rect x="25" y="150" width="25" height="25" style="fill:rgb(72, 188, 242);" />
  <rect x="0" y="125" width="25" height="25" style="fill:rgb(72, 188, 242);" />
  <rect x="25" y="125" width="25" height="25" style="fill:rgb(72, 188, 242);" />
  </g>
  <g style="stroke:#000000;stroke-width:1;stroke-linejoin:miter;stroke-miterlimit:4;stroke-opacity:1;">
  <rect x="0" y="200" width="25" height="25" style="fill:rgb(236, 242, 72);" />
  <rect x="25" y="200" width="25" height="25" style="fill:rgb(236, 242, 72);" />
  <rect x="50" y="200" width="25" height="25" style="fill:rgb(236, 242, 72);" />
  <rect x="50" y="175" width="25" height="25" style="fill:rgb(236, 242, 72);" />
  <rect x="50" y="150" width="25" height="25" style="fill:rgb(236, 242, 72);" />
  <rect x="50" y="125" width="25" height="25" style="fill:rgb(236, 242, 72);" />
  </g>
  
</svg>
