<?xml version="1.0" standalone="no"?> 
<svg xmlns="http://www.w3.org/2000/svg" width="425" height="300">
  <g style="stroke:#000000;stroke-width:1;stroke-linejoin:miter;stroke-miterlimit:4;stroke-opacity:1;">
  <rect x="200" y="175" width="25" height="25" style="fill:rgb(242, 75, 72);" />
  <rect x="225" y="175" width="25" height="25" style="fill:rgb(242, 75, 72);" />
  <rect x="225" y="150" width="25" height="25" style="fill:rgb(242, 75, 72);" />
  <rect x="250" y="150" width="25" height="25" style="fill:rgb(242, 75, 72);" />
  <rect x="225" y="125" width="25" height="25" style="fill:rgb(242, 75, 72);" />
  <rect x="250" y="125" width="25" height="25" style="fill:rgb(242, 75, 72);" />
  </g>
  <g style="stroke:#000000;stroke-width:1;stroke-linejoin:miter;stroke-miterlimit:4;stroke-opacity:1;">
  <rect x="200" y="150" width="25" height="25" style="fill:rgb(72, 120, 242);" />
  <rect x="200" y="125" width="25" height="25" style="fill:rgb(72, 120, 242);" />
  <rect x="200" y="100" width="25" height="25" style="fill:rgb(72, 120, 242);" />
  <rect x="225" y="100" width="25" height="25" style="fill:rgb(72, 120, 242);" />
  <rect x="200" y="75" width="25" height="25" style="fill:rgb(72, 120, 242);" />
  <rect x="225" y="75" width="25" height="25" style="fill:rgb(72, 120, 242);" />
  </g>
  <g style="stroke:#000000;stroke-width:1;stroke-linejoin:miter;stroke-miterlimit:4;stroke-opacity:1;">
  <rect x="175" y="150" width="25" height="25" style="fill:rgb(168, 242, 72);" />
  <rect x="175" y="125" width="25" height="25" style="fill:rgb(168, 242, 72);" />
  <rect x="175" y="100" width="25" height="25" style="fill:rgb(168, 242, 72);" />
  <rect x="175" y="75" width="25" height="25" style="fill:rgb(168, 242, 72);" />
  <rect x="175" y="50" width="25" height="25" style="fill:rgb(168, 242, 72);" />
  <rect x="200" y="50" width="25" height="25" style="fill:rgb(168, 242, 72);" />
  </g>
  <g style="stroke:#000000;stroke-width:1;stroke-linejoin:miter;stroke-miterlimit:4;stroke-opacity:1;">
  <rect x="150" y="150" width="25" height="25" style="fill:rgb(242, 72, 219);" />
  <rect x="75" y="125" width="25" height="25" style="fill:rgb(242, 72, 219);" />
  <rect x="100" y="125" width="25" height="25" style="fill:rgb(242, 72, 219);" />
  <rect x="125" y="125" width="25" height="25" style="fill:rgb(242, 72, 219);" />
  <rect x="150" y="125" width="25" height="25" style="fill:rgb(242, 72, 219);" />
  <rect x="75" y="100" width="25" height="25" style="fill:rgb(242, 72, 219);" />
  </g>
  <g style="stroke:#000000;stroke-width:1;stroke-linejoin:miter;stroke-miterlimit:4;stroke-opacity:1;">
  <rect x="100" y="100" width="25" height="25" style="fill:rgb(72, 242, 216);" />
  <rect x="125" y="100" width="25" height="25" style="fill:rgb(72, 242, 216);" />
  <rect x="150" y="100" width="25" height="25" style="fill:rgb(72, 242, 216);" />
  <rect x="125" y="75" width="25" height="25" style="fill:rgb(72, 242, 216);" />
  <rect x="150" y="75" width="25" height="25" style="fill:rgb(72, 242, 216);" />
  <rect x="125" y="50" width="25" height="25" style="fill:rgb(72, 242, 216);" />
  </g>
  <g style="stroke:#000000;stroke-width:1;stroke-linejoin:miter;stroke-miterlimit:4;stroke-opacity:1;">
  <rect x="150" y="50" width="25" height="25" style="fill:rgb(242, 165, 72);" />
  <rect x="100" y="25" width="25" height="25" style="fill:rgb(242, 165, 72);" />
  <rect x="125" y="25" width="25" height="25" style="fill:rgb(242, 165, 72);" />
  <rect x="150" y="25" width="25" height="25" style="fill:rgb(242, 165, 72);" />
  <rect x="175" y="25" width="25" height="25" style="fill:rgb(242, 165, 72);" />
  <rect x="150" y="0" width="25" height="25" style="fill:rgb(242, 165, 72);" />
  </g>
  <g style="stroke:#000000;stroke-width:1;stroke-linejoin:miter;stroke-miterlimit:4;stroke-opacity:1;">
  <rect x="75" y="25" width="25" height="25" style="fill:rgb(117, 72, 242);" />
  <rect x="25" y="0" width="25" height="25" style="fill:rgb(117, 72, 242);" />
  <rect x="50" y="0" width="25" height="25" style="fill:rgb(117, 72, 242);" />
  <rect x="75" y="0" width="25" height="25" style="fill:rgb(117, 72, 242);" />
  <rect x="100" y="0" width="25" height="25" style="fill:rgb(117, 72, 242);" />
  <rect x="125" y="0" width="25" height="25" style="fill:rgb(117, 72, 242);" />
  </g>
  <g style="stroke:#000000;stroke-width:1;stroke-linejoin:miter;stroke-miterlimit:4;stroke-opacity:1;">
  <rect x="25" y="75" width="25" height="25" style="fill:rgb(78, 242, 72);" />
  <rect x="100" y="75" width="25" height="25" style="fill:rgb(78, 242, 72);" />
  <rect x="25" y="50" width="25" height="25" style="fill:rgb(78, 242, 72);" />
  <rect x="50" y="50" width="25" height="25" style="fill:rgb(78, 242, 72);" />
  <rect x="75" y="50" width="25" height="25" style="fill:rgb(78, 242, 72);" />
  <rect x="100" y="50" width="25" height="25" style="fill:rgb(78, 242, 72);" />
  </g>
  <g style="stroke:#000000;stroke-width:1;stroke-linejoin:miter;stroke-miterlimit:4;stroke-opacity:1;">
  <rect x="0" y="75" width="25" height="25" style="fill:rgb(242, 72, 126);" />
  <rect x="0" y="50" width="25" height="25" style="fill:rgb(242, 72, 126);" />
  <rect x="0" y="25" width="25" height="25" style="fill:rgb(242, 72, 126);" />
  <rect x="25" y="25" width="25" height="25" style="fill:rgb(242, 72, 126);" />
  <rect x="50" y="25" width="25" height="25" style="fill:rgb(242, 72, 126);" />
  <rect x="0" y="0" width="25" height="25" style="fill:rgb(242, 72, 126);" />
  </g>
  <g style="stroke:#000000;stroke-width:1;stroke-linejoin:miter;stroke-miterlimit:4;stroke-opacity:1;">
  <rect x="50" y="150" width="25" height="25" style="fill:rgb(72, 177, 242);" />
  <rect x="25" y="125" width="25" height="25" style="fill:rgb(72, 177, 242);" />
  <rect x="50" y="125" width="25" height="25" style="fill:rgb(72, 177, 242);" />
  <rect x="50" y="100" width="25" height="25" style="fill:rgb(72, 177, 242);" />
  <rect x="50" y="75" width="25" height="25" style="fill:rgb(72, 177, 242);" />
  <rect x="75" y="75" width="25" height="25" style="fill:rgb(72, 177, 242);" />
  </g>
  <g style="stroke:#000000;stroke-width:1;stroke-linejoin:miter;stroke-miterlimit:4;stroke-opacity:1;">
  <rect x="0" y="175" width="25" height="25" style="fill:rgb(225, 242, 72);" />
  <rect x="0" y="150" width="25" height="25" style="fill:rgb(225, 242, 72);" />
  <rect x="25" y="150" width="25" height="25" style="fill:rgb(225, 242, 72);" />
  <rect x="0" y="125" width="25" height="25" style="fill:rgb(225, 242, 72);" />
  <rect x="0" y="100" width="25" height="25" style="fill:rgb(225, 242, 72);" />
  <rect x="25" y="100" width="25" height="25" style="fill:rgb(225, 242, 72);" />
  </g>
  <g style="stroke:#000000;stroke-width:1;stroke-linejoin:miter;stroke-miterlimit:4;stroke-opacity:1;">
  <rect x="75" y="200" width="25" height="25" style="fill:rgb(208, 72, 242);" />
  <rect x="25" y="175" width="25" height="25" style="fill:rgb(208, 72, 242);" />
  <rect x="50" y="175" width="25" height="25" style="fill:rgb(208, 72, 242);" />
  <rect x="75" y="175" width="25" height="25" style="fill:rgb(208, 72, 242);" />
  <rect x="75" y="150" width="25" height="25" style="fill:rgb(208, 72, 242);" />
  <rect x="100" y="150" width="25" height="25" style="fill:rgb(208, 72, 242);" />
  </g>
  <g style="stroke:#000000;stroke-width:1;stroke-linejoin:miter;stroke-miterlimit:4;stroke-opacity:1;">
  <rect x="150" y="225" width="25" height="25" style="fill:rgb(72, 242, 160);" />
  <rect x="125" y="200" width="25" height="25" style="fill:rgb(72, 242, 160);" />
  <rect x="150" y="200" width="25" height="25" style="fill:rgb(72, 242, 160);" />
  <rect x="175" y="200" width="25" height="25" style="fill:rgb(72, 242, 160);" />
  <rect x="200" y="200" width="25" height="25" style="fill:rgb(72, 242, 160);" />
  <rect x="175" y="175" width="25" height="25" style="fill:rgb(72, 242, 160);" />
  </g>
  <g style="stroke:#000000;stroke-width:1;stroke-linejoin:miter;stroke-miterlimit:4;stroke-opacity:1;">
  <rect x="100" y="225" width="25" height="25" style="fill:rgb(242, 109, 72);" />
  <rect x="100" y="200" width="25" height="25" style="fill:rgb(242, 109, 72);" />
  <rect x="100" y="175" width="25" height="25" style="fill:rgb(242, 109, 72);" />
  <rect x="125" y="175" width="25" height="25" style="fill:rgb(242, 109, 72);" />
  <rect x="150" y="175" width="25" height="25" style="fill:rgb(242, 109, 72);" />
  <rect x="125" y="150" width="25" height="25" style="fill:rgb(242, 109, 72);" />
  </g>
  <g style="stroke:#000000;stroke-width:1;stroke-linejoin:miter;stroke-miterlimit:4;stroke-opacity:1;">
  <rect x="200" y="25" width="25" height="25" style="fill:rgb(72, 83, 242);" />
  <rect x="225" y="25" width="25" height="25" style="fill:rgb(72, 83, 242);" />
  <rect x="175" y="0" width="25" height="25" style="fill:rgb(72, 83, 242);" />
  <rect x="200" y="0" width="25" height="25" style="fill:rgb(72, 83, 242);" />
  <rect x="225" y="0" width="25" height="25" style="fill:rgb(72, 83, 242);" />
  <rect x="250" y="0" width="25" height="25" style="fill:rgb(72, 83, 242);" />
  </g>
  <g style="stroke:#000000;stroke-width:1;stroke-linejoin:miter;stroke-miterlimit:4;stroke-opacity:1;">
  <rect x="275" y="50" width="25" height="25" style="fill:rgb(134, 242, 72);" />
  <rect x="250" y="25" width="25" height="25" style="fill:rgb(134, 242, 72);" />
  <rect x="275" y="25" width="25" height="25" style="fill:rgb(134, 242, 72);" />
  <rect x="300" y="25" width="25" height="25" style="fill:rgb(134, 242, 72);" />
  <rect x="275" y="0" width="25" height="25" style="fill:rgb(134, 242, 72);" />
  <rect x="300" y="0" width="25" height="25" style="fill:rgb(134, 242, 72);" />
  </g>
  <g style="stroke:#000000;stroke-width:1;stroke-linejoin:miter;stroke-miterlimit:4;stroke-opacity:1;">
  <rect x="250" y="100" width="25" height="25" style="fill:rgb(242, 72, 182);" />
  <rect x="275" y="100" width="25" height="25" style="fill:rgb(242, 72, 182);" />
  <rect x="300" y="100" width="25" height="25" style="fill:rgb(242, 72, 182);" />
  <rect x="250" y="75" width="25" height="25" style="fill:rgb(242, 72, 182);" />
  <rect x="225" y="50" width="25" height="25" style="fill:rgb(242, 72, 182);" />
  <rect x="250" y="50" width="25" height="25" style="fill:rgb(242, 72, 182);" />
  </g>
  <g style="stroke:#000000;stroke-width:1;stroke-linejoin:miter;stroke-miterlimit:4;stroke-opacity:1;">
  <rect x="275" y="200" width="25" height="25" style="fill:rgb(72, 233, 242);" />
  <rect x="300" y="200" width="25" height="25" style="fill:rgb(72, 233, 242);" />
  <rect x="325" y="200" width="25" height="25" style="fill:rgb(72, 233, 242);" />
  <rect x="250" y="175" width="25" height="25" style="fill:rgb(72, 233, 242);" />
  <rect x="275" y="175" width="25" height="25" style="fill:rgb(72, 233, 242);" />
  <rect x="325" y="175" width="25" height="25" style="fill:rgb(72, 233, 242);" />
  </g>
  <g style="stroke:#000000;stroke-width:1;stroke-linejoin:miter;stroke-miterlimit:4;stroke-opacity:1;">
  <rect x="300" y="175" width="25" height="25" style="fill:rgb(242, 202, 72);" />
  <rect x="275" y="150" width="25" height="25" style="fill:rgb(242, 202, 72);" />
  <rect x="300" y="150" width="25" height="25" style="fill:rgb(242, 202, 72);" />
  <rect x="325" y="150" width="25" height="25" style="fill:rgb(242, 202, 72);" />
  <rect x="350" y="150" width="25" height="25" style="fill:rgb(242, 202, 72);" />
  <rect x="275" y="125" width="25" height="25" style="fill:rgb(242, 202, 72);" />
  </g>
  <g style="stroke:#000000;stroke-width:1;stroke-linejoin:miter;stroke-miterlimit:4;stroke-opacity:1;">
  <rect x="300" y="125" width="25" height="25" style="fill:rgb(151, 72, 242);" />
  <rect x="325" y="125" width="25" height="25" style="fill:rgb(151, 72, 242);" />
  <rect x="350" y="125" width="25" height="25" style="fill:rgb(151, 72, 242);" />
  <rect x="325" y="100" width="25" height="25" style="fill:rgb(151, 72, 242);" />
  <rect x="350" y="100" width="25" height="25" style="fill:rgb(151, 72, 242);" />
  <rect x="375" y="100" width="25" height="25" style="fill:rgb(151, 72, 242);" />
  </g>
  <g style="stroke:#000000;stroke-width:1;stroke-linejoin:miter;stroke-miterlimit:4;stroke-opacity:1;">
  <rect x="275" y="75" width="25" height="25" style="fill:rgb(72, 242, 103);" />
  <rect x="300" y="75" width="25" height="25" style="fill:rgb(72, 242, 103);" />
  <rect x="325" y="75" width="25" height="25" style="fill:rgb(72, 242, 103);" />
  <rect x="350" y="75" width="25" height="25" style="fill:rgb(72, 242, 103);" />
  <rect x="375" y="75" width="25" height="25" style="fill:rgb(72, 242, 103);" />
  <rect x="300" y="50" width="25" height="25" style="fill:rgb(72, 242, 103);" />
  </g>
  <g style="stroke:#000000;stroke-width:1;stroke-linejoin:miter;stroke-miterlimit:4;stroke-opacity:1;">
  <rect x="325" y="50" width="25" height="25" style="fill:rgb(242, 72, 92);" />
  <rect x="350" y="50" width="25" height="25" style="fill:rgb(242, 72, 92);" />
  <rect x="375" y="50" width="25" height="25" style="fill:rgb(242, 72, 92);" />
  <rect x="400" y="50" width="25" height="25" style="fill:rgb(242, 72, 92);" />
  <rect x="325" y="25" width="25" height="25" style="fill:rgb(242, 72, 92);" />
  <rect x="325" y="0" width="25" height="25" style="fill:rgb(242, 72, 92);" />
  </g>
  <g style="stroke:#000000;stroke-width:1;stroke-linejoin:miter;stroke-miterlimit:4;stroke-opacity:1;">
  <rect x="350" y="25" width="25" height="25" style="fill:rgb(72, 140, 242);" />
  <rect x="375" y="25" width="25" height="25" style="fill:rgb(72, 140, 242);" />
  <rect x="400" y="25" width="25" height="25" style="fill:rgb(72, 140, 242);" />
  <rect x="350" y="0" width="25" height="25" style="fill:rgb(72, 140, 242);" />
  <rect x="375" y="0" width="25" height="25" style="fill:rgb(72, 140, 242);" />
  <rect x="400" y="0" width="25" height="25" style="fill:rgb(72, 140, 242);" />
  </g>
  <g style="stroke:#000000;stroke-width:1;stroke-linejoin:miter;stroke-miterlimit:4;stroke-opacity:1;">
  <rect x="375" y="175" width="25" height="25" style="fill:rgb(191, 242, 72);" />
  <rect x="375" y="150" width="25" height="25" style="fill:rgb(191, 242, 72);" />
  <rect x="375" y="125" width="25" height="25" style="fill:rgb(191, 242, 72);" />
  <rect x="400" y="125" width="25" height="25" style="fill:rgb(191, 242, 72);" />
  <rect x="400" y="100" width="25" height="25" style="fill:rgb(191, 242, 72);" />
  <rect x="400" y="75" width="25" height="25" style="fill:rgb(191, 242, 72);" />
  </g>
  <g style="stroke:#000000;stroke-width:1;stroke-linejoin:miter;stroke-miterlimit:4;stroke-opacity:1;">
  <rect x="375" y="275" width="25" height="25" style="fill:rgb(242, 72, 239);" />
  <rect x="375" y="250" width="25" height="25" style="fill:rgb(242, 72, 239);" />
  <rect x="375" y="225" width="25" height="25" style="fill:rgb(242, 72, 239);" />
  <rect x="350" y="200" width="25" height="25" style="fill:rgb(242, 72, 239);" />
  <rect x="375" y="200" width="25" height="25" style="fill:rgb(242, 72, 239);" />
  <rect x="350" y="175" width="25" height="25" style="fill:rgb(242, 72, 239);" />
  </g>
  <g style="stroke:#000000;stroke-width:1;stroke-linejoin:miter;stroke-miterlimit:4;stroke-opacity:1;">
  <rect x="400" y="275" width="25" height="25" style="fill:rgb(72, 242, 194);" />
  <rect x="400" y="250" width="25" height="25" style="fill:rgb(72, 242, 194);" />
  <rect x="400" y="225" width="25" height="25" style="fill:rgb(72, 242, 194);" />
  <rect x="400" y="200" width="25" height="25" style="fill:rgb(72, 242, 194);" />
  <rect x="400" y="175" width="25" height="25" style="fill:rgb(72, 242, 194);" />
  <rect x="400" y="150" width="25" height="25" style="fill:rgb(72, 242, 194);" />
  </g>
  <g style="stroke:#000000;stroke-width:1;stroke-linejoin:miter;stroke-miterlimit:4;stroke-opacity:1;">
  <rect x="300" y="275" width="25" height="25" style="fill:rgb(242, 146, 72);" />
  <rect x="325" y="275" width="25" height="25" style="fill:rgb(242, 146, 72);" />
  <rect x="350" y="275" width="25" height="25" style="fill:rgb(242, 146, 72);" />
  <rect x="350" y="250" width="25" height="25" style="fill:rgb(242, 146, 72);" />
  <rect x="325" y="225" width="25" height="25" style="fill:rgb(242, 146, 72);" />
  <rect x="350" y="225" width="25" height="25" style="fill:rgb(242, 146, 72);" />
  </g>
  <g style="stroke:#000000;stroke-width:1;stroke-linejoin:miter;stroke-miterlimit:4;stroke-opacity:1;">
  <rect x="250" y="275" width="25" height="25" style="fill:rgb(95, 72, 242);" />
  <rect x="275" y="275" width="25" height="25" style="fill:rgb(95, 72, 242);" />
  <rect x="275" y="250" width="25" height="25" style="fill:rgb(95, 72, 242);" />
  <rect x="300" y="250" width="25" height="25" style="fill:rgb(95, 72, 242);" />
  <rect x="325" y="250" width="25" height="25" style="fill:rgb(95, 72, 242);" />
  <rect x="300" y="225" width="25" height="25" style="fill:rgb(95, 72, 242);" />
  </g>
  <g style="stroke:#000000;stroke-width:1;stroke-linejoin:miter;stroke-miterlimit:4;stroke-opacity:1;">
  <rect x="225" y="250" width="25" height="25" style="fill:rgb(98, 242, 72);" />
  <rect x="250" y="250" width="25" height="25" style="fill:rgb(98, 242, 72);" />
  <rect x="250" y="225" width="25" height="25" style="fill:rgb(98, 242, 72);" />
  <rect x="275" y="225" width="25" height="25" style="fill:rgb(98, 242, 72);" />
  <rect x="225" y="200" width="25" height="25" style="fill:rgb(98, 242, 72);" />
  <rect x="250" y="200" width="25" height="25" style="fill:rgb(98, 242, 72);" />
  </g>
  <g style="stroke:#000000;stroke-width:1;stroke-linejoin:miter;stroke-miterlimit:4;stroke-opacity:1;">
  <rect x="175" y="275" width="25" height="25" style="fill:rgb(242, 72, 148);" />
  <rect x="200" y="275" width="25" height="25" style="fill:rgb(242, 72, 148);" />
  <rect x="225" y="275" width="25" height="25" style="fill:rgb(242, 72, 148);" />
  <rect x="200" y="250" width="25" height="25" style="fill:rgb(242, 72, 148);" />
  <rect x="200" y="225" width="25" height="25" style="fill:rgb(242, 72, 148);" />
  <rect x="225" y="225" width="25" height="25" style="fill:rgb(242, 72, 148);" />
  </g>
  <g style="stroke:#000000;stroke-width:1;stroke-linejoin:miter;stroke-miterlimit:4;stroke-opacity:1;">
  <rect x="0" y="250" width="25" height="25" style="fill:rgb(72, 197, 242);" />
  <rect x="0" y="225" width="25" height="25" style="fill:rgb(72, 197, 242);" />
  <rect x="25" y="225" width="25" height="25" style="fill:rgb(72, 197, 242);" />
  <rect x="0" y="200" width="25" height="25" style="fill:rgb(72, 197, 242);" />
  <rect x="25" y="200" width="25" height="25" style="fill:rgb(72, 197, 242);" />
  <rect x="50" y="200" width="25" height="25" style="fill:rgb(72, 197, 242);" />
  </g>
  <g style="stroke:#000000;stroke-width:1;stroke-linejoin:miter;stroke-miterlimit:4;stroke-opacity:1;">
  <rect x="100" y="275" width="25" height="25" style="fill:rgb(242, 236, 72);" />
  <rect x="125" y="275" width="25" height="25" style="fill:rgb(242, 236, 72);" />
  <rect x="150" y="275" width="25" height="25" style="fill:rgb(242, 236, 72);" />
  <rect x="150" y="250" width="25" height="25" style="fill:rgb(242, 236, 72);" />
  <rect x="175" y="250" width="25" height="25" style="fill:rgb(242, 236, 72);" />
  <rect x="175" y="225" width="25" height="25" style="fill:rgb(242, 236, 72);" />
  </g>
  <g style="stroke:#000000;stroke-width:1;stroke-linejoin:miter;stroke-miterlimit:4;stroke-opacity:1;">
  <rect x="50" y="275" width="25" height="25" style="fill:rgb(188, 72, 242);" />
  <rect x="75" y="275" width="25" height="25" style="fill:rgb(188, 72, 242);" />
  <rect x="75" y="250" width="25" height="25" style="fill:rgb(188, 72, 242);" />
  <rect x="100" y="250" width="25" height="25" style="fill:rgb(188, 72, 242);" />
  <rect x="125" y="250" width="25" height="25" style="fill:rgb(188, 72, 242);" />
  <rect x="125" y="225" width="25" height="25" style="fill:rgb(188, 72, 242);" />
  </g>
  <g style="stroke:#000000;stroke-width:1;stroke-linejoin:miter;stroke-miterlimit:4;stroke-opacity:1;">
  <rect x="0" y="275" width="25" height="25" style="fill:rgb(72, 242, 137);" />
  <rect x="25" y="275" width="25" height="25" style="fill:rgb(72, 242, 137);" />
  <rect x="25" y="250" width="25" height="25" style="fill:rgb(72, 242, 137);" />
  <rect x="50" y="250" width="25" height="25" style="fill:rgb(72, 242, 137);" />
  <rect x="50" y="225" width="25" height="25" style="fill:rgb(72, 242, 137);" />
  <rect x="75" y="225" width="25" height="25" style="fill:rgb(72, 242, 137);" />
  </g>
  
</svg>
